<?xml version="1.0" encoding="UTF-8" standalone="no"?><svg xmlns="http://www.w3.org/2000/svg" xmlns:xlink="http://www.w3.org/1999/xlink" contentScriptType="application/ecmascript" contentStyleType="text/css" height="455px" preserveAspectRatio="none" style="width:710px;height:455px;" version="1.1" viewBox="0 0 710 455" width="710px" zoomAndPan="magnify"><defs/><g><!--MD5=[ed1d20ea533a2a0e7df5ba3c35e56ced]
cluster Controllers--><path d="M252.015,50 L326.015,50 A4.5,4.5 0 0 1 329.015,53 L336.015,70.4844 L499.015,70.4844 A3,3 0 0 1 502.015,73.4844 L502.015,130 A3,3 0 0 1 499.015,133 L252.015,133 A3,3 0 0 1 249.015,130 L249.015,53 A3,3 0 0 1 252.015,50 " fill="#FFFFFF" style="stroke: #000000; stroke-width: 1.5;"/><line style="stroke: #000000; stroke-width: 1.5;" x1="249.015" x2="336.015" y1="70.4844" y2="70.4844"/><text fill="#000000" font-family="Tahoma, sans-serif" font-size="12" font-weight="bold" lengthAdjust="spacingAndGlyphs" textLength="74" x="253.015" y="64.0059">Controllers</text><!--MD5=[01444e0f60f2f1f3466acc3cffdc895e]
cluster Middlewares--><path d="M27.0152,256 L108.0152,256 A4.5,4.5 0 0 1 111.0152,259 L118.0152,276.4844 L249.015,276.4844 A3,3 0 0 1 252.015,279.4844 L252.015,436 A3,3 0 0 1 249.015,439 L27.0152,439 A3,3 0 0 1 24.0152,436 L24.0152,259 A3,3 0 0 1 27.0152,256 " fill="#FFFFFF" style="stroke: #000000; stroke-width: 1.5;"/><line style="stroke: #000000; stroke-width: 1.5;" x1="24.0152" x2="118.0152" y1="276.4844" y2="276.4844"/><text fill="#000000" font-family="Tahoma, sans-serif" font-size="12" font-weight="bold" lengthAdjust="spacingAndGlyphs" textLength="81" x="28.0152" y="270.0059">Middlewares</text><!--MD5=[027ebfd53c01aea08f474edbf35d0797]
cluster Models--><path d="M279.015,360 L326.015,360 A4.5,4.5 0 0 1 329.015,363 L336.015,380.4844 L459.015,380.4844 A3,3 0 0 1 462.015,383.4844 L462.015,440 A3,3 0 0 1 459.015,443 L279.015,443 A3,3 0 0 1 276.015,440 L276.015,363 A3,3 0 0 1 279.015,360 " fill="#FFFFFF" style="stroke: #000000; stroke-width: 1.5;"/><line style="stroke: #000000; stroke-width: 1.5;" x1="276.015" x2="336.015" y1="380.4844" y2="380.4844"/><text fill="#000000" font-family="Tahoma, sans-serif" font-size="12" font-weight="bold" lengthAdjust="spacingAndGlyphs" textLength="47" x="280.015" y="374.0059">Models</text><!--MD5=[cdfd548b3455e70392372b1f27091970]
cluster Services--><path d="M342.015,157 L399.015,157 A4.5,4.5 0 0 1 402.015,160 L409.015,177.4844 L590.015,177.4844 A3,3 0 0 1 593.015,180.4844 L593.015,229 A3,3 0 0 1 590.015,232 L342.015,232 A3,3 0 0 1 339.015,229 L339.015,160 A3,3 0 0 1 342.015,157 " fill="#FFFFFF" style="stroke: #000000; stroke-width: 1.5;"/><line style="stroke: #000000; stroke-width: 1.5;" x1="339.015" x2="409.015" y1="177.4844" y2="177.4844"/><text fill="#000000" font-family="Tahoma, sans-serif" font-size="12" font-weight="bold" lengthAdjust="spacingAndGlyphs" textLength="57" x="343.015" y="171.0059">Services</text><!--MD5=[600c2d25b6889bd4e9f6b335204b22ae]
cluster Repositories--><path d="M446.015,259 L530.015,259 A4.5,4.5 0 0 1 533.015,262 L540.015,279.4844 L590.015,279.4844 A3,3 0 0 1 593.015,282.4844 L593.015,333 A3,3 0 0 1 590.015,336 L446.015,336 A3,3 0 0 1 443.015,333 L443.015,262 A3,3 0 0 1 446.015,259 " fill="#FFFFFF" style="stroke: #000000; stroke-width: 1.5;"/><line style="stroke: #000000; stroke-width: 1.5;" x1="443.015" x2="540.015" y1="279.4844" y2="279.4844"/><text fill="#000000" font-family="Tahoma, sans-serif" font-size="12" font-weight="bold" lengthAdjust="spacingAndGlyphs" textLength="84" x="447.015" y="273.0059">Repositories</text><!--MD5=[114f4823940f317c08f5bedd633c9afd]
cluster Entities--><path d="M489.015,360 L539.015,360 A4.5,4.5 0 0 1 542.015,363 L549.015,380.4844 L695.015,380.4844 A3,3 0 0 1 698.015,383.4844 L698.015,440 A3,3 0 0 1 695.015,443 L489.015,443 A3,3 0 0 1 486.015,440 L486.015,363 A3,3 0 0 1 489.015,360 " fill="#FFFFFF" style="stroke: #000000; stroke-width: 1.5;"/><line style="stroke: #000000; stroke-width: 1.5;" x1="486.015" x2="549.015" y1="380.4844" y2="380.4844"/><text fill="#000000" font-family="Tahoma, sans-serif" font-size="12" font-weight="bold" lengthAdjust="spacingAndGlyphs" textLength="50" x="490.015" y="374.0059">Entities</text><!--MD5=[d06a8b9102defe736655824e5da7ce2d]
entity _auth_controller--><rect fill="#F8F8F8" height="34.4844" rx="3" ry="3" style="stroke: #000000; stroke-width: 0.5;" width="103" x="382.515" y="83"/><text fill="#000000" font-family="Tahoma, sans-serif" font-size="12" lengthAdjust="spacingAndGlyphs" textLength="83" x="392.515" y="105.0059">auth.controller</text><!--MD5=[d86e588f3408319142292d1b5d5a3230]
entity _user_controller--><rect fill="#F8F8F8" height="34.4844" rx="3" ry="3" style="stroke: #000000; stroke-width: 0.5;" width="103" x="265.515" y="83"/><text fill="#000000" font-family="Tahoma, sans-serif" font-size="12" lengthAdjust="spacingAndGlyphs" textLength="83" x="275.515" y="105.0059">user.controller</text><ellipse cx="200.8348" cy="306.242" fill="#F8F8F8" rx="34.8198" ry="13.242" style="stroke: #383838; stroke-width: 0.5;"/><text fill="#000000" font-family="Tahoma, sans-serif" font-size="12" lengthAdjust="spacingAndGlyphs" textLength="45" x="178.3348" y="309.9842">auth.jwt</text><ellipse cx="81.971" cy="410.242" fill="#F8F8F8" rx="28.4558" ry="13.242" style="stroke: #383838; stroke-width: 0.5;"/><text fill="#000000" font-family="Tahoma, sans-serif" font-size="12" lengthAdjust="spacingAndGlyphs" textLength="36" x="63.971" y="413.9842">logger</text><!--MD5=[f24447cfbda88c07e91dd3d7c0c3db79]
entity _TypeORMLogger--><rect fill="#F8F8F8" height="34.4844" rx="3" ry="3" style="stroke: #000000; stroke-width: 0.5;" width="112" x="40.0152" y="289"/><text fill="#000000" font-family="Tahoma, sans-serif" font-size="12" lengthAdjust="spacingAndGlyphs" textLength="92" x="50.0152" y="311.0059">TypeORMLogger</text><!--MD5=[090835527c10669de3872c7ae72a3e7a]
entity _Auth--><rect fill="#F8F8F8" height="34.4844" rx="3" ry="3" style="stroke: #000000; stroke-width: 0.5;" width="45" x="400.515" y="393"/><text fill="#000000" font-family="Tahoma, sans-serif" font-size="12" lengthAdjust="spacingAndGlyphs" textLength="25" x="410.515" y="415.0059">Auth</text><!--MD5=[4c029acf0569c1dbcb6e2b5523401c80]
entity _models_User--><rect fill="#F8F8F8" height="34.4844" rx="3" ry="3" style="stroke: #000000; stroke-width: 0.5;" width="94" x="292.015" y="393"/><text fill="#000000" font-family="Tahoma, sans-serif" font-size="12" lengthAdjust="spacingAndGlyphs" textLength="74" x="302.015" y="415.0059">models/User</text><ellipse cx="406.8054" cy="203.242" fill="#F8F8F8" rx="51.7904" ry="13.242" style="stroke: #383838; stroke-width: 0.5;"/><text fill="#000000" font-family="Tahoma, sans-serif" font-size="12" lengthAdjust="spacingAndGlyphs" textLength="69" x="372.3054" y="206.9842">auth.service</text><ellipse cx="524.8054" cy="203.242" fill="#F8F8F8" rx="51.7904" ry="13.242" style="stroke: #383838; stroke-width: 0.5;"/><text fill="#000000" font-family="Tahoma, sans-serif" font-size="12" lengthAdjust="spacingAndGlyphs" textLength="69" x="490.3054" y="206.9842">user.service</text><ellipse cx="518.2309" cy="306.2432" fill="#F8F8F8" rx="59.2159" ry="14.2432" style="stroke: #383838; stroke-width: 0.5;"/><text fill="#000000" font-family="Tahoma, sans-serif" font-size="12" lengthAdjust="spacingAndGlyphs" textLength="86" x="475.2309" y="309.9854">user.repository</text><!--MD5=[147a91f99759f6cb8c425b4553f458eb]
entity _entities_User--><rect fill="#F8F8F8" height="34.4844" rx="3" ry="3" style="stroke: #000000; stroke-width: 0.5;" width="93" x="502.515" y="393"/><text fill="#000000" font-family="Tahoma, sans-serif" font-size="12" lengthAdjust="spacingAndGlyphs" textLength="73" x="512.515" y="415.0059">entities/User</text><!--MD5=[df7b7da2504707e2c9c337bf9ecd3425]
entity _EventLog--><rect fill="#F8F8F8" height="34.4844" rx="3" ry="3" style="stroke: #000000; stroke-width: 0.5;" width="72" x="610.015" y="393"/><text fill="#000000" font-family="Tahoma, sans-serif" font-size="12" lengthAdjust="spacingAndGlyphs" textLength="52" x="620.015" y="415.0059">EventLog</text><ellipse cx="271.178" cy="21.242" fill="#F8F8F8" rx="29.163" ry="13.242" style="stroke: #383838; stroke-width: 0.5;"/><text fill="#000000" font-family="Tahoma, sans-serif" font-size="12" lengthAdjust="spacingAndGlyphs" textLength="37" x="252.678" y="24.9842">routes</text><ellipse cx="150.0064" cy="21.242" fill="#F8F8F8" rx="31.9914" ry="13.242" style="stroke: #383838; stroke-width: 0.5;"/><text fill="#000000" font-family="Tahoma, sans-serif" font-size="12" font-weight="bold" lengthAdjust="spacingAndGlyphs" textLength="41" x="129.5064" y="24.9842">server</text><!--MD5=[aaf6bb04ec7f0ad0e7dffbf36b8a8be6]
link _auth_controller to _Auth--><path d="M485.532,102.142 C520.587,105.944 564.697,117.307 588.015,149 C639.377,218.808 646.725,280.249 588.015,344 C573.363,359.91 511.02,343.778 491.015,352 C471.389,360.0666 453.195,375.9558 440.575,388.9134 " fill="none" id="_auth_controller-&gt;_Auth" style="stroke: #000000; stroke-width: 0.5;"/><polygon fill="#000000" points="436.842,392.8288,445.9476,389.0755,440.2924,389.2101,440.1578,383.5549,436.842,392.8288" style="stroke: #000000; stroke-width: 0.5;"/><!--MD5=[d54f8a898f2b2f93b3b33fade19514d3]
link _auth_controller to auth.service--><path d="M429.677,117.227 C424.717,135.781 416.634,166.019 411.581,184.921 " fill="none" id="_auth_controller-&gt;auth.service" style="stroke: #000000; stroke-width: 0.5;"/><polygon fill="#000000" points="410.241,189.933,416.43,182.2716,411.5325,185.1027,408.7015,180.2052,410.241,189.933" style="stroke: #000000; stroke-width: 0.5;"/><!--MD5=[562c46d0512001f86390504dff043105]
link _auth_controller to logger--><path d="M414.021,117.099 C403.05,125.257 388.888,134.735 375.015,141 C362.047,146.856 357.689,145.063 344.015,149 C204.623,189.139 118.627,130.902 33.0152,248 C7.8333,282.443 19.4731,303.539 33.0152,344 C39.6003,363.6748 54.7479,382.1607 66.4713,394.3507 " fill="none" id="_auth_controller-&gt;logger" style="stroke: #000000; stroke-width: 0.5;"/><polygon fill="#000000" points="69.9864,397.926,66.5292,388.7039,66.4811,394.3605,60.8244,394.3124,69.9864,397.926" style="stroke: #000000; stroke-width: 0.5;"/><!--MD5=[572c719d8e046331fbd67b721e6b8c15]
link auth.jwt to _Auth--><path d="M229.993,313.468 C282.835,325.305 389.757,349.48 393.015,352 C404.651,360.9986 412.25,375.7987 416.888,388.0626 " fill="none" id="auth.jwt-&gt;_Auth" style="stroke: #000000; stroke-width: 0.5;"/><polygon fill="#000000" points="418.581,392.7929,419.3138,382.9713,416.8959,388.0854,411.7818,385.6675,418.581,392.7929" style="stroke: #000000; stroke-width: 0.5;"/><!--MD5=[d2d7d09a7514e225210c9e2c095de26d]
link auth.jwt to logger--><path d="M188.209,318.406 C179.921,325.757 168.876,335.496 159.015,344 C138.55,361.6491 114.746,381.6663 99.0841,394.7672 " fill="none" id="auth.jwt-&gt;logger" style="stroke: #000000; stroke-width: 0.5; stroke-dasharray: 7.0,7.0;"/><polygon fill="#000000" points="94.8922,398.2712,104.3629,395.5681,98.7285,395.0645,99.2321,389.4301,94.8922,398.2712" style="stroke: #000000; stroke-width: 0.5;"/><!--MD5=[224bc9a7bec10d656533ed895f4a5b22]
link auth.jwt to _models_User--><path d="M215.784,317.916 C238.979,335.06 284.262,368.5306 313.004,389.7744 " fill="none" id="auth.jwt-&gt;_models_User" style="stroke: #000000; stroke-width: 0.5;"/><polygon fill="#000000" points="317.12,392.8167,312.2593,384.2509,313.0989,389.8451,307.5047,390.6847,317.12,392.8167" style="stroke: #000000; stroke-width: 0.5;"/><!--MD5=[32ca86990d707716a406822f99e0a40d]
link auth.service to _Auth--><path d="M407.968,216.21 C410.6,249.936 417.997,344.703 421.339,387.5211 " fill="none" id="auth.service-&gt;_Auth" style="stroke: #000000; stroke-width: 0.5;"/><polygon fill="#000000" points="421.745,392.7212,425.0323,383.4372,421.3558,387.7364,417.0566,384.0599,421.745,392.7212" style="stroke: #000000; stroke-width: 0.5;"/><!--MD5=[9e9f16af2e1b4bb8d9144e8ef5210e61]
link auth.service to auth.jwt--><path d="M384.97,214.809 C346.271,233.782 266.384,272.95 225.819,292.839 " fill="none" id="auth.service-&gt;auth.jwt" style="stroke: #000000; stroke-width: 0.5;"/><polygon fill="#000000" points="221.072,295.166,230.9139,294.7955,225.5614,292.9649,227.392,287.6124,221.072,295.166" style="stroke: #000000; stroke-width: 0.5;"/><!--MD5=[1383f3e222429f0733e643250a9c4b0e]
link auth.service to user.repository--><path d="M420.184,215.983 C440.053,234.062 477.743,268.356 500.095,288.694 " fill="none" id="auth.service-&gt;user.repository" style="stroke: #000000; stroke-width: 0.5;"/><polygon fill="#000000" points="503.814,292.078,499.8497,283.0622,500.116,288.7128,494.4654,288.979,503.814,292.078" style="stroke: #000000; stroke-width: 0.5;"/><!--MD5=[a6574b0883c99c33d1c1e34f472f0782]
link routes to _auth_controller--><path d="M299.824,23.127 C321.55,24.993 351.519,29.796 375.015,42 C392.048,50.848 407.498,66.176 418.312,78.71 " fill="none" id="routes-&gt;_auth_controller" style="stroke: #000000; stroke-width: 0.5;"/><polygon fill="#000000" points="421.797,82.84,419.0483,73.3825,418.5718,79.0192,412.9351,78.5427,421.797,82.84" style="stroke: #000000; stroke-width: 0.5;"/><!--MD5=[562440ee5b2be334a30381992739c0d2]
link routes to auth.jwt--><path d="M259.862,33.137 C257.639,35.855 255.527,38.884 254.015,42 C212.489,127.6 203.488,244.038 201.546,287.605 " fill="none" id="routes-&gt;auth.jwt" style="stroke: #000000; stroke-width: 0.5;"/><polygon fill="#000000" points="201.334,292.787,205.6984,283.9579,201.5383,287.7912,197.7051,283.6311,201.334,292.787" style="stroke: #000000; stroke-width: 0.5;"/><!--MD5=[c3d2556c4d629c2bc3d7bb124fdead71]
link routes to _user_controller--><path d="M278.002,33.695 C285.108,45.59 296.264,64.264 304.829,78.601 " fill="none" id="routes-&gt;_user_controller" style="stroke: #000000; stroke-width: 0.5;"/><polygon fill="#000000" points="307.397,82.899,306.2157,73.1212,304.8329,78.6065,299.3477,77.2238,307.397,82.899" style="stroke: #000000; stroke-width: 0.5;"/><!--MD5=[58b1ddf9e3fd87978458e42747798e8d]
link <b>server</b> to _Auth--><path d="M167.972,31.871 C172.497,34.804 177.16,38.247 181.015,42 C210.915,71.108 371.484,316.255 393.015,352 C400.083,363.7345 407.257,377.2904 412.816,388.2377 " fill="none" id="&lt;b&gt;server&lt;/b&gt;-&gt;_Auth" style="stroke: #000000; stroke-width: 1.0;"/><polygon fill="#000000" points="415.094,392.7567,414.6144,382.9195,412.8432,388.292,407.4708,386.5208,415.094,392.7567" style="stroke: #000000; stroke-width: 1.0;"/><!--MD5=[322b45c47471d12b6d49db8397c5ba50]
link <b>server</b> to auth.jwt--><path d="M147.755,34.241 C142.025,68.079 129.084,165.316 154.015,240 C154.95,242.801 175.281,270.427 188.894,288.751 " fill="none" id="&lt;b&gt;server&lt;/b&gt;-&gt;auth.jwt" style="stroke: #000000; stroke-width: 1.0;"/><polygon fill="#000000" points="192.194,293.188,190.0313,283.5795,189.2096,289.1764,183.6127,288.3546,192.194,293.188" style="stroke: #000000; stroke-width: 1.0;"/><!--MD5=[5dcf67e50701372d1e4b38ad174e1bd8]
link <b>server</b> to logger--><path d="M126.49,30.074 C120.231,33.073 113.869,36.999 109.015,42 C39.0494,114.081 37.1552,149.796 16.0152,248 C7.0361,289.711 -0.463,304.644 16.0152,344 C25.2692,366.1022 46.1073,384.4945 61.9111,396.0087 " fill="none" id="&lt;b&gt;server&lt;/b&gt;-&gt;logger" style="stroke: #000000; stroke-width: 1.0;"/><polygon fill="#000000" points="66.2213,399.0713,61.2015,390.5977,62.1454,396.1753,56.5678,397.1192,66.2213,399.0713" style="stroke: #000000; stroke-width: 1.0;"/><!--MD5=[918f1540acef5cbfe8e12ed9833e65d6]
link <b>server</b> to _models_User--><path d="M152.42,34.169 C156.988,56.104 167.922,103.482 184.015,141 C205.771,191.717 219.325,200.264 247.015,248 C276.148,298.223 309.894,357.589 327.294,388.2891 " fill="none" id="&lt;b&gt;server&lt;/b&gt;-&gt;_models_User" style="stroke: #000000; stroke-width: 1.0;"/><polygon fill="#000000" points="329.943,392.9644,328.986,383.1622,327.4779,388.6143,322.0258,387.1063,329.943,392.9644" style="stroke: #000000; stroke-width: 1.0;"/><!--MD5=[b5550d8c7cbc955c7a41f0bf9d55f796]
link <b>server</b> to routes--><path d="M182.156,21 C200.346,21 218.537,21 236.727,21 " fill="none" id="&lt;b&gt;server&lt;/b&gt;-&gt;routes" style="stroke: #000000; stroke-width: 1.0;"/><polygon fill="#000000" points="241.858,21,232.858,17,236.858,21,232.858,25,241.858,21" style="stroke: #000000; stroke-width: 1.0;"/><!--MD5=[b7da318761176cd6308606b45640b193]
link <b>server</b> to _TypeORMLogger--><path d="M141.173,33.828 C139.575,36.415 138.081,39.215 137.015,42 C104.3189,127.434 97.6729,237.997 96.34,283.744 " fill="none" id="&lt;b&gt;server&lt;/b&gt;-&gt;_TypeORMLogger" style="stroke: #000000; stroke-width: 1.0;"/><polygon fill="#000000" points="96.2024,288.996,100.4376,280.1043,96.3338,283.9977,92.4404,279.894,96.2024,288.996" style="stroke: #000000; stroke-width: 1.0;"/><!--MD5=[e740ba654b198251af9249c33f84db62]
link _TypeORMLogger to logger--><path d="M93.7658,323.388 C91.1941,342.125 87.0026,372.6632 84.3825,391.7523 " fill="none" id="_TypeORMLogger-&gt;logger" style="stroke: #000000; stroke-width: 0.5; stroke-dasharray: 7.0,7.0;"/><polygon fill="#000000" points="83.6878,396.8135,88.8746,388.4411,84.3678,391.86,80.949,387.3531,83.6878,396.8135" style="stroke: #000000; stroke-width: 0.5;"/><!--MD5=[f9d07b912afd61cfb43e6511e1d68859]
link _user_controller to auth.jwt--><path d="M307.913,117.008 C286.357,154.916 232.362,249.873 210.463,288.384 " fill="none" id="_user_controller-&gt;auth.jwt" style="stroke: #000000; stroke-width: 0.5;"/><polygon fill="#000000" points="207.956,292.793,215.8822,286.9471,210.4278,288.4467,208.9281,282.9922,207.956,292.793" style="stroke: #000000; stroke-width: 0.5;"/><!--MD5=[0fb2ab3080e68b16e7150866435982e3]
link _user_controller to _models_User--><path d="M318.167,117.126 C321.841,168.566 333.287,328.804 337.467,387.3237 " fill="none" id="_user_controller-&gt;_models_User" style="stroke: #000000; stroke-width: 0.5;"/><polygon fill="#000000" points="337.848,392.6623,341.1965,383.4001,337.4917,387.675,333.2168,383.9702,337.848,392.6623" style="stroke: #000000; stroke-width: 0.5;"/><!--MD5=[097b81be3c6bf7c7e3a5dba365f1a503]
link _user_controller to user.service--><path d="M334.967,117.021 C345.785,125.694 360.285,135.694 375.015,141 C413.213,154.758 428.776,132.824 466.015,149 C484.623,157.083 501.356,173.419 512.208,185.83 " fill="none" id="_user_controller-&gt;user.service" style="stroke: #000000; stroke-width: 0.5;"/><polygon fill="#000000" points="515.657,189.871,512.8547,180.4292,512.4102,186.0686,506.7709,185.6241,515.657,189.871" style="stroke: #000000; stroke-width: 0.5;"/><!--MD5=[91323e5e891003a8aa47e6c2bae4dadc]
link user.repository to _entities_User--><path d="M522.068,320.335 C527.303,337.559 536.474,367.7345 542.645,388.0392 " fill="none" id="user.repository-&gt;_entities_User" style="stroke: #000000; stroke-width: 0.5;"/><polygon fill="#000000" points="544.145,392.9749,545.3551,383.2007,542.6911,388.1909,537.7008,385.5269,544.145,392.9749" style="stroke: #000000; stroke-width: 0.5;"/><!--MD5=[8b3a2cc741c76eb341206bb75debbab7]
link user.repository to _EventLog--><path d="M546.715,318.384 C564.164,326.188 586.239,337.705 603.015,352 C615.284,362.4539 626.183,376.9939 633.939,388.7719 " fill="none" id="user.repository-&gt;_EventLog" style="stroke: #000000; stroke-width: 0.5;"/><polygon fill="#000000" points="636.651,392.9735,635.1302,383.2428,633.9391,388.7728,628.4091,387.5818,636.651,392.9735" style="stroke: #000000; stroke-width: 0.5;"/><!--MD5=[268a1c9652f8bd851d1a6e5346c68370]
link user.repository to _models_User--><path d="M477.819,316.317 C452.167,323.466 418.981,335.025 393.015,352 C377.946,361.8509 364.053,376.7084 354.133,388.7847 " fill="none" id="user.repository-&gt;_models_User" style="stroke: #000000; stroke-width: 0.5;"/><polygon fill="#000000" points="350.926,392.7623,359.6889,388.2667,354.0643,388.8699,353.4611,383.2453,350.926,392.7623" style="stroke: #000000; stroke-width: 0.5;"/><!--MD5=[b64e42995474d859eb56ab10f112be97]
link user.service to _models_User--><path d="M507.804,215.318 C496.215,222.734 480.467,232.42 466.015,240 C458.262,244.066 454.728,242.381 448.015,248 C400.155,288.062 364.567,354.246 348.492,387.9154 " fill="none" id="user.service-&gt;_models_User" style="stroke: #000000; stroke-width: 0.5;"/><polygon fill="#000000" points="346.263,392.6402,353.7213,386.2079,348.3968,388.1184,346.4863,382.7939,346.263,392.6402" style="stroke: #000000; stroke-width: 0.5;"/><!--MD5=[063e2d6f822dd6550b1063ec9215e714]
link user.service to user.repository--><path d="M524.157,216.385 C522.937,233.986 520.693,266.355 519.282,286.721 " fill="none" id="user.service-&gt;user.repository" style="stroke: #000000; stroke-width: 0.5;"/><polygon fill="#000000" points="518.925,291.874,523.5376,283.1721,519.2707,286.886,515.5568,282.619,518.925,291.874" style="stroke: #000000; stroke-width: 0.5;"/><script type="text/plantuml"><![CDATA[MD5=[403ca5eda3658a36ac3f0d183cbc6f95]
@startuml

scale max 1920 width
top to bottom direction

skinparam nodesep 14
skinparam ranksep 27
skinparam monochrome true
skinparam shadowing false
skinparam defaultFontName Tahoma
skinparam defaultFontSize 12
skinparam roundCorner 6
skinparam dpi 150
skinparam arrowColor black
skinparam arrowThickness 0.5
skinparam packageTitleAlignment left

skinparam usecase {
  borderThickness 0.5
}

skinparam rectangle {
  borderThickness 0.5
}

skinparam component {
  borderThickness 1
}


(routes)
(<b>server</b>)

package "Controllers" {
  rectangle "auth.controller" as _auth_controller
  rectangle "user.controller" as _user_controller
}

package "Middlewares" {
  (auth.jwt)
  (logger)
  rectangle "TypeORMLogger" as _TypeORMLogger
}

package "Models" {
  rectangle "Auth" as _Auth
  rectangle "models/User" as _models_User
}

package "Services" {
  (auth.service)
  (user.service)
}

package "Repositories" {
  (user.repository)
}

package "Entities" {
  rectangle "entities/User" as _entities_User
  rectangle "EventLog" as _EventLog
}


_auth_controller --> _Auth
_auth_controller --> (auth.service)
_auth_controller --> (logger)
(auth.jwt) --> _Auth
(auth.jwt) ..> (logger)
(auth.jwt) --> _models_User
(auth.service) --> _Auth
(auth.service) --> (auth.jwt)
(auth.service) --> (user.repository)
(routes) --> _auth_controller
(routes) --> (auth.jwt)
(routes) --> _user_controller
(<b>server</b>) -[thickness=1]> _Auth
(<b>server</b>) -[thickness=1]> (auth.jwt)
(<b>server</b>) -[thickness=1]> (logger)
(<b>server</b>) -[thickness=1]> _models_User
(<b>server</b>) -[thickness=1]> (routes)
(<b>server</b>) -[thickness=1]> _TypeORMLogger
_TypeORMLogger ..> (logger)
_user_controller --> (auth.jwt)
_user_controller --> _models_User
_user_controller --> (user.service)
(user.repository) --> _entities_User
(user.repository) --> _EventLog
(user.repository) --> _models_User
(user.service) --> _models_User
(user.service) --> (user.repository)

@enduml


' View and edit on https://arkit.pro
]]></script></g></svg>