<?xml version="1.0" encoding="UTF-8" standalone="no"?><svg xmlns="http://www.w3.org/2000/svg" xmlns:xlink="http://www.w3.org/1999/xlink" contentScriptType="application/ecmascript" contentStyleType="text/css" height="875px" preserveAspectRatio="none" style="width:1244px;height:875px;" version="1.1" viewBox="0 0 1244 875" width="1244px" zoomAndPan="magnify"><defs/><g><!--MD5=[81da1a12a6ffceb0b7ff692a5ac8efc2]
cluster Server & Router--><path d="M17,247 L120,247 A4.5,4.5 0 0 1 123,250 L130,267.4844 L130,267.4844 A3,3 0 0 1 133,270.4844 L133,361 A3,3 0 0 1 130,364 L17,364 A3,3 0 0 1 14,361 L14,250 A3,3 0 0 1 17,247 " fill="#FFFFFF" style="stroke: #000000; stroke-width: 1.5;"/><line style="stroke: #000000; stroke-width: 1.5;" x1="14" x2="130" y1="267.4844" y2="267.4844"/><text fill="#000000" font-family="Tahoma, sans-serif" font-size="12" font-weight="bold" lengthAdjust="spacingAndGlyphs" textLength="103" x="18" y="261.0059">Server &amp; Router</text><!--MD5=[ed1d20ea533a2a0e7df5ba3c35e56ced]
cluster Controllers--><path d="M160,218 L234,218 A4.5,4.5 0 0 1 237,221 L244,238.4844 L322,238.4844 A3,3 0 0 1 325,241.4844 L325,398 A3,3 0 0 1 322,401 L160,401 A3,3 0 0 1 157,398 L157,221 A3,3 0 0 1 160,218 " fill="#FFFFFF" style="stroke: #000000; stroke-width: 1.5;"/><line style="stroke: #000000; stroke-width: 1.5;" x1="157" x2="244" y1="238.4844" y2="238.4844"/><text fill="#000000" font-family="Tahoma, sans-serif" font-size="12" font-weight="bold" lengthAdjust="spacingAndGlyphs" textLength="74" x="161" y="232.0059">Controllers</text><!--MD5=[01444e0f60f2f1f3466acc3cffdc895e]
cluster Middlewares--><path d="M555.5,75 L636.5,75 A4.5,4.5 0 0 1 639.5,78 L646.5,95.4844 L857.5,95.4844 A3,3 0 0 1 860.5,98.4844 L860.5,197 A3,3 0 0 1 857.5,200 L555.5,200 A3,3 0 0 1 552.5,197 L552.5,78 A3,3 0 0 1 555.5,75 " fill="#FFFFFF" style="stroke: #000000; stroke-width: 1.5;"/><line style="stroke: #000000; stroke-width: 1.5;" x1="552.5" x2="646.5" y1="95.4844" y2="95.4844"/><text fill="#000000" font-family="Tahoma, sans-serif" font-size="12" font-weight="bold" lengthAdjust="spacingAndGlyphs" textLength="81" x="556.5" y="89.0059">Middlewares</text><!--MD5=[027ebfd53c01aea08f474edbf35d0797]
cluster Models--><path d="M740,224 L787,224 A4.5,4.5 0 0 1 790,227 L797,244.4844 L892,244.4844 A3,3 0 0 1 895,247.4844 L895,404 A3,3 0 0 1 892,407 L740,407 A3,3 0 0 1 737,404 L737,227 A3,3 0 0 1 740,224 " fill="#FFFFFF" style="stroke: #000000; stroke-width: 1.5;"/><line style="stroke: #000000; stroke-width: 1.5;" x1="737" x2="797" y1="244.4844" y2="244.4844"/><text fill="#000000" font-family="Tahoma, sans-serif" font-size="12" font-weight="bold" lengthAdjust="spacingAndGlyphs" textLength="47" x="741" y="238.0059">Models</text><!--MD5=[cdfd548b3455e70392372b1f27091970]
cluster Services--><path d="M352,388 L409,388 A4.5,4.5 0 0 1 412,391 L419,408.4844 L509,408.4844 A3,3 0 0 1 512,411.4844 L512,550 A3,3 0 0 1 509,553 L352,553 A3,3 0 0 1 349,550 L349,391 A3,3 0 0 1 352,388 " fill="#FFFFFF" style="stroke: #000000; stroke-width: 1.5;"/><line style="stroke: #000000; stroke-width: 1.5;" x1="349" x2="419" y1="408.4844" y2="408.4844"/><text fill="#000000" font-family="Tahoma, sans-serif" font-size="12" font-weight="bold" lengthAdjust="spacingAndGlyphs" textLength="57" x="353" y="402.0059">Services</text><!--MD5=[600c2d25b6889bd4e9f6b335204b22ae]
cluster Repositories--><path d="M539,495 L623,495 A4.5,4.5 0 0 1 626,498 L633,515.4844 L710,515.4844 A3,3 0 0 1 713,518.4844 L713,619 A3,3 0 0 1 710,622 L539,622 A3,3 0 0 1 536,619 L536,498 A3,3 0 0 1 539,495 " fill="#FFFFFF" style="stroke: #000000; stroke-width: 1.5;"/><line style="stroke: #000000; stroke-width: 1.5;" x1="536" x2="633" y1="515.4844" y2="515.4844"/><text fill="#000000" font-family="Tahoma, sans-serif" font-size="12" font-weight="bold" lengthAdjust="spacingAndGlyphs" textLength="84" x="540" y="509.0059">Repositories</text><!--MD5=[114f4823940f317c08f5bedd633c9afd]
cluster Entities--><path d="M740.5,431 L790.5,431 A4.5,4.5 0 0 1 793.5,434 L800.5,451.4844 L1229,451.4844 A3,3 0 0 1 1232,454.4844 L1232,579 A3,3 0 0 1 1229,582 L740.5,582 A3,3 0 0 1 737.5,579 L737.5,434 A3,3 0 0 1 740.5,431 " fill="#FFFFFF" style="stroke: #000000; stroke-width: 1.5;"/><line style="stroke: #000000; stroke-width: 1.5;" x1="737.5" x2="800.5" y1="451.4844" y2="451.4844"/><text fill="#000000" font-family="Tahoma, sans-serif" font-size="12" font-weight="bold" lengthAdjust="spacingAndGlyphs" textLength="50" x="741.5" y="445.0059">Entities</text><!--MD5=[9149df60bdb753397a8aec95a07bd16a]
cluster Errors--><path d="M751.5,616 L791.5,616 A4.5,4.5 0 0 1 794.5,619 L801.5,636.4844 L880.5,636.4844 A3,3 0 0 1 883.5,639.4844 L883.5,796 A3,3 0 0 1 880.5,799 L751.5,799 A3,3 0 0 1 748.5,796 L748.5,619 A3,3 0 0 1 751.5,616 " fill="#FFFFFF" style="stroke: #000000; stroke-width: 1.5;"/><line style="stroke: #000000; stroke-width: 1.5;" x1="748.5" x2="801.5" y1="636.4844" y2="636.4844"/><text fill="#000000" font-family="Tahoma, sans-serif" font-size="12" font-weight="bold" lengthAdjust="spacingAndGlyphs" textLength="40" x="752.5" y="630.0059">Errors</text><ellipse cx="73.163" cy="293.242" fill="#F8F8F8" rx="29.163" ry="13.242" style="stroke: #383838; stroke-width: 0.5;"/><text fill="#000000" font-family="Tahoma, sans-serif" font-size="12" lengthAdjust="spacingAndGlyphs" textLength="37" x="54.663" y="296.9842">routes</text><ellipse cx="72.9914" cy="335.242" fill="#F8F8F8" rx="31.9914" ry="13.242" style="stroke: #383838; stroke-width: 0.5;"/><text fill="#000000" font-family="Tahoma, sans-serif" font-size="12" font-weight="bold" lengthAdjust="spacingAndGlyphs" textLength="41" x="52.4914" y="338.9842">server</text><!--MD5=[9e96457d60a40d7b446d98a35d5539e5]
entity _apartment_controller--><rect fill="#F8F8F8" height="34.4844" rx="3" ry="3" style="stroke: #000000; stroke-width: 0.5;" width="136" x="173" y="351"/><text fill="#000000" font-family="Tahoma, sans-serif" font-size="12" lengthAdjust="spacingAndGlyphs" textLength="116" x="183" y="373.0059">apartment.controller</text><!--MD5=[d06a8b9102defe736655824e5da7ce2d]
entity _auth_controller--><rect fill="#F8F8F8" height="34.4844" rx="3" ry="3" style="stroke: #000000; stroke-width: 0.5;" width="103" x="189.5" y="251"/><text fill="#000000" font-family="Tahoma, sans-serif" font-size="12" lengthAdjust="spacingAndGlyphs" textLength="83" x="199.5" y="273.0059">auth.controller</text><!--MD5=[d86e588f3408319142292d1b5d5a3230]
entity _user_controller--><rect fill="#F8F8F8" height="34.4844" rx="3" ry="3" style="stroke: #000000; stroke-width: 0.5;" width="103" x="189.5" y="301"/><text fill="#000000" font-family="Tahoma, sans-serif" font-size="12" lengthAdjust="spacingAndGlyphs" textLength="83" x="199.5" y="323.0059">user.controller</text><ellipse cx="624.3198" cy="171.242" fill="#F8F8F8" rx="34.8198" ry="13.242" style="stroke: #383838; stroke-width: 0.5;"/><text fill="#000000" font-family="Tahoma, sans-serif" font-size="12" lengthAdjust="spacingAndGlyphs" textLength="45" x="601.8198" y="174.9842">auth.jwt</text><ellipse cx="815.9558" cy="123.242" fill="#F8F8F8" rx="28.4558" ry="13.242" style="stroke: #383838; stroke-width: 0.5;"/><text fill="#000000" font-family="Tahoma, sans-serif" font-size="12" lengthAdjust="spacingAndGlyphs" textLength="36" x="797.9558" y="126.9842">logger</text><!--MD5=[f24447cfbda88c07e91dd3d7c0c3db79]
entity _TypeORMLogger--><rect fill="#F8F8F8" height="34.4844" rx="3" ry="3" style="stroke: #000000; stroke-width: 0.5;" width="112" x="568.5" y="108"/><text fill="#000000" font-family="Tahoma, sans-serif" font-size="12" lengthAdjust="spacingAndGlyphs" textLength="92" x="578.5" y="130.0059">TypeORMLogger</text><!--MD5=[090835527c10669de3872c7ae72a3e7a]
entity _Auth--><rect fill="#F8F8F8" height="34.4844" rx="3" ry="3" style="stroke: #000000; stroke-width: 0.5;" width="45" x="793.5" y="257"/><text fill="#000000" font-family="Tahoma, sans-serif" font-size="12" lengthAdjust="spacingAndGlyphs" textLength="25" x="803.5" y="279.0059">Auth</text><!--MD5=[a59e0cdbfcc9060e410ebd05378c71bb]
entity _models_Apartment--><rect fill="#F8F8F8" height="34.4844" rx="3" ry="3" style="stroke: #000000; stroke-width: 0.5;" width="126" x="753" y="357"/><text fill="#000000" font-family="Tahoma, sans-serif" font-size="12" lengthAdjust="spacingAndGlyphs" textLength="106" x="763" y="379.0059">models/Apartment</text><!--MD5=[4c029acf0569c1dbcb6e2b5523401c80]
entity _models_User--><rect fill="#F8F8F8" height="34.4844" rx="3" ry="3" style="stroke: #000000; stroke-width: 0.5;" width="94" x="769" y="307"/><text fill="#000000" font-family="Tahoma, sans-serif" font-size="12" lengthAdjust="spacingAndGlyphs" textLength="74" x="779" y="329.0059">models/User</text><ellipse cx="430.5478" cy="521.0096" fill="#F8F8F8" rx="65.5478" ry="15.5096" style="stroke: #383838; stroke-width: 0.5;"/><text fill="#000000" font-family="Tahoma, sans-serif" font-size="12" lengthAdjust="spacingAndGlyphs" textLength="102" x="379.5478" y="524.7518">apartment.service</text><ellipse cx="430.2904" cy="434.242" fill="#F8F8F8" rx="51.7904" ry="13.242" style="stroke: #383838; stroke-width: 0.5;"/><text fill="#000000" font-family="Tahoma, sans-serif" font-size="12" lengthAdjust="spacingAndGlyphs" textLength="69" x="395.7904" y="437.9842">auth.service</text><ellipse cx="430.2904" cy="476.242" fill="#F8F8F8" rx="51.7904" ry="13.242" style="stroke: #383838; stroke-width: 0.5;"/><text fill="#000000" font-family="Tahoma, sans-serif" font-size="12" lengthAdjust="spacingAndGlyphs" textLength="69" x="395.7904" y="479.9842">user.service</text><ellipse cx="624.6526" cy="588.9305" fill="#F8F8F8" rx="72.6526" ry="16.9305" style="stroke: #383838; stroke-width: 0.5;"/><text fill="#000000" font-family="Tahoma, sans-serif" font-size="12" lengthAdjust="spacingAndGlyphs" textLength="119" x="565.1526" y="592.6727">apartment.repository</text><ellipse cx="624.7159" cy="542.2432" fill="#F8F8F8" rx="59.2159" ry="14.2432" style="stroke: #383838; stroke-width: 0.5;"/><text fill="#000000" font-family="Tahoma, sans-serif" font-size="12" lengthAdjust="spacingAndGlyphs" textLength="86" x="581.7159" y="545.9854">user.repository</text><!--MD5=[2026c0bd7f4956f7b059870106b72831]
entity _entities_Apartment--><rect fill="#F8F8F8" height="34.4844" rx="3" ry="3" style="stroke: #000000; stroke-width: 0.5;" width="125" x="753.5" y="464"/><text fill="#000000" font-family="Tahoma, sans-serif" font-size="12" lengthAdjust="spacingAndGlyphs" textLength="105" x="763.5" y="486.0059">entities/Apartment</text><!--MD5=[147a91f99759f6cb8c425b4553f458eb]
entity _entities_User--><rect fill="#F8F8F8" height="34.4844" rx="3" ry="3" style="stroke: #000000; stroke-width: 0.5;" width="93" x="911" y="532"/><text fill="#000000" font-family="Tahoma, sans-serif" font-size="12" lengthAdjust="spacingAndGlyphs" textLength="73" x="921" y="554.0059">entities/User</text><!--MD5=[6970322dd021e8bde36f20252f8dcdf3]
entity _EntityWithIdAndTimestamps--><rect fill="#F8F8F8" height="34.4844" rx="3" ry="3" style="stroke: #000000; stroke-width: 0.5;" width="180" x="1036" y="498"/><text fill="#000000" font-family="Tahoma, sans-serif" font-size="12" lengthAdjust="spacingAndGlyphs" textLength="160" x="1046" y="520.0059">EntityWithIdAndTimestamps</text><!--MD5=[df7b7da2504707e2c9c337bf9ecd3425]
entity _EventLog--><rect fill="#F8F8F8" height="34.4844" rx="3" ry="3" style="stroke: #000000; stroke-width: 0.5;" width="72" x="921.5" y="464"/><text fill="#000000" font-family="Tahoma, sans-serif" font-size="12" lengthAdjust="spacingAndGlyphs" textLength="52" x="931.5" y="486.0059">EventLog</text><!--MD5=[5db2b1664ab5bc39417f0b9baa7e0df5]
entity _ConflictError--><rect fill="#F8F8F8" height="34.4844" rx="3" ry="3" style="stroke: #000000; stroke-width: 0.5;" width="91" x="770.5" y="699"/><text fill="#000000" font-family="Tahoma, sans-serif" font-size="12" lengthAdjust="spacingAndGlyphs" textLength="71" x="780.5" y="721.0059">ConflictError</text><!--MD5=[7be7864177804c41bc362405513353e2]
entity _ForbiddenError--><rect fill="#F8F8F8" height="34.4844" rx="3" ry="3" style="stroke: #000000; stroke-width: 0.5;" width="103" x="764.5" y="749"/><text fill="#000000" font-family="Tahoma, sans-serif" font-size="12" lengthAdjust="spacingAndGlyphs" textLength="83" x="774.5" y="771.0059">ForbiddenError</text><!--MD5=[92f79613f4aed56de1922575dc6caf90]
entity _NotFoundError--><rect fill="#F8F8F8" height="34.4844" rx="3" ry="3" style="stroke: #000000; stroke-width: 0.5;" width="102" x="765" y="649"/><text fill="#000000" font-family="Tahoma, sans-serif" font-size="12" lengthAdjust="spacingAndGlyphs" textLength="82" x="775" y="671.0059">NotFoundError</text><!--MD5=[6cc8762ce868c43b85eddf0415429863]
link _apartment_controller to apartment.service--><path d="M250.375,385.103 C264.886,412.913 297.383,467.763 341,497 C349.945,502.996 360.341,507.498 370.797,510.879 " fill="none" id="_apartment_controller-&gt;apartment.service" style="stroke: #000000; stroke-width: 0.5;"/><polygon fill="#000000" points="375.601,512.354,368.1726,505.8872,370.8215,510.8856,365.8231,513.5345,375.601,512.354" style="stroke: #000000; stroke-width: 0.5;"/><!--MD5=[0858b8ca08335c7aefde438a5d5b3e8c]
link _apartment_controller to auth.jwt--><path d="M309.089,351.622 C379.532,333.662 484.861,304.416 520,282 C559.942,256.52 594.835,212.073 612.067,187.873 " fill="none" id="_apartment_controller-&gt;auth.jwt" style="stroke: #000000; stroke-width: 0.5;"/><polygon fill="#000000" points="615.077,183.599,606.6252,188.6553,612.1986,187.6874,613.1665,193.2608,615.077,183.599" style="stroke: #000000; stroke-width: 0.5;"/><!--MD5=[c20c81bcba0db35d3dd628bd55f33ab8]
link _apartment_controller to _models_Apartment--><path d="M309.133,368.703 C419.243,369.856 636.983,372.136 747.397,373.292 " fill="none" id="_apartment_controller-&gt;_models_Apartment" style="stroke: #000000; stroke-width: 0.5;"/><polygon fill="#000000" points="752.573,373.346,743.6158,369.2511,747.5733,373.2931,743.5312,377.2506,752.573,373.346" style="stroke: #000000; stroke-width: 0.5;"/><!--MD5=[73c167d7f6b01e3cd5d3d1c939817904]
link apartment.repository to _ConflictError--><path d="M640.705,605.88 C664.271,631.701 708.98,679.257 729,691 C740.129,697.528 753.08,702.451 765.502,706.124 " fill="none" id="apartment.repository-&gt;_ConflictError" style="stroke: #000000; stroke-width: 0.5;"/><polygon fill="#000000" points="770.415,707.521,762.8537,701.2101,765.606,706.1523,760.6638,708.9046,770.415,707.521" style="stroke: #000000; stroke-width: 0.5;"/><!--MD5=[9e470a0f4cc480046c2336c3151c48bb]
link apartment.repository to _entities_Apartment--><path d="M691.778,582.394 C702.835,578.509 713.22,572.677 721,564 C737.196,545.936 713.438,528.614 729,510 C734.356,503.593 741.181,498.596 748.636,494.7 " fill="none" id="apartment.repository-&gt;_entities_Apartment" style="stroke: #000000; stroke-width: 0.5;"/><polygon fill="#000000" points="753.352,492.413,743.5086,492.7407,748.853,494.5946,746.9992,499.9391,753.352,492.413" style="stroke: #000000; stroke-width: 0.5;"/><!--MD5=[e8795b8090cf0242c71807e88ceeb1cb]
link apartment.repository to _entities_User--><path d="M689.32,581.288 C752.416,573.663 847.703,562.148 905.797,555.127 " fill="none" id="apartment.repository-&gt;_entities_User" style="stroke: #000000; stroke-width: 0.5;"/><polygon fill="#000000" points="910.953,554.504,901.538,551.6131,905.9891,555.1041,902.4982,559.5553,910.953,554.504" style="stroke: #000000; stroke-width: 0.5;"/><!--MD5=[86a44cc1d310c16ba3be45a680fb52f3]
link apartment.repository to _EventLog--><path d="M686.516,580.074 C698.671,576.417 710.813,571.263 721,564 C726.219,560.279 723.785,555.728 729,552 C794.073,505.482 827.799,533.263 903,506 C907.771,504.27 912.697,502.275 917.54,500.181 " fill="none" id="apartment.repository-&gt;_EventLog" style="stroke: #000000; stroke-width: 0.5;"/><polygon fill="#000000" points="922.347,498.061,912.4982,498.0324,917.7721,500.0784,915.7261,505.3523,922.347,498.061" style="stroke: #000000; stroke-width: 0.5;"/><!--MD5=[97cf82831260f4f162dd76ce4bed58f3]
link apartment.repository to _ForbiddenError--><path d="M632.371,605.998 C645.979,637.494 679.396,704.989 729,741 C737.947,747.4955 748.56,752.3114 759.221,755.8796 " fill="none" id="apartment.repository-&gt;_ForbiddenError" style="stroke: #000000; stroke-width: 0.5;"/><polygon fill="#000000" points="764.118,757.4328,756.7483,750.8993,759.3519,755.9213,754.3299,758.525,764.118,757.4328" style="stroke: #000000; stroke-width: 0.5;"/><!--MD5=[8f91c3bb19418fbc6b7e609ed91061ae]
link apartment.repository to _models_Apartment--><path d="M692.319,582.86 C703.326,578.932 713.554,572.966 721,564 C736.941,544.804 718.085,474.439 729,452 C740.722,427.902 763.462,407.797 782.616,394.037 " fill="none" id="apartment.repository-&gt;_models_Apartment" style="stroke: #000000; stroke-width: 0.5;"/><polygon fill="#000000" points="786.894,391.025,777.2325,392.9371,782.8061,393.9041,781.8391,399.4777,786.894,391.025" style="stroke: #000000; stroke-width: 0.5;"/><!--MD5=[2952776b15c6dbe5a1b163b1aff2571a]
link apartment.service to apartment.repository--><path d="M459.718,535.041 C478.7,544.118 504.464,555.738 528,564 C540.42,568.36 553.984,572.354 566.887,575.81 " fill="none" id="apartment.service-&gt;apartment.repository" style="stroke: #000000; stroke-width: 0.5;"/><polygon fill="#000000" points="571.986,577.157,564.3067,570.9903,567.1519,575.8795,562.2627,578.7248,571.986,577.157" style="stroke: #000000; stroke-width: 0.5;"/><!--MD5=[cfc65d6c0cae18dcf3e5ca14ec95ff72]
link apartment.service to _models_Apartment--><path d="M476.866,509.913 C490.817,506.179 506.144,501.745 520,497 C612.42,465.352 717.24,419.062 773.697,393.236 " fill="none" id="apartment.service-&gt;_models_Apartment" style="stroke: #000000; stroke-width: 0.5;"/><polygon fill="#000000" points="778.342,391.107,768.4938,391.2207,773.7967,393.1903,771.8271,398.4932,778.342,391.107" style="stroke: #000000; stroke-width: 0.5;"/><!--MD5=[aaf6bb04ec7f0ad0e7dffbf36b8a8be6]
link _auth_controller to _Auth--><path d="M292.599,268.53 C410.317,269.762 699.309,272.789 788.408,273.722 " fill="none" id="_auth_controller-&gt;_Auth" style="stroke: #000000; stroke-width: 0.5;"/><polygon fill="#000000" points="793.491,273.775,784.5338,269.6801,788.4913,273.7221,784.4492,277.6796,793.491,273.775" style="stroke: #000000; stroke-width: 0.5;"/><!--MD5=[d54f8a898f2b2f93b3b33fade19514d3]
link _auth_controller to auth.service--><path d="M292.966,275.355 C306.839,279.06 321.26,284.63 333,293 C378.208,325.231 408.895,385.705 422.128,415.893 " fill="none" id="_auth_controller-&gt;auth.service" style="stroke: #000000; stroke-width: 0.5;"/><polygon fill="#000000" points="424.249,420.817,424.3644,410.9688,422.272,416.2245,417.0164,414.132,424.249,420.817" style="stroke: #000000; stroke-width: 0.5;"/><!--MD5=[562c46d0512001f86390504dff043105]
link _auth_controller to logger--><path d="M262.11,250.921 C306.499,214.483 417.7,129.999 528,100 C620.285,74.9 734.937,100.166 786.975,114.533 " fill="none" id="_auth_controller-&gt;logger" style="stroke: #000000; stroke-width: 0.5;"/><polygon fill="#000000" points="791.812,115.887,784.2228,109.6097,786.997,114.5396,782.067,117.3138,791.812,115.887" style="stroke: #000000; stroke-width: 0.5;"/><!--MD5=[ecf665690994ec38d147c4b7fde8bd06]
link _auth_controller to user.service--><path d="M292.674,270.712 C307.902,274.148 323.159,280.731 333,293 C355.552,321.117 317.957,427.284 341,455 C349.199,464.862 361.104,470.58 373.537,473.791 " fill="none" id="_auth_controller-&gt;user.service" style="stroke: #000000; stroke-width: 0.5;"/><polygon fill="#000000" points="378.509,474.941,370.6423,469.0152,373.6377,473.8139,368.839,476.8092,378.509,474.941" style="stroke: #000000; stroke-width: 0.5;"/><!--MD5=[572c719d8e046331fbd67b721e6b8c15]
link auth.jwt to _Auth--><path d="M649.998,180.125 C669.628,187.766 697.651,199.417 721,212 C744.798,224.825 770.313,241.885 788.747,254.863 " fill="none" id="auth.jwt-&gt;_Auth" style="stroke: #000000; stroke-width: 0.5;"/><polygon fill="#000000" points="793.275,258.069,788.2415,249.6036,789.1944,255.1796,783.6184,256.1325,793.275,258.069" style="stroke: #000000; stroke-width: 0.5;"/><!--MD5=[d2d7d09a7514e225210c9e2c095de26d]
link auth.jwt to logger--><path d="M655.723,164.865 C674.566,160.913 699.278,155.502 721,150 C743.267,144.36 768.25,137.141 786.86,131.587 " fill="none" id="auth.jwt-&gt;logger" style="stroke: #000000; stroke-width: 0.5; stroke-dasharray: 7.0,7.0;"/><polygon fill="#000000" points="791.933,130.067,782.1638,128.8167,787.1431,131.5012,784.4586,136.4806,791.933,130.067" style="stroke: #000000; stroke-width: 0.5;"/><!--MD5=[224bc9a7bec10d656533ed895f4a5b22]
link auth.jwt to _models_User--><path d="M632.205,183.686 C646.467,209.429 682.359,267.982 729,299 C739.309,305.856 751.525,310.865 763.464,314.514 " fill="none" id="auth.jwt-&gt;_models_User" style="stroke: #000000; stroke-width: 0.5;"/><polygon fill="#000000" points="768.558,315.996,761.0345,309.6401,763.7572,314.5986,758.7987,317.3214,768.558,315.996" style="stroke: #000000; stroke-width: 0.5;"/><!--MD5=[32ca86990d707716a406822f99e0a40d]
link auth.service to _Auth--><path d="M449.027,421.612 C467.909,408.628 499.139,388.181 528,374 C613.577,331.952 638.491,328.995 729,299 C748.662,292.484 771.149,285.979 788.197,281.239 " fill="none" id="auth.service-&gt;_Auth" style="stroke: #000000; stroke-width: 0.5;"/><polygon fill="#000000" points="793.304,279.827,783.5633,278.3711,788.485,281.16,785.6961,286.0816,793.304,279.827" style="stroke: #000000; stroke-width: 0.5;"/><!--MD5=[9e9f16af2e1b4bb8d9144e8ef5210e61]
link auth.service to auth.jwt--><path d="M442.53,421.258 C460.926,399.432 498.014,352.894 520,308 C525.318,297.142 522.156,292.584 528,282 C549.169,243.66 585.096,206.654 606.331,186.549 " fill="none" id="auth.service-&gt;auth.jwt" style="stroke: #000000; stroke-width: 0.5;"/><polygon fill="#000000" points="610.118,182.995,600.8181,186.2372,606.4721,186.4166,606.2927,192.0706,610.118,182.995" style="stroke: #000000; stroke-width: 0.5;"/><!--MD5=[1383f3e222429f0733e643250a9c4b0e]
link auth.service to user.repository--><path d="M476.127,440.373 C490.626,443.533 506.457,448.189 520,455 C555.192,472.699 588.72,504.578 607.644,524.441 " fill="none" id="auth.service-&gt;user.repository" style="stroke: #000000; stroke-width: 0.5;"/><polygon fill="#000000" points="611.23,528.246,607.9671,518.9533,607.8003,524.6077,602.1459,524.4409,611.23,528.246" style="stroke: #000000; stroke-width: 0.5;"/><!--MD5=[b5c23d07f236d1178bc1899d3effdd89]
link _entities_Apartment to _entities_User--><path d="M852.202,498.159 C871.862,507.743 896.421,519.714 916.769,529.633 " fill="none" id="_entities_Apartment-&gt;_entities_User" style="stroke: #000000; stroke-width: 0.5; stroke-dasharray: 7.0,7.0;"/><polygon fill="#000000" points="921.31,531.846,914.9736,524.3061,916.8158,529.6546,911.4673,531.4969,921.31,531.846" style="stroke: #000000; stroke-width: 0.5;"/><!--MD5=[24755b029eafb07319e502a30c0f7013]
link _entities_Apartment to _EntityWithIdAndTimestamps--><path d="M873.245,498.091 C885.58,501.239 898.646,504.12 911,506 C949.965,511.928 993.349,514.49 1030.81,515.457 " fill="none" id="_entities_Apartment-&gt;_EntityWithIdAndTimestamps" style="stroke: #000000; stroke-width: 0.5; stroke-dasharray: 7.0,7.0;"/><polygon fill="#000000" points="1035.82,515.578,1026.9258,511.3479,1030.8217,515.4494,1026.7201,519.3453,1035.82,515.578" style="stroke: #000000; stroke-width: 0.5;"/><!--MD5=[d80f597ef9c43ab3fc662f9b7fe01968]
link _entities_User to _EntityWithIdAndTimestamps--><path d="M1004.438,539.619 C1014.45,537.574 1025.38,535.343 1036.43,533.086 " fill="none" id="_entities_User-&gt;_EntityWithIdAndTimestamps" style="stroke: #000000; stroke-width: 0.5; stroke-dasharray: 7.0,7.0;"/><polygon fill="#000000" points="1041.51,532.048,1031.8918,529.929,1036.611,533.0481,1033.4919,537.7673,1041.51,532.048" style="stroke: #000000; stroke-width: 0.5;"/><!--MD5=[2d6b21759ce17737018b6286045c33fa]
link _EventLog to _EntityWithIdAndTimestamps--><path d="M993.81,488.211 C1006.42,490.785 1021.25,493.814 1036.32,496.891 " fill="none" id="_EventLog-&gt;_EntityWithIdAndTimestamps" style="stroke: #000000; stroke-width: 0.5; stroke-dasharray: 7.0,7.0;"/><polygon fill="#000000" points="1041.44,497.936,1033.4219,492.2167,1036.541,496.9359,1031.8218,500.055,1041.44,497.936" style="stroke: #000000; stroke-width: 0.5;"/><!--MD5=[afa5ff013eb80bbadf484fee2552db1b]
link routes to _apartment_controller--><path d="M101.6958,295.51 C115.224,298.12 130.752,303.392 141,314 C150.289,323.616 139.541,333.551 149,343 C154.462,348.457 160.997,352.752 168.025,356.127 " fill="none" id="routes-&gt;_apartment_controller" style="stroke: #000000; stroke-width: 0.5;"/><polygon fill="#000000" points="172.962,358.321,166.3608,351.0118,168.3925,356.2912,163.1131,358.323,172.962,358.321" style="stroke: #000000; stroke-width: 0.5;"/><!--MD5=[a6574b0883c99c33d1c1e34f472f0782]
link routes to _auth_controller--><path d="M100.6708,288.983 C123.103,285.605 155.93,280.661 184.086,276.421 " fill="none" id="routes-&gt;_auth_controller" style="stroke: #000000; stroke-width: 0.5;"/><polygon fill="#000000" points="189.285,275.638,179.7898,273.0223,184.3407,276.3823,180.9807,280.9332,189.285,275.638" style="stroke: #000000; stroke-width: 0.5;"/><!--MD5=[562440ee5b2be334a30381992739c0d2]
link routes to auth.jwt--><path d="M76.0976,279.725 C81.6629,249.545 99.8904,176.076 149,146 C289.614,59.884 359.522,108.116 520,146 C523.869,146.913 524.252,148.674 528,150 C547.017,156.728 568.956,161.735 587.007,165.169 " fill="none" id="routes-&gt;auth.jwt" style="stroke: #000000; stroke-width: 0.5;"/><polygon fill="#000000" points="591.989,166.095,583.8722,160.5167,587.0733,165.1807,582.4093,168.3818,591.989,166.095" style="stroke: #000000; stroke-width: 0.5;"/><!--MD5=[c3d2556c4d629c2bc3d7bb124fdead71]
link routes to _user_controller--><path d="M100.6708,297.017 C123.103,300.395 155.93,305.339 184.086,309.579 " fill="none" id="routes-&gt;_user_controller" style="stroke: #000000; stroke-width: 0.5;"/><polygon fill="#000000" points="189.285,310.362,180.9807,305.0668,184.3407,309.6177,179.7898,312.9777,189.285,310.362" style="stroke: #000000; stroke-width: 0.5;"/><!--MD5=[58b1ddf9e3fd87978458e42747798e8d]
link <b>server</b> to _Auth--><path d="M104.8424,332.704 C117.94,330.087 132.19,324.747 141,314 C151.626,301.037 136.535,250.206 149,239 C244.672,152.99 676.093,242.677 788.273,267.841 " fill="none" id="&lt;b&gt;server&lt;/b&gt;-&gt;_Auth" style="stroke: #000000; stroke-width: 1.0;"/><polygon fill="#000000" points="793.371,268.989,785.4696,263.1096,788.4931,267.8906,783.7121,270.9141,793.371,268.989" style="stroke: #000000; stroke-width: 1.0;"/><!--MD5=[322b45c47471d12b6d49db8397c5ba50]
link <b>server</b> to auth.jwt--><path d="M104.7302,332.958 C117.971,330.405 132.368,325.046 141,314 C159.369,290.495 127.482,200.66 149,180 C210.819,120.645 485.497,151.812 586.27,165.577 " fill="none" id="&lt;b&gt;server&lt;/b&gt;-&gt;auth.jwt" style="stroke: #000000; stroke-width: 1.0;"/><polygon fill="#000000" points="591.51,166.298,583.1407,161.1063,586.5569,165.6151,582.048,169.0313,591.51,166.298" style="stroke: #000000; stroke-width: 1.0;"/><!--MD5=[77536e868cf4e454083c3b0d17a20bfc]
link <b>server</b> to _ConflictError--><path d="M75.2836,348.12 C80.8039,401.787 104.2972,603.747 149,646 C237.32,729.4804 625.552,723.2966 764.949,718.2225 " fill="none" id="&lt;b&gt;server&lt;/b&gt;-&gt;_ConflictError" style="stroke: #000000; stroke-width: 1.0;"/><polygon fill="#000000" points="770.202,718.0275,761.0596,714.3645,765.2055,718.2132,761.3568,722.359,770.202,718.0275" style="stroke: #000000; stroke-width: 1.0;"/><!--MD5=[910e6d06f5b073179b312580a505be79]
link <b>server</b> to _ForbiddenError--><path d="M74.6167,348.308 C77.72,408.983 93.7305,658.576 149,708 C322.44,863.0959 632.653,810.8509 759.069,780.8888 " fill="none" id="&lt;b&gt;server&lt;/b&gt;-&gt;_ForbiddenError" style="stroke: #000000; stroke-width: 1.0;"/><polygon fill="#000000" points="764.22,779.6563,754.5365,777.8592,759.3571,780.8192,756.3971,785.6398,764.22,779.6563" style="stroke: #000000; stroke-width: 1.0;"/><!--MD5=[5dcf67e50701372d1e4b38ad174e1bd8]
link <b>server</b> to logger--><path d="M104.8284,333.034 C118.09,330.497 132.476,325.129 141,314 C154.456,296.432 133.722,131.008 149,115 C324.811,-69.214 471.721,30.001 721,82 C747.029,87.43 774.68,100.478 793.201,110.407 " fill="none" id="&lt;b&gt;server&lt;/b&gt;-&gt;logger" style="stroke: #000000; stroke-width: 1.0;"/><polygon fill="#000000" points="797.707,112.858,791.714,105.0423,793.3153,110.4678,787.8898,112.0691,797.707,112.858" style="stroke: #000000; stroke-width: 1.0;"/><!--MD5=[918f1540acef5cbfe8e12ed9833e65d6]
link <b>server</b> to _models_User--><path d="M83.7286,347.29 C115.52,386.319 221.212,507.323 341,549 C416.138,575.142 457.469,598.183 520,549 C531.862,539.67 518.513,527.737 528,516 C587.857,441.95 666.085,500.786 721,423 C740.079,395.975 707.745,374.348 729,349 C737.809,338.495 750.751,332.261 763.936,328.601 " fill="none" id="&lt;b&gt;server&lt;/b&gt;-&gt;_models_User" style="stroke: #000000; stroke-width: 1.0;"/><polygon fill="#000000" points="768.797,327.366,759.0896,325.7025,763.9506,328.5958,761.0573,333.4568,768.797,327.366" style="stroke: #000000; stroke-width: 1.0;"/><!--MD5=[1094dcf80147bc5f4a5a62d27035b42e]
link <b>server</b> to _NotFoundError--><path d="M74.3053,348.045 C75.94,385.7 86.1365,495.305 149,549 C327.952,701.851 635.044,687.057 759.847,673.448 " fill="none" id="&lt;b&gt;server&lt;/b&gt;-&gt;_NotFoundError" style="stroke: #000000; stroke-width: 1.0;"/><polygon fill="#000000" points="764.931,672.884,755.5448,669.9009,759.9615,673.4354,756.427,677.8521,764.931,672.884" style="stroke: #000000; stroke-width: 1.0;"/><!--MD5=[b5550d8c7cbc955c7a41f0bf9d55f796]
link <b>server</b> to routes--><path d="M73,321.875 C73,318.421 73,314.966 73,311.512 " fill="none" id="&lt;b&gt;server&lt;/b&gt;-&gt;routes" style="stroke: #000000; stroke-width: 1.0; stroke-dasharray: 7.0,7.0;"/><polygon fill="#000000" points="73,306.084,69,315.084,73,311.084,77,315.084,73,306.084" style="stroke: #000000; stroke-width: 1.0;"/><!--MD5=[b7da318761176cd6308606b45640b193]
link <b>server</b> to _TypeORMLogger--><path d="M104.7866,333.002 C118.039,330.458 132.43,325.094 141,314 C152.221,299.475 136.078,162.036 149,149 C205.288,92.216 448.447,107.673 563.163,118.52 " fill="none" id="&lt;b&gt;server&lt;/b&gt;-&gt;_TypeORMLogger" style="stroke: #000000; stroke-width: 1.0;"/><polygon fill="#000000" points="568.193,119.001,559.6144,114.1628,563.2157,118.5253,558.8532,122.1265,568.193,119.001" style="stroke: #000000; stroke-width: 1.0;"/><!--MD5=[e740ba654b198251af9249c33f84db62]
link _TypeORMLogger to logger--><path d="M680.566,124.419 C713.589,124.07 754.461,123.639 782.414,123.344 " fill="none" id="_TypeORMLogger-&gt;logger" style="stroke: #000000; stroke-width: 0.5; stroke-dasharray: 7.0,7.0;"/><polygon fill="#000000" points="787.478,123.29,778.4362,119.3854,782.4783,123.3429,778.5208,127.3849,787.478,123.29" style="stroke: #000000; stroke-width: 0.5;"/><!--MD5=[f9d07b912afd61cfb43e6511e1d68859]
link _user_controller to auth.jwt--><path d="M292.813,310.427 C306.683,306.718 321.142,301.201 333,293 C337.972,289.562 336.218,285.698 341,282 C418.087,222.395 531.21,190.983 588.086,178.135 " fill="none" id="_user_controller-&gt;auth.jwt" style="stroke: #000000; stroke-width: 0.5;"/><polygon fill="#000000" points="593.079,177.022,583.4247,175.0741,588.1986,178.1089,585.1638,182.8828,593.079,177.022" style="stroke: #000000; stroke-width: 0.5;"/><!--MD5=[0fb2ab3080e68b16e7150866435982e3]
link _user_controller to _models_User--><path d="M292.599,318.53 C400.96,319.665 654.447,322.319 763.557,323.461 " fill="none" id="_user_controller-&gt;_models_User" style="stroke: #000000; stroke-width: 0.5;"/><polygon fill="#000000" points="768.643,323.515,759.6846,319.4226,763.6433,323.4636,759.6023,327.4222,768.643,323.515" style="stroke: #000000; stroke-width: 0.5;"/><!--MD5=[097b81be3c6bf7c7e3a5dba365f1a503]
link _user_controller to user.service--><path d="M292.517,320.839 C307.734,324.284 323.025,330.839 333,343 C348.825,362.292 324.838,435.989 341,455 C349.307,464.772 361.251,470.457 373.688,473.665 " fill="none" id="_user_controller-&gt;user.service" style="stroke: #000000; stroke-width: 0.5;"/><polygon fill="#000000" points="378.66,474.815,370.7933,468.8892,373.7887,473.6879,368.99,476.6832,378.66,474.815" style="stroke: #000000; stroke-width: 0.5;"/><!--MD5=[91323e5e891003a8aa47e6c2bae4dadc]
link user.repository to _entities_User--><path d="M683.535,543.227 C746.347,544.556 845.543,546.653 905.476,547.921 " fill="none" id="user.repository-&gt;_entities_User" style="stroke: #000000; stroke-width: 0.5;"/><polygon fill="#000000" points="910.793,548.033,901.8796,543.8436,905.7941,547.9273,901.7104,551.8418,910.793,548.033" style="stroke: #000000; stroke-width: 0.5;"/><!--MD5=[8b3a2cc741c76eb341206bb75debbab7]
link user.repository to _EventLog--><path d="M656.348,529.988 C677.421,520.289 704.429,504.676 721,483 C728.601,473.057 718.971,463.488 729,456 C784.055,414.892 868.534,440.725 917.567,461.822 " fill="none" id="user.repository-&gt;_EventLog" style="stroke: #000000; stroke-width: 0.5;"/><polygon fill="#000000" points="922.2,463.847,915.5558,456.5768,917.6187,461.8442,912.3513,463.907,922.2,463.847" style="stroke: #000000; stroke-width: 0.5;"/><!--MD5=[268a1c9652f8bd851d1a6e5346c68370]
link user.repository to _models_User--><path d="M646.143,528.778 C668.932,512.898 704.565,483.979 721,449 C730.48,428.823 714.915,366.28 729,349 C737.662,338.373 750.559,332.101 763.746,328.444 " fill="none" id="user.repository-&gt;_models_User" style="stroke: #000000; stroke-width: 0.5;"/><polygon fill="#000000" points="768.61,327.212,758.9034,325.5438,763.763,328.4395,760.8674,333.299,768.61,327.212" style="stroke: #000000; stroke-width: 0.5;"/><!--MD5=[377b8237ad725c1771be360cf8bd3c66]
link user.repository to _NotFoundError--><path d="M680.371,546.675 C694.624,549.927 709.255,555.273 721,564 C726.752,568.274 724.683,572.28 729,578 C747.783,602.887 773.105,628.002 791.403,644.995 " fill="none" id="user.repository-&gt;_NotFoundError" style="stroke: #000000; stroke-width: 0.5;"/><polygon fill="#000000" points="795.428,648.708,791.5239,639.666,791.7525,645.3182,786.1003,645.5468,795.428,648.708" style="stroke: #000000; stroke-width: 0.5;"/><!--MD5=[b64e42995474d859eb56ab10f112be97]
link user.service to _models_User--><path d="M481.663,473.661 C495.641,470.673 509.778,465.1 520,455 C530.428,444.696 518.207,433.909 528,423 C591.59,352.159 638.573,378.749 729,349 C740.244,345.301 752.405,341.591 763.944,338.204 " fill="none" id="user.service-&gt;_models_User" style="stroke: #000000; stroke-width: 0.5;"/><polygon fill="#000000" points="768.846,336.774,759.0856,335.4567,764.0464,338.1753,761.3277,343.1361,768.846,336.774" style="stroke: #000000; stroke-width: 0.5;"/><!--MD5=[063e2d6f822dd6550b1063ec9215e714]
link user.service to user.repository--><path d="M470.654,484.325 C486.176,487.989 504.085,492.676 520,498 C544.856,506.315 572.103,518.008 592.4,527.25 " fill="none" id="user.service-&gt;user.repository" style="stroke: #000000; stroke-width: 0.5;"/><polygon fill="#000000" points="597.142,529.423,590.6262,522.0376,592.5965,527.3402,587.2938,529.3104,597.142,529.423" style="stroke: #000000; stroke-width: 0.5;"/><script type="text/plantuml"><![CDATA[MD5=[7578d10ff4373cc9a3a242c3bbc9c2cc]
@startuml

scale max 1920 width
left to right direction

skinparam nodesep 16
skinparam ranksep 32
skinparam monochrome true
skinparam shadowing false
skinparam defaultFontName Tahoma
skinparam defaultFontSize 12
skinparam roundCorner 6
skinparam dpi 150
skinparam arrowColor black
skinparam arrowThickness 0.5
skinparam packageTitleAlignment left

skinparam usecase {
  borderThickness 0.5
}

skinparam rectangle {
  borderThickness 0.5
}

skinparam component {
  borderThickness 1
}


package "Server & Router" {
  (routes)
  (<b>server</b>)
}

package "Controllers" {
  rectangle "apartment.controller" as _apartment_controller
  rectangle "auth.controller" as _auth_controller
  rectangle "user.controller" as _user_controller
}

package "Middlewares" {
  (auth.jwt)
  (logger)
  rectangle "TypeORMLogger" as _TypeORMLogger
}

package "Models" {
  rectangle "Auth" as _Auth
  rectangle "models/Apartment" as _models_Apartment
  rectangle "models/User" as _models_User
}

package "Services" {
  (apartment.service)
  (auth.service)
  (user.service)
}

package "Repositories" {
  (apartment.repository)
  (user.repository)
}

package "Entities" {
  rectangle "entities/Apartment" as _entities_Apartment
  rectangle "entities/User" as _entities_User
  rectangle "EntityWithIdAndTimestamps" as _EntityWithIdAndTimestamps
  rectangle "EventLog" as _EventLog
}

package "Errors" {
  rectangle "ConflictError" as _ConflictError
  rectangle "ForbiddenError" as _ForbiddenError
  rectangle "NotFoundError" as _NotFoundError
}

_apartment_controller --> (apartment.service)
_apartment_controller --> (auth.jwt)
_apartment_controller --> _models_Apartment
(apartment.repository) --> _ConflictError
(apartment.repository) --> _entities_Apartment
(apartment.repository) --> _entities_User
(apartment.repository) --> _EventLog
(apartment.repository) --> _ForbiddenError
(apartment.repository) --> _models_Apartment
(apartment.service) --> (apartment.repository)
(apartment.service) --> _models_Apartment
_auth_controller --> _Auth
_auth_controller --> (auth.service)
_auth_controller --> (logger)
_auth_controller --> (user.service)
(auth.jwt) --> _Auth
(auth.jwt) ..> (logger)
(auth.jwt) --> _models_User
(auth.service) --> _Auth
(auth.service) --> (auth.jwt)
(auth.service) --> (user.repository)
_entities_Apartment ..> _entities_User
_entities_Apartment ..> _EntityWithIdAndTimestamps
_entities_User ..> _EntityWithIdAndTimestamps
_EventLog ..> _EntityWithIdAndTimestamps
(routes) --> _apartment_controller
(routes) --> _auth_controller
(routes) --> (auth.jwt)
(routes) --> _user_controller
(<b>server</b>) -[thickness=1]> _Auth
(<b>server</b>) -[thickness=1]> (auth.jwt)
(<b>server</b>) -[thickness=1]> _ConflictError
(<b>server</b>) -[thickness=1]> _ForbiddenError
(<b>server</b>) -[thickness=1]> (logger)
(<b>server</b>) -[thickness=1]> _models_User
(<b>server</b>) -[thickness=1]> _NotFoundError
(<b>server</b>) .[thickness=1]> (routes)
(<b>server</b>) -[thickness=1]> _TypeORMLogger
_TypeORMLogger ..> (logger)
_user_controller --> (auth.jwt)
_user_controller --> _models_User
_user_controller --> (user.service)
(user.repository) --> _entities_User
(user.repository) --> _EventLog
(user.repository) --> _models_User
(user.repository) --> _NotFoundError
(user.service) --> _models_User
(user.service) --> (user.repository)

@enduml


' View and edit on https://arkit.pro
]]></script></g></svg>