<?xml version="1.0" encoding="UTF-8" standalone="no"?><svg xmlns="http://www.w3.org/2000/svg" xmlns:xlink="http://www.w3.org/1999/xlink" contentScriptType="application/ecmascript" contentStyleType="text/css" height="672px" preserveAspectRatio="none" style="width:1266px;height:672px;" version="1.1" viewBox="0 0 1266 672" width="1266px" zoomAndPan="magnify"><defs/><g><!--MD5=[81da1a12a6ffceb0b7ff692a5ac8efc2]
cluster Server & Router--><path d="M25,135 L128,135 A4.5,4.5 0 0 1 131,138 L138,155.4844 L153,155.4844 A3,3 0 0 1 156,158.4844 L156,297 A3,3 0 0 1 153,300 L25,300 A3,3 0 0 1 22,297 L22,138 A3,3 0 0 1 25,135 " fill="#FFFFFF" style="stroke: #000000; stroke-width: 1.5;"/><line style="stroke: #000000; stroke-width: 1.5;" x1="22" x2="138" y1="155.4844" y2="155.4844"/><text fill="#000000" font-family="Tahoma, sans-serif" font-size="12" font-weight="bold" lengthAdjust="spacingAndGlyphs" textLength="103" x="26" y="149.0059">Server &amp; Router</text><!--MD5=[ed1d20ea533a2a0e7df5ba3c35e56ced]
cluster Controllers--><path d="M183,204 L257,204 A4.5,4.5 0 0 1 260,207 L267,224.4844 L345,224.4844 A3,3 0 0 1 348,227.4844 L348,382 A3,3 0 0 1 345,385 L183,385 A3,3 0 0 1 180,382 L180,207 A3,3 0 0 1 183,204 " fill="#FFFFFF" style="stroke: #000000; stroke-width: 1.5;"/><line style="stroke: #000000; stroke-width: 1.5;" x1="180" x2="267" y1="224.4844" y2="224.4844"/><text fill="#000000" font-family="Tahoma, sans-serif" font-size="12" font-weight="bold" lengthAdjust="spacingAndGlyphs" textLength="74" x="184" y="218.0059">Controllers</text><!--MD5=[01444e0f60f2f1f3466acc3cffdc895e]
cluster Middlewares--><path d="M578.5,46 L659.5,46 A4.5,4.5 0 0 1 662.5,49 L669.5,66.4844 L880.5,66.4844 A3,3 0 0 1 883.5,69.4844 L883.5,167 A3,3 0 0 1 880.5,170 L578.5,170 A3,3 0 0 1 575.5,167 L575.5,49 A3,3 0 0 1 578.5,46 " fill="#FFFFFF" style="stroke: #000000; stroke-width: 1.5;"/><line style="stroke: #000000; stroke-width: 1.5;" x1="575.5" x2="669.5" y1="66.4844" y2="66.4844"/><text fill="#000000" font-family="Tahoma, sans-serif" font-size="12" font-weight="bold" lengthAdjust="spacingAndGlyphs" textLength="81" x="579.5" y="60.0059">Middlewares</text><!--MD5=[027ebfd53c01aea08f474edbf35d0797]
cluster Models--><path d="M763,214 L810,214 A4.5,4.5 0 0 1 813,217 L820,234.4844 L915,234.4844 A3,3 0 0 1 918,237.4844 L918,392 A3,3 0 0 1 915,395 L763,395 A3,3 0 0 1 760,392 L760,217 A3,3 0 0 1 763,214 " fill="#FFFFFF" style="stroke: #000000; stroke-width: 1.5;"/><line style="stroke: #000000; stroke-width: 1.5;" x1="760" x2="820" y1="234.4844" y2="234.4844"/><text fill="#000000" font-family="Tahoma, sans-serif" font-size="12" font-weight="bold" lengthAdjust="spacingAndGlyphs" textLength="47" x="764" y="228.0059">Models</text><!--MD5=[cdfd548b3455e70392372b1f27091970]
cluster Services--><path d="M375,359 L432,359 A4.5,4.5 0 0 1 435,362 L442,379.4844 L532,379.4844 A3,3 0 0 1 535,382.4844 L535,519 A3,3 0 0 1 532,522 L375,522 A3,3 0 0 1 372,519 L372,362 A3,3 0 0 1 375,359 " fill="#FFFFFF" style="stroke: #000000; stroke-width: 1.5;"/><line style="stroke: #000000; stroke-width: 1.5;" x1="372" x2="442" y1="379.4844" y2="379.4844"/><text fill="#000000" font-family="Tahoma, sans-serif" font-size="12" font-weight="bold" lengthAdjust="spacingAndGlyphs" textLength="57" x="376" y="373.0059">Services</text><!--MD5=[600c2d25b6889bd4e9f6b335204b22ae]
cluster Repositories--><path d="M562,452 L646,452 A4.5,4.5 0 0 1 649,455 L656,472.4844 L733,472.4844 A3,3 0 0 1 736,475.4844 L736,575 A3,3 0 0 1 733,578 L562,578 A3,3 0 0 1 559,575 L559,455 A3,3 0 0 1 562,452 " fill="#FFFFFF" style="stroke: #000000; stroke-width: 1.5;"/><line style="stroke: #000000; stroke-width: 1.5;" x1="559" x2="656" y1="472.4844" y2="472.4844"/><text fill="#000000" font-family="Tahoma, sans-serif" font-size="12" font-weight="bold" lengthAdjust="spacingAndGlyphs" textLength="84" x="563" y="466.0059">Repositories</text><!--MD5=[114f4823940f317c08f5bedd633c9afd]
cluster Entities--><path d="M763.5,469 L813.5,469 A4.5,4.5 0 0 1 816.5,472 L823.5,489.4844 L1251,489.4844 A3,3 0 0 1 1254,492.4844 L1254,615 A3,3 0 0 1 1251,618 L763.5,618 A3,3 0 0 1 760.5,615 L760.5,472 A3,3 0 0 1 763.5,469 " fill="#FFFFFF" style="stroke: #000000; stroke-width: 1.5;"/><line style="stroke: #000000; stroke-width: 1.5;" x1="760.5" x2="823.5" y1="489.4844" y2="489.4844"/><text fill="#000000" font-family="Tahoma, sans-serif" font-size="12" font-weight="bold" lengthAdjust="spacingAndGlyphs" textLength="50" x="764.5" y="483.0059">Entities</text><!--MD5=[92f79613f4aed56de1922575dc6caf90]
entity _NotFoundError--><rect fill="#F8F8F8" height="34.4844" rx="3" ry="3" style="stroke: #000000; stroke-width: 0.5;" width="102" x="38" y="250"/><text fill="#000000" font-family="Tahoma, sans-serif" font-size="12" lengthAdjust="spacingAndGlyphs" textLength="82" x="48" y="272.0059">NotFoundError</text><ellipse cx="89.163" cy="222.242" fill="#F8F8F8" rx="29.163" ry="13.242" style="stroke: #383838; stroke-width: 0.5;"/><text fill="#000000" font-family="Tahoma, sans-serif" font-size="12" lengthAdjust="spacingAndGlyphs" textLength="37" x="70.663" y="225.9842">routes</text><ellipse cx="88.9914" cy="181.242" fill="#F8F8F8" rx="31.9914" ry="13.242" style="stroke: #383838; stroke-width: 0.5;"/><text fill="#000000" font-family="Tahoma, sans-serif" font-size="12" font-weight="bold" lengthAdjust="spacingAndGlyphs" textLength="41" x="68.4914" y="184.9842">server</text><!--MD5=[9e96457d60a40d7b446d98a35d5539e5]
entity _apartment_controller--><rect fill="#F8F8F8" height="34.4844" rx="3" ry="3" style="stroke: #000000; stroke-width: 0.5;" width="136" x="196" y="335"/><text fill="#000000" font-family="Tahoma, sans-serif" font-size="12" lengthAdjust="spacingAndGlyphs" textLength="116" x="206" y="357.0059">apartment.controller</text><!--MD5=[d06a8b9102defe736655824e5da7ce2d]
entity _auth_controller--><rect fill="#F8F8F8" height="34.4844" rx="3" ry="3" style="stroke: #000000; stroke-width: 0.5;" width="103" x="212.5" y="237"/><text fill="#000000" font-family="Tahoma, sans-serif" font-size="12" lengthAdjust="spacingAndGlyphs" textLength="83" x="222.5" y="259.0059">auth.controller</text><!--MD5=[d86e588f3408319142292d1b5d5a3230]
entity _user_controller--><rect fill="#F8F8F8" height="34.4844" rx="3" ry="3" style="stroke: #000000; stroke-width: 0.5;" width="103" x="212.5" y="286"/><text fill="#000000" font-family="Tahoma, sans-serif" font-size="12" lengthAdjust="spacingAndGlyphs" textLength="83" x="222.5" y="308.0059">user.controller</text><ellipse cx="647.3198" cy="141.242" fill="#F8F8F8" rx="34.8198" ry="13.242" style="stroke: #383838; stroke-width: 0.5;"/><text fill="#000000" font-family="Tahoma, sans-serif" font-size="12" lengthAdjust="spacingAndGlyphs" textLength="45" x="624.8198" y="144.9842">auth.jwt</text><ellipse cx="838.9558" cy="94.242" fill="#F8F8F8" rx="28.4558" ry="13.242" style="stroke: #383838; stroke-width: 0.5;"/><text fill="#000000" font-family="Tahoma, sans-serif" font-size="12" lengthAdjust="spacingAndGlyphs" textLength="36" x="820.9558" y="97.9842">logger</text><!--MD5=[f24447cfbda88c07e91dd3d7c0c3db79]
entity _TypeORMLogger--><rect fill="#F8F8F8" height="34.4844" rx="3" ry="3" style="stroke: #000000; stroke-width: 0.5;" width="112" x="591.5" y="79"/><text fill="#000000" font-family="Tahoma, sans-serif" font-size="12" lengthAdjust="spacingAndGlyphs" textLength="92" x="601.5" y="101.0059">TypeORMLogger</text><!--MD5=[090835527c10669de3872c7ae72a3e7a]
entity _Auth--><rect fill="#F8F8F8" height="34.4844" rx="3" ry="3" style="stroke: #000000; stroke-width: 0.5;" width="45" x="816.5" y="247"/><text fill="#000000" font-family="Tahoma, sans-serif" font-size="12" lengthAdjust="spacingAndGlyphs" textLength="25" x="826.5" y="269.0059">Auth</text><!--MD5=[a59e0cdbfcc9060e410ebd05378c71bb]
entity _models_Apartment--><rect fill="#F8F8F8" height="34.4844" rx="3" ry="3" style="stroke: #000000; stroke-width: 0.5;" width="126" x="776" y="345"/><text fill="#000000" font-family="Tahoma, sans-serif" font-size="12" lengthAdjust="spacingAndGlyphs" textLength="106" x="786" y="367.0059">models/Apartment</text><!--MD5=[4c029acf0569c1dbcb6e2b5523401c80]
entity _models_User--><rect fill="#F8F8F8" height="34.4844" rx="3" ry="3" style="stroke: #000000; stroke-width: 0.5;" width="94" x="792" y="296"/><text fill="#000000" font-family="Tahoma, sans-serif" font-size="12" lengthAdjust="spacingAndGlyphs" textLength="74" x="802" y="318.0059">models/User</text><ellipse cx="453.5478" cy="490.0096" fill="#F8F8F8" rx="65.5478" ry="15.5096" style="stroke: #383838; stroke-width: 0.5;"/><text fill="#000000" font-family="Tahoma, sans-serif" font-size="12" lengthAdjust="spacingAndGlyphs" textLength="102" x="402.5478" y="493.7518">apartment.service</text><ellipse cx="453.2904" cy="405.242" fill="#F8F8F8" rx="51.7904" ry="13.242" style="stroke: #383838; stroke-width: 0.5;"/><text fill="#000000" font-family="Tahoma, sans-serif" font-size="12" lengthAdjust="spacingAndGlyphs" textLength="69" x="418.7904" y="408.9842">auth.service</text><ellipse cx="453.2904" cy="446.242" fill="#F8F8F8" rx="51.7904" ry="13.242" style="stroke: #383838; stroke-width: 0.5;"/><text fill="#000000" font-family="Tahoma, sans-serif" font-size="12" lengthAdjust="spacingAndGlyphs" textLength="69" x="418.7904" y="449.9842">user.service</text><ellipse cx="647.6526" cy="544.9305" fill="#F8F8F8" rx="72.6526" ry="16.9305" style="stroke: #383838; stroke-width: 0.5;"/><text fill="#000000" font-family="Tahoma, sans-serif" font-size="12" lengthAdjust="spacingAndGlyphs" textLength="119" x="588.1526" y="548.6727">apartment.repository</text><ellipse cx="647.7159" cy="499.2432" fill="#F8F8F8" rx="59.2159" ry="14.2432" style="stroke: #383838; stroke-width: 0.5;"/><text fill="#000000" font-family="Tahoma, sans-serif" font-size="12" lengthAdjust="spacingAndGlyphs" textLength="86" x="604.7159" y="502.9854">user.repository</text><!--MD5=[2026c0bd7f4956f7b059870106b72831]
entity _entities_Apartment--><rect fill="#F8F8F8" height="34.4844" rx="3" ry="3" style="stroke: #000000; stroke-width: 0.5;" width="125" x="776.5" y="568"/><text fill="#000000" font-family="Tahoma, sans-serif" font-size="12" lengthAdjust="spacingAndGlyphs" textLength="105" x="786.5" y="590.0059">entities/Apartment</text><!--MD5=[147a91f99759f6cb8c425b4553f458eb]
entity _entities_User--><rect fill="#F8F8F8" height="34.4844" rx="3" ry="3" style="stroke: #000000; stroke-width: 0.5;" width="93" x="934" y="502"/><text fill="#000000" font-family="Tahoma, sans-serif" font-size="12" lengthAdjust="spacingAndGlyphs" textLength="73" x="944" y="524.0059">entities/User</text><!--MD5=[6970322dd021e8bde36f20252f8dcdf3]
entity _EntityWithIdAndTimestamps--><rect fill="#F8F8F8" height="34.4844" rx="3" ry="3" style="stroke: #000000; stroke-width: 0.5;" width="180" x="1058" y="551"/><text fill="#000000" font-family="Tahoma, sans-serif" font-size="12" lengthAdjust="spacingAndGlyphs" textLength="160" x="1068" y="573.0059">EntityWithIdAndTimestamps</text><!--MD5=[df7b7da2504707e2c9c337bf9ecd3425]
entity _EventLog--><rect fill="#F8F8F8" height="34.4844" rx="3" ry="3" style="stroke: #000000; stroke-width: 0.5;" width="72" x="944.5" y="551"/><text fill="#000000" font-family="Tahoma, sans-serif" font-size="12" lengthAdjust="spacingAndGlyphs" textLength="52" x="954.5" y="573.0059">EventLog</text><!--MD5=[6cc8762ce868c43b85eddf0415429863]
link _apartment_controller to apartment.service--><path d="M275.092,369.336 C290.797,394.739 323.528,441.787 364,467 C372.916,472.555 383.136,476.774 393.39,479.978 " fill="none" id="_apartment_controller-&gt;apartment.service" style="stroke: #000000; stroke-width: 0.5;"/><polygon fill="#000000" points="398.421,481.471,390.9315,475.0751,393.6278,480.048,388.6548,482.7442,398.421,481.471" style="stroke: #000000; stroke-width: 0.5;"/><!--MD5=[0858b8ca08335c7aefde438a5d5b3e8c]
link _apartment_controller to auth.jwt--><path d="M332.094,335.991 C340.227,333.556 348.356,330.884 356,328 C359.719,326.597 360.34,325.552 364,324 C441.648,291.077 473.333,308.535 543,261 C584.462,232.71 619.395,183.794 636.046,158.02 " fill="none" id="_apartment_controller-&gt;auth.jwt" style="stroke: #000000; stroke-width: 0.5;"/><polygon fill="#000000" points="638.75,153.788,630.5325,159.2169,636.0571,158.0009,637.2731,163.5255,638.75,153.788" style="stroke: #000000; stroke-width: 0.5;"/><!--MD5=[c20c81bcba0db35d3dd628bd55f33ab8]
link _apartment_controller to _models_Apartment--><path d="M332.133,353.172 C442.243,355.093 659.983,358.893 770.397,360.82 " fill="none" id="_apartment_controller-&gt;_models_Apartment" style="stroke: #000000; stroke-width: 0.5;"/><polygon fill="#000000" points="775.573,360.911,766.6441,356.7548,770.5738,360.8239,766.5047,364.7536,775.573,360.911" style="stroke: #000000; stroke-width: 0.5;"/><!--MD5=[9e470a0f4cc480046c2336c3151c48bb]
link apartment.repository to _entities_Apartment--><path d="M702.043,556.302 C723.513,560.8339 748.488,566.1057 771.132,570.8853 " fill="none" id="apartment.repository-&gt;_entities_Apartment" style="stroke: #000000; stroke-width: 0.5;"/><polygon fill="#000000" points="776.227,571.9608,768.2474,566.1879,771.3348,570.9279,766.5948,574.0154,776.227,571.9608" style="stroke: #000000; stroke-width: 0.5;"/><!--MD5=[e8795b8090cf0242c71807e88ceeb1cb]
link apartment.repository to _entities_User--><path d="M716.682,539.6443 C779.693,534.6948 871.894,527.452 928.674,522.992 " fill="none" id="apartment.repository-&gt;_entities_User" style="stroke: #000000; stroke-width: 0.5;"/><polygon fill="#000000" points="933.717,522.596,924.4315,519.3127,928.7323,522.9873,925.0577,527.2882,933.717,522.596" style="stroke: #000000; stroke-width: 0.5;"/><!--MD5=[86a44cc1d310c16ba3be45a680fb52f3]
link apartment.repository to _EventLog--><path d="M719.322,547.6666 C775.46,550.122 855.855,554.3976 926,561 C930.29,561.4038 934.766,561.8885 939.222,562.412 " fill="none" id="apartment.repository-&gt;_EventLog" style="stroke: #000000; stroke-width: 0.5;"/><polygon fill="#000000" points="944.432,563.0418,935.977,557.9907,939.4681,562.4418,935.017,565.9329,944.432,563.0418" style="stroke: #000000; stroke-width: 0.5;"/><!--MD5=[8f91c3bb19418fbc6b7e609ed91061ae]
link apartment.repository to _models_Apartment--><path d="M715.126,538.8616 C726.015,535.0965 736.25,529.434 744,521 C758.931,504.753 743.15,492.214 752,472 C767.285,437.089 796.231,403.571 816.294,382.902 " fill="none" id="apartment.repository-&gt;_models_Apartment" style="stroke: #000000; stroke-width: 0.5;"/><polygon fill="#000000" points="819.932,379.195,810.7736,382.8177,816.4302,382.7639,816.4839,388.4205,819.932,379.195" style="stroke: #000000; stroke-width: 0.5;"/><!--MD5=[2952776b15c6dbe5a1b163b1aff2571a]
link apartment.service to apartment.repository--><path d="M491.907,502.638 C509.721,508.497 531.374,515.388 551,521 C563.769,524.651 577.583,528.297 590.632,531.604 " fill="none" id="apartment.service-&gt;apartment.repository" style="stroke: #000000; stroke-width: 0.5;"/><polygon fill="#000000" points="595.783,532.902,588.0345,526.8225,590.9348,531.6792,586.0781,534.5796,595.783,532.902" style="stroke: #000000; stroke-width: 0.5;"/><!--MD5=[cfc65d6c0cae18dcf3e5ca14ec95ff72]
link apartment.service to _models_Apartment--><path d="M500.192,478.94 C514.017,475.376 529.191,471.243 543,467 C630.694,440.055 730.963,403.007 789.122,380.885 " fill="none" id="apartment.service-&gt;_models_Apartment" style="stroke: #000000; stroke-width: 0.5;"/><polygon fill="#000000" points="793.925,379.055,784.0906,378.5208,789.2525,380.8349,786.9384,385.9967,793.925,379.055" style="stroke: #000000; stroke-width: 0.5;"/><!--MD5=[aaf6bb04ec7f0ad0e7dffbf36b8a8be6]
link _auth_controller to _Auth--><path d="M315.599,254.883 C433.317,256.937 722.309,261.981 811.408,263.536 " fill="none" id="_auth_controller-&gt;_Auth" style="stroke: #000000; stroke-width: 0.5;"/><polygon fill="#000000" points="816.491,263.625,807.5621,259.4687,811.4918,263.5378,807.4226,267.4675,816.491,263.625" style="stroke: #000000; stroke-width: 0.5;"/><!--MD5=[d54f8a898f2b2f93b3b33fade19514d3]
link _auth_controller to auth.service--><path d="M315.683,261.764 C329.551,265.476 344.041,270.947 356,279 C398.129,307.37 429.621,360.214 443.952,387.576 " fill="none" id="_auth_controller-&gt;auth.service" style="stroke: #000000; stroke-width: 0.5;"/><polygon fill="#000000" points="446.265,392.059,445.6921,382.2268,443.972,387.6158,438.583,385.8957,446.265,392.059" style="stroke: #000000; stroke-width: 0.5;"/><!--MD5=[562c46d0512001f86390504dff043105]
link _auth_controller to logger--><path d="M283.203,236.987 C325.886,198.409 437.421,105.074 551,72 C643.031,45.201 758.273,70.912 810.277,85.49 " fill="none" id="_auth_controller-&gt;logger" style="stroke: #000000; stroke-width: 0.5;"/><polygon fill="#000000" points="815.109,86.864,807.5455,80.5558,810.2995,85.497,805.3583,88.251,815.109,86.864" style="stroke: #000000; stroke-width: 0.5;"/><!--MD5=[572c719d8e046331fbd67b721e6b8c15]
link auth.jwt to _Auth--><path d="M673.856,149.784 C693.718,157.214 721.634,168.891 744,183 C771.441,200.311 799.129,225.289 817.276,242.921 " fill="none" id="auth.jwt-&gt;_Auth" style="stroke: #000000; stroke-width: 0.5;"/><polygon fill="#000000" points="821.225,246.789,817.5949,237.6335,817.6532,243.2901,811.9967,243.3484,821.225,246.789" style="stroke: #000000; stroke-width: 0.5;"/><!--MD5=[d2d7d09a7514e225210c9e2c095de26d]
link auth.jwt to logger--><path d="M679.166,135.172 C697.959,131.453 722.462,126.341 744,121 C766.295,115.471 791.276,108.246 809.879,102.661 " fill="none" id="auth.jwt-&gt;logger" style="stroke: #000000; stroke-width: 0.5; stroke-dasharray: 7.0,7.0;"/><polygon fill="#000000" points="814.949,101.132,805.1776,99.8994,810.1617,102.5749,807.4862,107.559,814.949,101.132" style="stroke: #000000; stroke-width: 0.5;"/><!--MD5=[224bc9a7bec10d656533ed895f4a5b22]
link auth.jwt to _models_User--><path d="M653.845,153.944 C666.442,182.809 700.83,252.752 752,289 C762.273,296.277 774.684,301.353 786.842,304.891 " fill="none" id="auth.jwt-&gt;_models_User" style="stroke: #000000; stroke-width: 0.5;"/><polygon fill="#000000" points="791.665,306.22,784.0515,299.9723,786.8448,304.8914,781.9257,307.6846,791.665,306.22" style="stroke: #000000; stroke-width: 0.5;"/><!--MD5=[32ca86990d707716a406822f99e0a40d]
link auth.service to _Auth--><path d="M471.123,392.628 C489.741,379.27 521.221,358.144 551,345 C642.583,304.576 759.55,279.007 811.309,268.915 " fill="none" id="auth.service-&gt;_Auth" style="stroke: #000000; stroke-width: 0.5;"/><polygon fill="#000000" points="816.407,267.93,806.8117,265.7098,811.4978,268.8784,808.3291,273.5645,816.407,267.93" style="stroke: #000000; stroke-width: 0.5;"/><!--MD5=[9e9f16af2e1b4bb8d9144e8ef5210e61]
link auth.service to auth.jwt--><path d="M465.916,392.043 C484.21,370.753 520.334,326.48 543,284 C547.898,274.821 545.935,271.088 551,262 C573.936,220.848 610.488,179.074 631.083,156.994 " fill="none" id="auth.service-&gt;auth.jwt" style="stroke: #000000; stroke-width: 0.5;"/><polygon fill="#000000" points="634.736,153.105,625.6596,156.9285,631.3136,156.7502,631.4919,162.4042,634.736,153.105" style="stroke: #000000; stroke-width: 0.5;"/><!--MD5=[1383f3e222429f0733e643250a9c4b0e]
link auth.service to user.repository--><path d="M497.9,411.854 C512.617,415.07 528.893,419.638 543,426 C575,440.43 607.339,465.252 627.15,481.893 " fill="none" id="auth.service-&gt;user.repository" style="stroke: #000000; stroke-width: 0.5;"/><polygon fill="#000000" points="631.183,485.313,626.9072,476.4407,627.37,482.0786,621.7321,482.5415,631.183,485.313" style="stroke: #000000; stroke-width: 0.5;"/><!--MD5=[b5c23d07f236d1178bc1899d3effdd89]
link _entities_Apartment to _entities_User--><path d="M876.288,567.8316 C895.421,558.7795 918.956,547.6446 938.718,538.2948 " fill="none" id="_entities_Apartment-&gt;_entities_User" style="stroke: #000000; stroke-width: 0.5; stroke-dasharray: 7.0,7.0;"/><polygon fill="#000000" points="943.394,536.0825,933.5479,536.3162,938.8744,538.221,936.9695,543.5475,943.394,536.0825" style="stroke: #000000; stroke-width: 0.5;"/><!--MD5=[24755b029eafb07319e502a30c0f7013]
link _entities_Apartment to _EntityWithIdAndTimestamps--><path d="M901.64,590.9993 C912.416,591.8327 923.527,592.5552 934,593 C975.296,594.7541 985.884,597.2374 1027,593 C1041.74,591.481 1057.34,588.9388 1072.24,586.0424 " fill="none" id="_entities_Apartment-&gt;_EntityWithIdAndTimestamps" style="stroke: #000000; stroke-width: 0.5; stroke-dasharray: 7.0,7.0;"/><polygon fill="#000000" points="1077.26,585.0476,1067.6544,582.8723,1072.3553,586.019,1069.2086,590.7199,1077.26,585.0476" style="stroke: #000000; stroke-width: 0.5;"/><!--MD5=[d80f597ef9c43ab3fc662f9b7fe01968]
link _entities_User to _EntityWithIdAndTimestamps--><path d="M1027.16,532.519 C1044.89,537.7682 1065.48,543.8651 1084.54,549.5086 " fill="none" id="_entities_User-&gt;_EntityWithIdAndTimestamps" style="stroke: #000000; stroke-width: 0.5; stroke-dasharray: 7.0,7.0;"/><polygon fill="#000000" points="1089.35,550.9328,1081.867,544.5293,1084.5582,549.505,1079.5825,552.1961,1089.35,550.9328" style="stroke: #000000; stroke-width: 0.5;"/><!--MD5=[2d6b21759ce17737018b6286045c33fa]
link _EventLog to _EntityWithIdAndTimestamps--><path d="M1016.6,568 C1027.4,568 1039.85,568 1052.68,568 " fill="none" id="_EventLog-&gt;_EntityWithIdAndTimestamps" style="stroke: #000000; stroke-width: 0.5; stroke-dasharray: 7.0,7.0;"/><polygon fill="#000000" points="1057.81,568,1048.81,564,1052.81,568,1048.81,572,1057.81,568" style="stroke: #000000; stroke-width: 0.5;"/><!--MD5=[afa5ff013eb80bbadf484fee2552db1b]
link routes to _apartment_controller--><path d="M118.062,222.556 C133.986,224.449 152.895,229.655 164,243 C176.136,257.583 159.729,313.531 172,328 C177.251,334.192 183.892,338.884 191.185,342.425 " fill="none" id="routes-&gt;_apartment_controller" style="stroke: #000000; stroke-width: 0.5;"/><polygon fill="#000000" points="195.804,344.485,189.214,337.1657,191.2377,342.4482,185.9552,344.4719,195.804,344.485" style="stroke: #000000; stroke-width: 0.5;"/><!--MD5=[a6574b0883c99c33d1c1e34f472f0782]
link routes to _auth_controller--><path d="M116.275,226.86 C140.311,231.306 176.665,238.03 207.171,243.673 " fill="none" id="routes-&gt;_auth_controller" style="stroke: #000000; stroke-width: 0.5;"/><polygon fill="#000000" points="212.403,244.641,204.2815,239.0696,207.4865,243.7309,202.8252,246.9359,212.403,244.641" style="stroke: #000000; stroke-width: 0.5;"/><!--MD5=[562440ee5b2be334a30381992739c0d2]
link routes to auth.jwt--><path d="M116.841,218.093 C207.797,204.854 504.506,161.668 609.373,146.404 " fill="none" id="routes-&gt;auth.jwt" style="stroke: #000000; stroke-width: 0.5;"/><polygon fill="#000000" points="614.518,145.655,605.0357,142.9929,609.5701,146.3751,606.1879,150.9095,614.518,145.655" style="stroke: #000000; stroke-width: 0.5;"/><!--MD5=[c3d2556c4d629c2bc3d7bb124fdead71]
link routes to _user_controller--><path d="M118.201,223.176 C133.767,225.318 152.267,230.568 164,243 C175.25,254.92 160.64,267.185 172,279 C181.298,288.669 193.991,294.605 206.947,298.208 " fill="none" id="routes-&gt;_user_controller" style="stroke: #000000; stroke-width: 0.5;"/><polygon fill="#000000" points="212.112,299.522,204.3761,293.4264,207.2664,298.2892,202.4036,301.1794,212.112,299.522" style="stroke: #000000; stroke-width: 0.5;"/><!--MD5=[58b1ddf9e3fd87978458e42747798e8d]
link <b>server</b> to _Auth--><path d="M120.384,183.564 C213.701,191.567 504.348,217.444 744,249 C766.764,251.997 792.507,256.16 811.29,259.339 " fill="none" id="&lt;b&gt;server&lt;/b&gt;-&gt;_Auth" style="stroke: #000000; stroke-width: 1.0;"/><polygon fill="#000000" points="816.394,260.208,808.1924,254.7551,811.4648,259.3693,806.8506,262.6417,816.394,260.208" style="stroke: #000000; stroke-width: 1.0;"/><!--MD5=[322b45c47471d12b6d49db8397c5ba50]
link <b>server</b> to auth.jwt--><path d="M105.7077,169.79 C121.561,159.22 147.183,144.112 172,138 C331.282,98.77 529.863,122.385 610.234,134.813 " fill="none" id="&lt;b&gt;server&lt;/b&gt;-&gt;auth.jwt" style="stroke: #000000; stroke-width: 1.0;"/><polygon fill="#000000" points="615.355,135.615,607.0829,130.2696,610.4153,134.8408,605.8442,138.1731,615.355,135.615" style="stroke: #000000; stroke-width: 1.0;"/><!--MD5=[5dcf67e50701372d1e4b38ad174e1bd8]
link <b>server</b> to logger--><path d="M96.744,168.039 C108.666,146.64 135.678,104.458 172,86 C398.97,-29.34 494.311,5.258 744,55 C769.718,60.123 797.212,72.415 815.777,81.841 " fill="none" id="&lt;b&gt;server&lt;/b&gt;-&gt;logger" style="stroke: #000000; stroke-width: 1.0;"/><polygon fill="#000000" points="820.299,84.17,814.1308,76.4919,815.8543,81.8798,810.4665,83.6034,820.299,84.17" style="stroke: #000000; stroke-width: 1.0;"/><!--MD5=[918f1540acef5cbfe8e12ed9833e65d6]
link <b>server</b> to _models_User--><path d="M121.288,181.738 C136.607,183.857 153.888,189.226 164,202 C176.288,217.523 162.544,362.607 172,380 C222.072,472.098 264.163,485.033 364,517 C439.766,541.2599 481.817,567.85 543,517 C557.95,504.575 539.061,489.341 551,474 C609.014,399.455 686.56,459.988 744,385 C756.885,368.179 737.897,353.815 752,338 C760.953,327.96 773.677,321.851 786.6,318.162 " fill="none" id="&lt;b&gt;server&lt;/b&gt;-&gt;_models_User" style="stroke: #000000; stroke-width: 1.0;"/><polygon fill="#000000" points="791.749,316.818,782.0306,315.2205,786.9111,318.0807,784.0509,322.9612,791.749,316.818" style="stroke: #000000; stroke-width: 1.0;"/><!--MD5=[b5550d8c7cbc955c7a41f0bf9d55f796]
link <b>server</b> to routes--><path d="M89,194.063 C89,197.301 89,200.54 89,203.778 " fill="none" id="&lt;b&gt;server&lt;/b&gt;-&gt;routes" style="stroke: #000000; stroke-width: 1.0; stroke-dasharray: 7.0,7.0;"/><polygon fill="#000000" points="89,208.867,93,199.867,89,203.867,85,199.867,89,208.867" style="stroke: #000000; stroke-width: 1.0;"/><!--MD5=[b7da318761176cd6308606b45640b193]
link <b>server</b> to _TypeORMLogger--><path d="M100.7313,168.658 C115.139,153.09 142.375,127.022 172,116 C312.877,63.585 493.739,75.679 586.195,86.987 " fill="none" id="&lt;b&gt;server&lt;/b&gt;-&gt;_TypeORMLogger" style="stroke: #000000; stroke-width: 1.0;"/><polygon fill="#000000" points="591.344,87.627,582.9066,82.5467,586.3822,87.0098,581.9191,90.4855,591.344,87.627" style="stroke: #000000; stroke-width: 1.0;"/><!--MD5=[e740ba654b198251af9249c33f84db62]
link _TypeORMLogger to logger--><path d="M703.566,95.419 C736.589,95.07 777.461,94.639 805.414,94.344 " fill="none" id="_TypeORMLogger-&gt;logger" style="stroke: #000000; stroke-width: 0.5; stroke-dasharray: 7.0,7.0;"/><polygon fill="#000000" points="810.478,94.29,801.4362,90.3854,805.4783,94.3429,801.5208,98.3849,810.478,94.29" style="stroke: #000000; stroke-width: 0.5;"/><!--MD5=[f9d07b912afd61cfb43e6511e1d68859]
link _user_controller to auth.jwt--><path d="M315.913,297.683 C330.098,294.17 344.7,288.41 356,279 C362.417,273.656 357.915,267.718 364,262 C426.371,203.394 464.639,225.415 543,191 C570.178,179.064 600.717,164.117 621.534,153.689 " fill="none" id="_user_controller-&gt;auth.jwt" style="stroke: #000000; stroke-width: 0.5;"/><polygon fill="#000000" points="626.085,151.404,616.2471,151.8688,621.6169,153.6481,619.8376,159.0178,626.085,151.404" style="stroke: #000000; stroke-width: 0.5;"/><!--MD5=[0fb2ab3080e68b16e7150866435982e3]
link _user_controller to _models_User--><path d="M315.599,303.883 C423.96,305.774 677.447,310.198 786.557,312.102 " fill="none" id="_user_controller-&gt;_models_User" style="stroke: #000000; stroke-width: 0.5;"/><polygon fill="#000000" points="791.643,312.191,782.7141,308.0347,786.6438,312.1038,782.5746,316.0335,791.643,312.191" style="stroke: #000000; stroke-width: 0.5;"/><!--MD5=[097b81be3c6bf7c7e3a5dba365f1a503]
link _user_controller to user.service--><path d="M315.92,306.007 C330.975,309.484 346.068,316.016 356,328 C369.943,344.823 349.675,409.501 364,426 C372.297,435.555 384.101,441.083 396.395,444.17 " fill="none" id="_user_controller-&gt;user.service" style="stroke: #000000; stroke-width: 0.5;"/><polygon fill="#000000" points="401.31,445.274,393.4053,439.399,396.4315,444.1783,391.6522,447.2045,401.31,445.274" style="stroke: #000000; stroke-width: 0.5;"/><!--MD5=[91323e5e891003a8aa47e6c2bae4dadc]
link user.repository to _entities_User--><path d="M679.652,487.216 C732.271,469.199 841.299,440.079 926,472 C939.89,477.235 952.519,487.897 962.015,497.745 " fill="none" id="user.repository-&gt;_entities_User" style="stroke: #000000; stroke-width: 0.5;"/><polygon fill="#000000" points="965.626,501.609,962.4026,492.3026,962.2118,497.9562,956.5581,497.7653,965.626,501.609" style="stroke: #000000; stroke-width: 0.5;"/><!--MD5=[8b3a2cc741c76eb341206bb75debbab7]
link user.repository to _EventLog--><path d="M703.421,503.644 C760.098,509.419 850.613,521.403 926,544 C930.681,545.403 935.487,547.1236 940.207,548.9935 " fill="none" id="user.repository-&gt;_EventLog" style="stroke: #000000; stroke-width: 0.5;"/><polygon fill="#000000" points="944.891,550.9068,938.0728,543.7996,940.2625,549.0155,935.0467,551.2052,944.891,550.9068" style="stroke: #000000; stroke-width: 0.5;"/><!--MD5=[268a1c9652f8bd851d1a6e5346c68370]
link user.repository to _models_User--><path d="M669.332,485.787 C691.938,470.195 727.066,442.037 744,408 C757.948,379.964 731.807,361.933 752,338 C760.841,327.522 773.793,321.296 786.977,317.636 " fill="none" id="user.repository-&gt;_models_User" style="stroke: #000000; stroke-width: 0.5;"/><polygon fill="#000000" points="791.837,316.4,782.1291,314.7399,786.991,317.6315,784.0994,322.4935,791.837,316.4" style="stroke: #000000; stroke-width: 0.5;"/><!--MD5=[377b8237ad725c1771be360cf8bd3c66]
link user.repository to _NotFoundError--><path d="M589.229,501.593 C575.137,504.86 561.186,510.734 551,521 C539.455,532.635 555.785,546.7441 543,557 C414.38,660.1755 303.503,656.4753 172,557 C128.37,523.996 101.3028,351.398 92.8529,289.292 " fill="none" id="user.repository-&gt;_NotFoundError" style="stroke: #000000; stroke-width: 0.5;"/><polygon fill="#000000" points="92.1844,284.322,89.4183,293.7744,92.8501,289.2775,97.3471,292.7093,92.1844,284.322" style="stroke: #000000; stroke-width: 0.5;"/><!--MD5=[b64e42995474d859eb56ab10f112be97]
link user.service to _models_User--><path d="M505.389,444.479 C519.224,441.633 533.101,436.148 543,426 C555.659,413.022 538.516,399.147 551,386 C583.023,352.277 713.111,329.761 786.671,319.454 " fill="none" id="user.service-&gt;_models_User" style="stroke: #000000; stroke-width: 0.5;"/><polygon fill="#000000" points="791.868,318.733,782.4037,316.0077,786.9154,319.4201,783.5031,323.9318,791.868,318.733" style="stroke: #000000; stroke-width: 0.5;"/><!--MD5=[063e2d6f822dd6550b1063ec9215e714]
link user.service to user.repository--><path d="M492.976,454.54 C508.564,458.153 526.7,462.552 543,467 C564.41,472.843 588.073,480.098 607.363,486.223 " fill="none" id="user.service-&gt;user.repository" style="stroke: #000000; stroke-width: 0.5;"/><polygon fill="#000000" points="612.169,487.754,604.8088,481.2097,607.4051,486.2356,602.3793,488.8319,612.169,487.754" style="stroke: #000000; stroke-width: 0.5;"/><script type="text/plantuml"><![CDATA[MD5=[b4b3ec195c81829631bc34b3585816ee]
@startuml

scale max 1920 width
left to right direction

skinparam nodesep 15
skinparam ranksep 31
skinparam monochrome true
skinparam shadowing false
skinparam defaultFontName Tahoma
skinparam defaultFontSize 12
skinparam roundCorner 6
skinparam dpi 150
skinparam arrowColor black
skinparam arrowThickness 0.5
skinparam packageTitleAlignment left

skinparam usecase {
  borderThickness 0.5
}

skinparam rectangle {
  borderThickness 0.5
}

skinparam component {
  borderThickness 1
}


package "Server & Router" {
  rectangle "NotFoundError" as _NotFoundError
  (routes)
  (<b>server</b>)
}

package "Controllers" {
  rectangle "apartment.controller" as _apartment_controller
  rectangle "auth.controller" as _auth_controller
  rectangle "user.controller" as _user_controller
}

package "Middlewares" {
  (auth.jwt)
  (logger)
  rectangle "TypeORMLogger" as _TypeORMLogger
}

package "Models" {
  rectangle "Auth" as _Auth
  rectangle "models/Apartment" as _models_Apartment
  rectangle "models/User" as _models_User
}

package "Services" {
  (apartment.service)
  (auth.service)
  (user.service)
}

package "Repositories" {
  (apartment.repository)
  (user.repository)
}

package "Entities" {
  rectangle "entities/Apartment" as _entities_Apartment
  rectangle "entities/User" as _entities_User
  rectangle "EntityWithIdAndTimestamps" as _EntityWithIdAndTimestamps
  rectangle "EventLog" as _EventLog
}

_apartment_controller --> (apartment.service)
_apartment_controller --> (auth.jwt)
_apartment_controller --> _models_Apartment
(apartment.repository) --> _entities_Apartment
(apartment.repository) --> _entities_User
(apartment.repository) --> _EventLog
(apartment.repository) --> _models_Apartment
(apartment.service) --> (apartment.repository)
(apartment.service) --> _models_Apartment
_auth_controller --> _Auth
_auth_controller --> (auth.service)
_auth_controller --> (logger)
(auth.jwt) --> _Auth
(auth.jwt) ..> (logger)
(auth.jwt) --> _models_User
(auth.service) --> _Auth
(auth.service) --> (auth.jwt)
(auth.service) --> (user.repository)
_entities_Apartment ..> _entities_User
_entities_Apartment ..> _EntityWithIdAndTimestamps
_entities_User ..> _EntityWithIdAndTimestamps
_EventLog ..> _EntityWithIdAndTimestamps
(routes) --> _apartment_controller
(routes) --> _auth_controller
(routes) --> (auth.jwt)
(routes) --> _user_controller
(<b>server</b>) -[thickness=1]> _Auth
(<b>server</b>) -[thickness=1]> (auth.jwt)
(<b>server</b>) -[thickness=1]> (logger)
(<b>server</b>) -[thickness=1]> _models_User
(<b>server</b>) .[thickness=1]> (routes)
(<b>server</b>) -[thickness=1]> _TypeORMLogger
_TypeORMLogger ..> (logger)
_user_controller --> (auth.jwt)
_user_controller --> _models_User
_user_controller --> (user.service)
(user.repository) --> _entities_User
(user.repository) --> _EventLog
(user.repository) --> _models_User
(user.repository) --> _NotFoundError
(user.service) --> _models_User
(user.service) --> (user.repository)

@enduml


' View and edit on https://arkit.pro
]]></script></g></svg>