<?xml version="1.0" encoding="UTF-8" standalone="no"?><svg xmlns="http://www.w3.org/2000/svg" xmlns:xlink="http://www.w3.org/1999/xlink" contentScriptType="application/ecmascript" contentStyleType="text/css" height="1104px" preserveAspectRatio="none" style="width:1389px;height:1104px;" version="1.1" viewBox="0 0 1389 1104" width="1389px" zoomAndPan="magnify"><defs/><g><!--MD5=[81da1a12a6ffceb0b7ff692a5ac8efc2]
cluster Server & Router--><path d="M17,567.999 L120,567.999 A4.5,4.5 0 0 1 123,570.999 L130,588.4834 L130,588.4834 A3,3 0 0 1 133,591.4834 L133,681.999 A3,3 0 0 1 130,684.999 L17,684.999 A3,3 0 0 1 14,681.999 L14,570.999 A3,3 0 0 1 17,567.999 " fill="#FFFFFF" style="stroke: #000000; stroke-width: 1.5;"/><line style="stroke: #000000; stroke-width: 1.5;" x1="14" x2="130" y1="588.4834" y2="588.4834"/><text fill="#000000" font-family="Tahoma, sans-serif" font-size="12" font-weight="bold" lengthAdjust="spacingAndGlyphs" textLength="103" x="18" y="582.0049">Server &amp; Router</text><!--MD5=[ed1d20ea533a2a0e7df5ba3c35e56ced]
cluster Controllers--><path d="M160,580.999 L234,580.999 A4.5,4.5 0 0 1 237,583.999 L244,601.4834 L322,601.4834 A3,3 0 0 1 325,604.4834 L325,760.999 A3,3 0 0 1 322,763.999 L160,763.999 A3,3 0 0 1 157,760.999 L157,583.999 A3,3 0 0 1 160,580.999 " fill="#FFFFFF" style="stroke: #000000; stroke-width: 1.5;"/><line style="stroke: #000000; stroke-width: 1.5;" x1="157" x2="244" y1="601.4834" y2="601.4834"/><text fill="#000000" font-family="Tahoma, sans-serif" font-size="12" font-weight="bold" lengthAdjust="spacingAndGlyphs" textLength="74" x="161" y="595.0049">Controllers</text><!--MD5=[01444e0f60f2f1f3466acc3cffdc895e]
cluster Middlewares--><path d="M555.5,718.999 L636.5,718.999 A4.5,4.5 0 0 1 639.5,721.999 L646.5,739.4834 L833.5,739.4834 A3,3 0 0 1 836.5,742.4834 L836.5,840.999 A3,3 0 0 1 833.5,843.999 L555.5,843.999 A3,3 0 0 1 552.5,840.999 L552.5,721.999 A3,3 0 0 1 555.5,718.999 " fill="#FFFFFF" style="stroke: #000000; stroke-width: 1.5;"/><line style="stroke: #000000; stroke-width: 1.5;" x1="552.5" x2="646.5" y1="739.4834" y2="739.4834"/><text fill="#000000" font-family="Tahoma, sans-serif" font-size="12" font-weight="bold" lengthAdjust="spacingAndGlyphs" textLength="81" x="556.5" y="733.0049">Middlewares</text><!--MD5=[027ebfd53c01aea08f474edbf35d0797]
cluster Models--><path d="M716,503.999 L763,503.999 A4.5,4.5 0 0 1 766,506.999 L773,524.4834 L1022,524.4834 A3,3 0 0 1 1025,527.4834 L1025,633.999 A3,3 0 0 1 1022,636.999 L716,636.999 A3,3 0 0 1 713,633.999 L713,506.999 A3,3 0 0 1 716,503.999 " fill="#FFFFFF" style="stroke: #000000; stroke-width: 1.5;"/><line style="stroke: #000000; stroke-width: 1.5;" x1="713" x2="773" y1="524.4834" y2="524.4834"/><text fill="#000000" font-family="Tahoma, sans-serif" font-size="12" font-weight="bold" lengthAdjust="spacingAndGlyphs" textLength="47" x="717" y="518.0049">Models</text><!--MD5=[cdfd548b3455e70392372b1f27091970]
cluster Services--><path d="M352,594.999 L409,594.999 A4.5,4.5 0 0 1 412,597.999 L419,615.4834 L509,615.4834 A3,3 0 0 1 512,618.4834 L512,756.999 A3,3 0 0 1 509,759.999 L352,759.999 A3,3 0 0 1 349,756.999 L349,597.999 A3,3 0 0 1 352,594.999 " fill="#FFFFFF" style="stroke: #000000; stroke-width: 1.5;"/><line style="stroke: #000000; stroke-width: 1.5;" x1="349" x2="419" y1="615.4834" y2="615.4834"/><text fill="#000000" font-family="Tahoma, sans-serif" font-size="12" font-weight="bold" lengthAdjust="spacingAndGlyphs" textLength="57" x="353" y="609.0049">Services</text><!--MD5=[600c2d25b6889bd4e9f6b335204b22ae]
cluster Repositories--><path d="M539,281.999 L623,281.999 A4.5,4.5 0 0 1 626,284.999 L633,302.4834 L849,302.4834 A3,3 0 0 1 852,305.4834 L852,405.999 A3,3 0 0 1 849,408.999 L539,408.999 A3,3 0 0 1 536,405.999 L536,284.999 A3,3 0 0 1 539,281.999 " fill="#FFFFFF" style="stroke: #000000; stroke-width: 1.5;"/><line style="stroke: #000000; stroke-width: 1.5;" x1="536" x2="633" y1="302.4834" y2="302.4834"/><text fill="#000000" font-family="Tahoma, sans-serif" font-size="12" font-weight="bold" lengthAdjust="spacingAndGlyphs" textLength="84" x="540" y="296.0049">Repositories</text><!--MD5=[114f4823940f317c08f5bedd633c9afd]
cluster Entities--><path d="M886.5,249.999 L936.5,249.999 A4.5,4.5 0 0 1 939.5,252.999 L946.5,270.4834 L1374.5,270.4834 A3,3 0 0 1 1377.5,273.4834 L1377.5,397.999 A3,3 0 0 1 1374.5,400.999 L886.5,400.999 A3,3 0 0 1 883.5,397.999 L883.5,252.999 A3,3 0 0 1 886.5,249.999 " fill="#FFFFFF" style="stroke: #000000; stroke-width: 1.5;"/><line style="stroke: #000000; stroke-width: 1.5;" x1="883.5" x2="946.5" y1="270.4834" y2="270.4834"/><text fill="#000000" font-family="Tahoma, sans-serif" font-size="12" font-weight="bold" lengthAdjust="spacingAndGlyphs" textLength="50" x="887.5" y="264.0049">Entities</text><!--MD5=[9149df60bdb753397a8aec95a07bd16a]
cluster Errors--><path d="M727.5,23.999 L767.5,23.999 A4.5,4.5 0 0 1 770.5,26.999 L777.5,44.4834 L856.5,44.4834 A3,3 0 0 1 859.5,47.4834 L859.5,203.999 A3,3 0 0 1 856.5,206.999 L727.5,206.999 A3,3 0 0 1 724.5,203.999 L724.5,26.999 A3,3 0 0 1 727.5,23.999 " fill="#FFFFFF" style="stroke: #000000; stroke-width: 1.5;"/><line style="stroke: #000000; stroke-width: 1.5;" x1="724.5" x2="777.5" y1="44.4834" y2="44.4834"/><text fill="#000000" font-family="Tahoma, sans-serif" font-size="12" font-weight="bold" lengthAdjust="spacingAndGlyphs" textLength="40" x="728.5" y="38.0049">Errors</text><ellipse cx="73.163" cy="656.241" fill="#F8F8F8" rx="29.163" ry="13.242" style="stroke: #383838; stroke-width: 0.5;"/><text fill="#000000" font-family="Tahoma, sans-serif" font-size="12" lengthAdjust="spacingAndGlyphs" textLength="37" x="54.663" y="659.9832">routes</text><ellipse cx="72.9914" cy="614.241" fill="#F8F8F8" rx="31.9914" ry="13.242" style="stroke: #383838; stroke-width: 0.5;"/><text fill="#000000" font-family="Tahoma, sans-serif" font-size="12" font-weight="bold" lengthAdjust="spacingAndGlyphs" textLength="41" x="52.4914" y="617.9832">server</text><!--MD5=[9e96457d60a40d7b446d98a35d5539e5]
entity _apartment_controller--><rect fill="#F8F8F8" height="34.4844" rx="3" ry="3" style="stroke: #000000; stroke-width: 0.5;" width="136" x="173" y="613.999"/><text fill="#000000" font-family="Tahoma, sans-serif" font-size="12" lengthAdjust="spacingAndGlyphs" textLength="116" x="183" y="636.0049">apartment.controller</text><!--MD5=[d06a8b9102defe736655824e5da7ce2d]
entity _auth_controller--><rect fill="#F8F8F8" height="34.4844" rx="3" ry="3" style="stroke: #000000; stroke-width: 0.5;" width="103" x="189.5" y="713.999"/><text fill="#000000" font-family="Tahoma, sans-serif" font-size="12" lengthAdjust="spacingAndGlyphs" textLength="83" x="199.5" y="736.0049">auth.controller</text><!--MD5=[d86e588f3408319142292d1b5d5a3230]
entity _user_controller--><rect fill="#F8F8F8" height="34.4844" rx="3" ry="3" style="stroke: #000000; stroke-width: 0.5;" width="103" x="189.5" y="663.999"/><text fill="#000000" font-family="Tahoma, sans-serif" font-size="12" lengthAdjust="spacingAndGlyphs" textLength="83" x="199.5" y="686.0049">user.controller</text><ellipse cx="624.3198" cy="765.241" fill="#F8F8F8" rx="34.8198" ry="13.242" style="stroke: #383838; stroke-width: 0.5;"/><text fill="#000000" font-family="Tahoma, sans-serif" font-size="12" lengthAdjust="spacingAndGlyphs" textLength="45" x="601.8198" y="768.9832">auth.jwt</text><ellipse cx="791.9558" cy="813.241" fill="#F8F8F8" rx="28.4558" ry="13.242" style="stroke: #383838; stroke-width: 0.5;"/><text fill="#000000" font-family="Tahoma, sans-serif" font-size="12" lengthAdjust="spacingAndGlyphs" textLength="36" x="773.9558" y="816.9832">logger</text><!--MD5=[f24447cfbda88c07e91dd3d7c0c3db79]
entity _TypeORMLogger--><rect fill="#F8F8F8" height="34.4844" rx="3" ry="3" style="stroke: #000000; stroke-width: 0.5;" width="112" x="568.5" y="793.999"/><text fill="#000000" font-family="Tahoma, sans-serif" font-size="12" lengthAdjust="spacingAndGlyphs" textLength="92" x="578.5" y="816.0049">TypeORMLogger</text><!--MD5=[090835527c10669de3872c7ae72a3e7a]
entity _Auth--><rect fill="#F8F8F8" height="34.4844" rx="3" ry="3" style="stroke: #000000; stroke-width: 0.5;" width="45" x="769.5" y="586.999"/><text fill="#000000" font-family="Tahoma, sans-serif" font-size="12" lengthAdjust="spacingAndGlyphs" textLength="25" x="779.5" y="609.0049">Auth</text><!--MD5=[a59e0cdbfcc9060e410ebd05378c71bb]
entity _models_Apartment--><rect fill="#F8F8F8" height="34.4844" rx="3" ry="3" style="stroke: #000000; stroke-width: 0.5;" width="126" x="729" y="536.999"/><text fill="#000000" font-family="Tahoma, sans-serif" font-size="12" lengthAdjust="spacingAndGlyphs" textLength="106" x="739" y="559.0049">models/Apartment</text><!--MD5=[4c029acf0569c1dbcb6e2b5523401c80]
entity _models_User--><rect fill="#F8F8F8" height="34.4844" rx="3" ry="3" style="stroke: #000000; stroke-width: 0.5;" width="94" x="915" y="536.999"/><text fill="#000000" font-family="Tahoma, sans-serif" font-size="12" lengthAdjust="spacingAndGlyphs" textLength="74" x="925" y="559.0049">models/User</text><ellipse cx="430.5478" cy="644.0086" fill="#F8F8F8" rx="65.5478" ry="15.5096" style="stroke: #383838; stroke-width: 0.5;"/><text fill="#000000" font-family="Tahoma, sans-serif" font-size="12" lengthAdjust="spacingAndGlyphs" textLength="102" x="379.5478" y="647.7508">apartment.service</text><ellipse cx="430.2904" cy="731.241" fill="#F8F8F8" rx="51.7904" ry="13.242" style="stroke: #383838; stroke-width: 0.5;"/><text fill="#000000" font-family="Tahoma, sans-serif" font-size="12" lengthAdjust="spacingAndGlyphs" textLength="69" x="395.7904" y="734.9832">auth.service</text><ellipse cx="430.2904" cy="689.241" fill="#F8F8F8" rx="51.7904" ry="13.242" style="stroke: #383838; stroke-width: 0.5;"/><text fill="#000000" font-family="Tahoma, sans-serif" font-size="12" lengthAdjust="spacingAndGlyphs" textLength="69" x="395.7904" y="692.9832">user.service</text><ellipse cx="624.6526" cy="331.9295" fill="#F8F8F8" rx="72.6526" ry="16.9305" style="stroke: #383838; stroke-width: 0.5;"/><text fill="#000000" font-family="Tahoma, sans-serif" font-size="12" lengthAdjust="spacingAndGlyphs" textLength="119" x="565.1526" y="335.6717">apartment.repository</text><ellipse cx="792.0122" cy="372.241" fill="#F8F8F8" rx="44.0122" ry="13.242" style="stroke: #383838; stroke-width: 0.5;"/><text fill="#000000" font-family="Tahoma, sans-serif" font-size="12" lengthAdjust="spacingAndGlyphs" textLength="58" x="763.0122" y="375.9832">morphism</text><ellipse cx="624.7159" cy="379.2422" fill="#F8F8F8" rx="59.2159" ry="14.2432" style="stroke: #383838; stroke-width: 0.5;"/><text fill="#000000" font-family="Tahoma, sans-serif" font-size="12" lengthAdjust="spacingAndGlyphs" textLength="86" x="581.7159" y="382.9844">user.repository</text><!--MD5=[2026c0bd7f4956f7b059870106b72831]
entity _entities_Apartment--><rect fill="#F8F8F8" height="34.4844" rx="3" ry="3" style="stroke: #000000; stroke-width: 0.5;" width="125" x="899.5" y="324.999"/><text fill="#000000" font-family="Tahoma, sans-serif" font-size="12" lengthAdjust="spacingAndGlyphs" textLength="105" x="909.5" y="347.0049">entities/Apartment</text><!--MD5=[147a91f99759f6cb8c425b4553f458eb]
entity _entities_User--><rect fill="#F8F8F8" height="34.4844" rx="3" ry="3" style="stroke: #000000; stroke-width: 0.5;" width="93" x="1056.5" y="350.999"/><text fill="#000000" font-family="Tahoma, sans-serif" font-size="12" lengthAdjust="spacingAndGlyphs" textLength="73" x="1066.5" y="373.0049">entities/User</text><!--MD5=[6970322dd021e8bde36f20252f8dcdf3]
entity _EntityWithIdAndTimestamps--><rect fill="#F8F8F8" height="34.4844" rx="3" ry="3" style="stroke: #000000; stroke-width: 0.5;" width="180" x="1181.5" y="316.999"/><text fill="#000000" font-family="Tahoma, sans-serif" font-size="12" lengthAdjust="spacingAndGlyphs" textLength="160" x="1191.5" y="339.0049">EntityWithIdAndTimestamps</text><!--MD5=[df7b7da2504707e2c9c337bf9ecd3425]
entity _EventLog--><rect fill="#F8F8F8" height="34.4844" rx="3" ry="3" style="stroke: #000000; stroke-width: 0.5;" width="72" x="1067" y="282.999"/><text fill="#000000" font-family="Tahoma, sans-serif" font-size="12" lengthAdjust="spacingAndGlyphs" textLength="52" x="1077" y="305.0049">EventLog</text><!--MD5=[5db2b1664ab5bc39417f0b9baa7e0df5]
entity _ConflictError--><rect fill="#F8F8F8" height="34.4844" rx="3" ry="3" style="stroke: #000000; stroke-width: 0.5;" width="91" x="746.5" y="106.999"/><text fill="#000000" font-family="Tahoma, sans-serif" font-size="12" lengthAdjust="spacingAndGlyphs" textLength="71" x="756.5" y="129.0049">ConflictError</text><!--MD5=[7be7864177804c41bc362405513353e2]
entity _ForbiddenError--><rect fill="#F8F8F8" height="34.4844" rx="3" ry="3" style="stroke: #000000; stroke-width: 0.5;" width="103" x="740.5" y="56.999"/><text fill="#000000" font-family="Tahoma, sans-serif" font-size="12" lengthAdjust="spacingAndGlyphs" textLength="83" x="750.5" y="79.0049">ForbiddenError</text><!--MD5=[92f79613f4aed56de1922575dc6caf90]
entity _NotFoundError--><rect fill="#F8F8F8" height="34.4844" rx="3" ry="3" style="stroke: #000000; stroke-width: 0.5;" width="102" x="741" y="156.999"/><text fill="#000000" font-family="Tahoma, sans-serif" font-size="12" lengthAdjust="spacingAndGlyphs" textLength="82" x="751" y="179.0049">NotFoundError</text><!--MD5=[6cc8762ce868c43b85eddf0415429863]
link _apartment_controller to apartment.service--><path d="M309.162,635.656 C326.399,636.851 344.942,638.136 362.186,639.332 " fill="none" id="_apartment_controller-&gt;apartment.service" style="stroke: #000000; stroke-width: 0.5;"/><polygon fill="#000000" points="367.493,639.7,358.7911,635.0874,362.505,639.3543,358.238,643.0682,367.493,639.7" style="stroke: #000000; stroke-width: 0.5;"/><!--MD5=[0858b8ca08335c7aefde438a5d5b3e8c]
link _apartment_controller to auth.jwt--><path d="M309.326,639.204 C318.405,643.029 326.733,648.425 333,655.999 C347.212,673.175 324.863,740.618 341,755.999 C375.142,788.541 517.313,777.284 586.012,769.658 " fill="none" id="_apartment_controller-&gt;auth.jwt" style="stroke: #000000; stroke-width: 0.5;"/><polygon fill="#000000" points="591.229,769.07,581.8376,766.1032,586.2605,769.63,582.7336,774.0528,591.229,769.07" style="stroke: #000000; stroke-width: 0.5;"/><!--MD5=[c20c81bcba0db35d3dd628bd55f33ab8]
link _apartment_controller to _models_Apartment--><path d="M257.913,613.872 C276.014,595.761 307.439,568.28 341,556.999 C470.917,513.329 634.101,528.103 723.946,541.728 " fill="none" id="_apartment_controller-&gt;_models_Apartment" style="stroke: #000000; stroke-width: 0.5;"/><polygon fill="#000000" points="728.962,542.499,720.6729,537.1801,724.0199,541.7405,719.4594,545.0875,728.962,542.499" style="stroke: #000000; stroke-width: 0.5;"/><!--MD5=[73c167d7f6b01e3cd5d3d1c939817904]
link apartment.repository to _ConflictError--><path d="M632.798,314.943 C652.131,269.79 703.314,150.484 705,148.999 C715.096,140.11 728.19,134.373 741.103,130.674 " fill="none" id="apartment.repository-&gt;_ConflictError" style="stroke: #000000; stroke-width: 0.5;"/><polygon fill="#000000" points="746.229,129.306,736.5016,127.7638,741.3983,130.5962,738.5659,135.4929,746.229,129.306" style="stroke: #000000; stroke-width: 0.5;"/><!--MD5=[9e470a0f4cc480046c2336c3151c48bb]
link apartment.repository to _entities_Apartment--><path d="M696.651,334.12 C754.999,335.859 837,338.303 894.146,340.006 " fill="none" id="apartment.repository-&gt;_entities_Apartment" style="stroke: #000000; stroke-width: 0.5;"/><polygon fill="#000000" points="899.25,340.159,890.374,335.8908,894.2522,340.009,890.1341,343.8872,899.25,340.159" style="stroke: #000000; stroke-width: 0.5;"/><!--MD5=[e8795b8090cf0242c71807e88ceeb1cb]
link apartment.repository to _entities_User--><path d="M674.075,319.578 C752.042,301.96 908.943,276.128 1033,316.999 C1051.34,323.04 1068.79,336.034 1081.56,347.394 " fill="none" id="apartment.repository-&gt;_entities_User" style="stroke: #000000; stroke-width: 0.5;"/><polygon fill="#000000" points="1085.36,350.857,1081.3843,341.8462,1081.6577,347.4965,1076.0075,347.7699,1085.36,350.857" style="stroke: #000000; stroke-width: 0.5;"/><!--MD5=[86a44cc1d310c16ba3be45a680fb52f3]
link apartment.repository to _EventLog--><path d="M636.271,315.172 C649.691,295.948 674.6,265.535 705,252.999 C839.769,197.425 893.689,210.06 1033,252.999 C1050.05,258.254 1066.65,269.321 1079.3,279.396 " fill="none" id="apartment.repository-&gt;_EventLog" style="stroke: #000000; stroke-width: 0.5;"/><polygon fill="#000000" points="1083.43,282.765,1078.9784,273.9796,1079.5534,279.6071,1073.9259,280.1821,1083.43,282.765" style="stroke: #000000; stroke-width: 0.5;"/><!--MD5=[97cf82831260f4f162dd76ce4bed58f3]
link apartment.repository to _ForbiddenError--><path d="M630.39,314.741 C645.055,263.462 688.657,114.608 705,98.999 C713.461,90.918 724.379,85.427 735.578,81.703 " fill="none" id="apartment.repository-&gt;_ForbiddenError" style="stroke: #000000; stroke-width: 0.5;"/><polygon fill="#000000" points="740.388,80.212,730.6073,79.0554,735.6121,81.6921,732.9754,86.6969,740.388,80.212" style="stroke: #000000; stroke-width: 0.5;"/><!--MD5=[8f91c3bb19418fbc6b7e609ed91061ae]
link apartment.repository to _models_Apartment--><path d="M678.837,343.26 C685.731,346.691 692.088,351.165 697,356.999 C710.929,373.544 697.7,384.641 705,404.999 C722.417,453.569 755.491,504.441 775.159,532.389 " fill="none" id="apartment.repository-&gt;_models_Apartment" style="stroke: #000000; stroke-width: 0.5;"/><polygon fill="#000000" points="778.196,536.673,776.2557,527.0172,775.305,532.5936,769.7286,531.6428,778.196,536.673" style="stroke: #000000; stroke-width: 0.5;"/><!--MD5=[2465742c29a1644b6e96ddf45d163fb5]
link apartment.repository to morphism--><path d="M675.605,344.109 C700.193,350.052 729.362,357.102 752.221,362.627 " fill="none" id="apartment.repository-&gt;morphism" style="stroke: #000000; stroke-width: 0.5; stroke-dasharray: 7.0,7.0;"/><polygon fill="#000000" points="757.295,363.853,749.4862,357.8511,752.4349,362.6787,747.6073,365.6273,757.295,363.853" style="stroke: #000000; stroke-width: 0.5;"/><!--MD5=[2952776b15c6dbe5a1b163b1aff2571a]
link apartment.service to apartment.repository--><path d="M431.854,628.22 C433.823,579.968 446.552,433.064 528,356.999 C535.427,350.063 544.538,344.998 554.153,341.311 " fill="none" id="apartment.service-&gt;apartment.repository" style="stroke: #000000; stroke-width: 0.5;"/><polygon fill="#000000" points="558.908,339.609,549.0866,338.874,554.2001,341.293,551.7811,346.4066,558.908,339.609" style="stroke: #000000; stroke-width: 0.5;"/><!--MD5=[cfc65d6c0cae18dcf3e5ca14ec95ff72]
link apartment.service to _models_Apartment--><path d="M476.304,632.783 C538.432,617.229 651.248,588.986 723.574,570.879 " fill="none" id="apartment.service-&gt;_models_Apartment" style="stroke: #000000; stroke-width: 0.5;"/><polygon fill="#000000" points="728.71,569.593,719.008,567.8986,723.8597,570.8074,720.951,575.6591,728.71,569.593" style="stroke: #000000; stroke-width: 0.5;"/><!--MD5=[aaf6bb04ec7f0ad0e7dffbf36b8a8be6]
link _auth_controller to _Auth--><path d="M292.869,727.949 C307.921,724.47 323.025,717.947 333,705.999 C345.869,690.586 326.369,629.75 341,615.999 C402.141,558.536 677.3,589.026 764.444,600.353 " fill="none" id="_auth_controller-&gt;_Auth" style="stroke: #000000; stroke-width: 0.5;"/><polygon fill="#000000" points="769.425,601.006,761.0227,595.8678,764.4676,600.3547,759.9807,603.7996,769.425,601.006" style="stroke: #000000; stroke-width: 0.5;"/><!--MD5=[d54f8a898f2b2f93b3b33fade19514d3]
link _auth_controller to auth.service--><path d="M292.74,730.999 C317.651,730.999 347.734,730.999 373.336,730.999 " fill="none" id="_auth_controller-&gt;auth.service" style="stroke: #000000; stroke-width: 0.5;"/><polygon fill="#000000" points="378.394,730.999,369.394,726.999,373.394,730.999,369.394,734.999,378.394,730.999" style="stroke: #000000; stroke-width: 0.5;"/><!--MD5=[562c46d0512001f86390504dff043105]
link _auth_controller to logger--><path d="M251.792,748.129 C267.114,772.982 299.363,818.031 341,835.999 C489.348,900.018 691.242,845.763 763.714,822.411 " fill="none" id="_auth_controller-&gt;logger" style="stroke: #000000; stroke-width: 0.5;"/><polygon fill="#000000" points="768.706,820.785,758.9097,819.769,763.9518,822.3335,761.3873,827.3757,768.706,820.785" style="stroke: #000000; stroke-width: 0.5;"/><!--MD5=[ecf665690994ec38d147c4b7fde8bd06]
link _auth_controller to user.service--><path d="M292.74,719.633 C321.941,713.092 358.249,704.959 386.114,698.718 " fill="none" id="_auth_controller-&gt;user.service" style="stroke: #000000; stroke-width: 0.5;"/><polygon fill="#000000" points="391.216,697.575,381.5594,695.6385,386.3369,698.6677,383.3077,703.4451,391.216,697.575" style="stroke: #000000; stroke-width: 0.5;"/><!--MD5=[572c719d8e046331fbd67b721e6b8c15]
link auth.jwt to _Auth--><path d="M639.156,753.009 C653.707,740.137 677.309,718.973 697,699.999 C723.14,674.81 752.237,644.769 771.035,625.084 " fill="none" id="auth.jwt-&gt;_Auth" style="stroke: #000000; stroke-width: 0.5;"/><polygon fill="#000000" points="774.653,621.29,765.5475,625.0437,771.2028,624.9088,771.3376,630.5641,774.653,621.29" style="stroke: #000000; stroke-width: 0.5;"/><!--MD5=[d2d7d09a7514e225210c9e2c095de26d]
link auth.jwt to logger--><path d="M652.829,772.925 C683.118,781.71 731.742,795.813 762.496,804.732 " fill="none" id="auth.jwt-&gt;logger" style="stroke: #000000; stroke-width: 0.5; stroke-dasharray: 7.0,7.0;"/><polygon fill="#000000" points="767.647,806.226,760.116,799.879,762.8446,804.8343,757.8893,807.5628,767.647,806.226" style="stroke: #000000; stroke-width: 0.5;"/><!--MD5=[224bc9a7bec10d656533ed895f4a5b22]
link auth.jwt to _models_User--><path d="M653.726,757.546 C701.175,744.069 798.496,712.291 867.5,661.999 C900.896,637.659 930.43,599.249 946.981,575.397 " fill="none" id="auth.jwt-&gt;_models_User" style="stroke: #000000; stroke-width: 0.5;"/><polygon fill="#000000" points="949.918,571.12,941.526,576.2751,947.0877,575.2418,948.121,580.8035,949.918,571.12" style="stroke: #000000; stroke-width: 0.5;"/><!--MD5=[32ca86990d707716a406822f99e0a40d]
link auth.service to _Auth--><path d="M471.471,722.762 C486.78,719.283 504.325,714.898 520,709.999 C611.605,681.37 716.491,636.857 764.5,615.801 " fill="none" id="auth.service-&gt;_Auth" style="stroke: #000000; stroke-width: 0.5;"/><polygon fill="#000000" points="769.242,613.717,759.3932,613.6759,764.6645,615.7286,762.6118,620.9999,769.242,613.717" style="stroke: #000000; stroke-width: 0.5;"/><!--MD5=[9e9f16af2e1b4bb8d9144e8ef5210e61]
link auth.service to auth.jwt--><path d="M473.635,738.461 C507.689,744.491 555.114,752.889 587.433,758.612 " fill="none" id="auth.service-&gt;auth.jwt" style="stroke: #000000; stroke-width: 0.5;"/><polygon fill="#000000" points="592.486,759.507,584.3226,753.9972,587.5628,758.6341,582.9259,761.8743,592.486,759.507" style="stroke: #000000; stroke-width: 0.5;"/><!--MD5=[1383f3e222429f0733e643250a9c4b0e]
link auth.service to user.repository--><path d="M481.83,728.827 C495.813,725.844 509.912,720.233 520,709.999 C531.506,698.327 523.693,689.814 528,673.999 C556.796,568.257 600.188,444.135 616.75,397.739 " fill="none" id="auth.service-&gt;user.repository" style="stroke: #000000; stroke-width: 0.5;"/><polygon fill="#000000" points="618.451,392.981,611.6547,400.1091,616.7678,397.6892,619.1877,402.8023,618.451,392.981" style="stroke: #000000; stroke-width: 0.5;"/><!--MD5=[b5c23d07f236d1178bc1899d3effdd89]
link _entities_Apartment to _entities_User--><path d="M1024.78,353.555 C1033.54,355.194 1042.48,356.865 1051.01,358.461 " fill="none" id="_entities_Apartment-&gt;_entities_User" style="stroke: #000000; stroke-width: 0.5; stroke-dasharray: 7.0,7.0;"/><polygon fill="#000000" points="1056.26,359.444,1048.1432,353.8657,1051.3443,358.5297,1046.6803,361.7308,1056.26,359.444" style="stroke: #000000; stroke-width: 0.5;"/><!--MD5=[24755b029eafb07319e502a30c0f7013]
link _entities_Apartment to _EntityWithIdAndTimestamps--><path d="M1024.86,340.39 C1068.26,339.261 1127.11,337.73 1176.32,336.449 " fill="none" id="_entities_Apartment-&gt;_EntityWithIdAndTimestamps" style="stroke: #000000; stroke-width: 0.5; stroke-dasharray: 7.0,7.0;"/><polygon fill="#000000" points="1181.35,336.318,1172.2501,332.5507,1176.3517,336.4466,1172.4558,340.5481,1181.35,336.318" style="stroke: #000000; stroke-width: 0.5;"/><!--MD5=[d80f597ef9c43ab3fc662f9b7fe01968]
link _entities_User to _EntityWithIdAndTimestamps--><path d="M1149.94,358.619 C1159.95,356.573 1170.88,354.342 1181.93,352.085 " fill="none" id="_entities_User-&gt;_EntityWithIdAndTimestamps" style="stroke: #000000; stroke-width: 0.5; stroke-dasharray: 7.0,7.0;"/><polygon fill="#000000" points="1187.01,351.047,1177.3918,348.928,1182.111,352.0471,1178.9919,356.7663,1187.01,351.047" style="stroke: #000000; stroke-width: 0.5;"/><!--MD5=[2d6b21759ce17737018b6286045c33fa]
link _EventLog to _EntityWithIdAndTimestamps--><path d="M1139.31,307.21 C1151.92,309.784 1166.75,312.813 1181.82,315.89 " fill="none" id="_EventLog-&gt;_EntityWithIdAndTimestamps" style="stroke: #000000; stroke-width: 0.5; stroke-dasharray: 7.0,7.0;"/><polygon fill="#000000" points="1186.94,316.935,1178.9216,311.2161,1182.041,315.9352,1177.3219,319.0546,1186.94,316.935" style="stroke: #000000; stroke-width: 0.5;"/><!--MD5=[6a9264a88048c69b2db5861303b4aafb]
link _models_Apartment to _models_User--><path d="M855.08,553.999 C873.038,553.999 892.433,553.999 909.658,553.999 " fill="none" id="_models_Apartment-&gt;_models_User" style="stroke: #000000; stroke-width: 0.5; stroke-dasharray: 7.0,7.0;"/><polygon fill="#000000" points="914.93,553.999,905.93,549.999,909.93,553.999,905.93,557.999,914.93,553.999" style="stroke: #000000; stroke-width: 0.5;"/><!--MD5=[bf48f4a3dc79b8f10981de1ead7d3681]
link morphism to _entities_Apartment--><path d="M830.285,365.341 C849.158,361.971 872.644,357.777 894.481,353.878 " fill="none" id="morphism-&gt;_entities_Apartment" style="stroke: #000000; stroke-width: 0.5;"/><polygon fill="#000000" points="899.404,352.998,889.8411,350.6419,894.4818,353.8767,891.247,358.5174,899.404,352.998" style="stroke: #000000; stroke-width: 0.5;"/><!--MD5=[c0f0c8450acf0888217b388420ca389b]
link morphism to _entities_User--><path d="M835.965,371.443 C892.305,370.714 991.015,369.436 1051.06,368.659 " fill="none" id="morphism-&gt;_entities_User" style="stroke: #000000; stroke-width: 0.5;"/><polygon fill="#000000" points="1056.39,368.59,1047.3338,364.719,1051.3905,368.6614,1047.4481,372.7182,1056.39,368.59" style="stroke: #000000; stroke-width: 0.5;"/><!--MD5=[aaebf74186cbd7b1784767b0025a23ce]
link morphism to _models_Apartment--><path d="M792,385.207 C792,434.104 792,483.002 792,531.899 " fill="none" id="morphism-&gt;_models_Apartment" style="stroke: #000000; stroke-width: 0.5;"/><polygon fill="#000000" points="792,536.937,796,527.937,792,531.937,788,527.937,792,536.937" style="stroke: #000000; stroke-width: 0.5;"/><!--MD5=[b76f915cdf162f498512ffc51b497efc]
link morphism to _models_User--><path d="M810.585,383.993 C826.366,395.19 849.713,412.856 867.5,430.999 C899.274,463.41 929.894,506.713 947.003,532.349 " fill="none" id="morphism-&gt;_models_User" style="stroke: #000000; stroke-width: 0.5;"/><polygon fill="#000000" points="949.835,536.616,948.1917,526.9052,947.0704,532.4498,941.5258,531.3286,949.835,536.616" style="stroke: #000000; stroke-width: 0.5;"/><!--MD5=[afa5ff013eb80bbadf484fee2552db1b]
link routes to _apartment_controller--><path d="M100.6708,651.982 C118.896,649.238 143.981,645.46 167.849,641.865 " fill="none" id="routes-&gt;_apartment_controller" style="stroke: #000000; stroke-width: 0.5;"/><polygon fill="#000000" points="172.921,641.101,163.4258,638.4853,167.9767,641.8453,164.6167,646.3962,172.921,641.101" style="stroke: #000000; stroke-width: 0.5;"/><!--MD5=[a6574b0883c99c33d1c1e34f472f0782]
link routes to _auth_controller--><path d="M87.8496,667.225 C102.3235,678.461 126.078,695.541 149,705.999 C160.086,711.057 172.412,715.287 184.32,718.742 " fill="none" id="routes-&gt;_auth_controller" style="stroke: #000000; stroke-width: 0.5;"/><polygon fill="#000000" points="189.394,720.175,181.8213,713.8778,184.5825,718.815,179.6453,721.5762,189.394,720.175" style="stroke: #000000; stroke-width: 0.5;"/><!--MD5=[562440ee5b2be334a30381992739c0d2]
link routes to auth.jwt--><path d="M75.9485,668.952 C83.203,715.257 110.237,871.361 149,899.9992 C281.621,997.9791 399.394,1012.4382 520,899.9992 C538.575,882.682 511.404,805.222 528,785.999 C541.807,770.008 564.759,764.601 584.703,763.268 " fill="none" id="routes-&gt;auth.jwt" style="stroke: #000000; stroke-width: 0.5;"/><polygon fill="#000000" points="589.701,763.013,580.5092,759.476,584.7075,763.2673,580.9161,767.4656,589.701,763.013" style="stroke: #000000; stroke-width: 0.5;"/><!--MD5=[c3d2556c4d629c2bc3d7bb124fdead71]
link routes to _user_controller--><path d="M100.6708,660.016 C123.103,663.394 155.93,668.338 184.086,672.578 " fill="none" id="routes-&gt;_user_controller" style="stroke: #000000; stroke-width: 0.5;"/><polygon fill="#000000" points="189.285,673.361,180.9807,668.0658,184.3407,672.6167,179.7898,675.9767,189.285,673.361" style="stroke: #000000; stroke-width: 0.5;"/><!--MD5=[58b1ddf9e3fd87978458e42747798e8d]
link <b>server</b> to _Auth--><path d="M99.2851,606.392 C185.159,581.803 472.747,509.684 697,573.999 C701.03,575.155 701.173,577.287 705,578.999 C724.036,587.517 746.732,593.972 764.027,598.187 " fill="none" id="&lt;b&gt;server&lt;/b&gt;-&gt;_Auth" style="stroke: #000000; stroke-width: 1.0;"/><polygon fill="#000000" points="769.211,599.424,761.3844,593.4454,764.3474,598.2642,759.5286,601.2272,769.211,599.424" style="stroke: #000000; stroke-width: 1.0;"/><!--MD5=[322b45c47471d12b6d49db8397c5ba50]
link <b>server</b> to auth.jwt--><path d="M104.7087,616.058 C117.945,618.614 132.344,623.972 141,634.999 C158.186,656.894 132.626,737.49 149,759.999 C202.987,834.216 250.85,818.806 341,835.999 C419.147,850.903 459.465,887.6187 520,835.999 C537.124,821.397 512.553,802.366 528,785.999 C542.165,770.991 564.414,765.501 583.873,763.874 " fill="none" id="&lt;b&gt;server&lt;/b&gt;-&gt;auth.jwt" style="stroke: #000000; stroke-width: 1.0;"/><polygon fill="#000000" points="589.279,763.513,580.0317,760.1237,584.2902,763.8473,580.5666,768.1058,589.279,763.513" style="stroke: #000000; stroke-width: 1.0;"/><!--MD5=[77536e868cf4e454083c3b0d17a20bfc]
link <b>server</b> to _ConflictError--><path d="M74.1674,600.937 C75.3612,559.083 84.3253,426.36 149,345.999 C299.818,158.604 617.855,128.895 740.907,124.56 " fill="none" id="&lt;b&gt;server&lt;/b&gt;-&gt;_ConflictError" style="stroke: #000000; stroke-width: 1.0;"/><polygon fill="#000000" points="746.265,124.383,737.1374,120.6835,741.2677,124.5487,737.4025,128.6791,746.265,124.383" style="stroke: #000000; stroke-width: 1.0;"/><!--MD5=[910e6d06f5b073179b312580a505be79]
link <b>server</b> to _ForbiddenError--><path d="M75.3395,600.911 C81.3428,544.39 107.315,321.635 149,266.999 C291.048,80.819 606.407,68.078 734.887,71.152 " fill="none" id="&lt;b&gt;server&lt;/b&gt;-&gt;_ForbiddenError" style="stroke: #000000; stroke-width: 1.0;"/><polygon fill="#000000" points="740.121,71.289,731.228,67.0564,735.1227,71.159,731.02,75.0537,740.121,71.289" style="stroke: #000000; stroke-width: 1.0;"/><!--MD5=[5dcf67e50701372d1e4b38ad174e1bd8]
link <b>server</b> to logger--><path d="M104.8883,615.919 C118.162,618.447 132.542,623.82 141,634.999 C150.456,647.498 137.762,906.075 149,916.9992 C329.738,1092.683 683.434,882.895 771.02,826.31 " fill="none" id="&lt;b&gt;server&lt;/b&gt;-&gt;logger" style="stroke: #000000; stroke-width: 1.0;"/><polygon fill="#000000" points="775.226,823.578,765.4998,825.1274,771.0333,826.3022,769.8585,831.8357,775.226,823.578" style="stroke: #000000; stroke-width: 1.0;"/><!--MD5=[918f1540acef5cbfe8e12ed9833e65d6]
link <b>server</b> to _models_User--><path d="M86.9427,602.026 C101.0508,589.739 124.854,571.163 149,561.999 C219.558,535.221 622.189,515.953 705,512.999 C777.176,510.425 796.814,498.182 867.5,512.999 C887.797,517.254 909.071,526.183 926.19,534.626 " fill="none" id="&lt;b&gt;server&lt;/b&gt;-&gt;_models_User" style="stroke: #000000; stroke-width: 1.0;"/><polygon fill="#000000" points="930.904,536.99,924.6518,529.3802,926.4344,534.7488,921.0658,536.5315,930.904,536.99" style="stroke: #000000; stroke-width: 1.0;"/><!--MD5=[1094dcf80147bc5f4a5a62d27035b42e]
link <b>server</b> to _NotFoundError--><path d="M75.4629,600.77 C79.9471,566.391 96.5488,473.274 149,420.999 C317.737,252.828 613.331,196.766 735.62,180.21 " fill="none" id="&lt;b&gt;server&lt;/b&gt;-&gt;_NotFoundError" style="stroke: #000000; stroke-width: 1.0;"/><polygon fill="#000000" points="740.604,179.544,731.1539,176.7698,735.6479,180.2055,732.2123,184.6995,740.604,179.544" style="stroke: #000000; stroke-width: 1.0;"/><!--MD5=[b5550d8c7cbc955c7a41f0bf9d55f796]
link <b>server</b> to routes--><path d="M73,627.083 C73,630.537 73,633.992 73,637.446 " fill="none" id="&lt;b&gt;server&lt;/b&gt;-&gt;routes" style="stroke: #000000; stroke-width: 1.0; stroke-dasharray: 7.0,7.0;"/><polygon fill="#000000" points="73,642.874,77,633.874,73,637.874,69,633.874,73,642.874" style="stroke: #000000; stroke-width: 1.0;"/><!--MD5=[b7da318761176cd6308606b45640b193]
link <b>server</b> to _TypeORMLogger--><path d="M104.8324,615.962 C118.095,618.498 132.48,623.867 141,634.999 C154.719,652.925 133.902,821.219 149,837.999 C259.603,960.9229 359.549,905.9835 520,865.999 C547.167,859.229 575.03,843.848 594.993,831.068 " fill="none" id="&lt;b&gt;server&lt;/b&gt;-&gt;_TypeORMLogger" style="stroke: #000000; stroke-width: 1.0;"/><polygon fill="#000000" points="599.383,828.218,589.6562,829.7635,595.1892,830.9405,594.0122,836.4736,599.383,828.218" style="stroke: #000000; stroke-width: 1.0;"/><!--MD5=[e740ba654b198251af9249c33f84db62]
link _TypeORMLogger to logger--><path d="M680.609,811.665 C706.377,811.977 736.184,812.337 758.326,812.604 " fill="none" id="_TypeORMLogger-&gt;logger" style="stroke: #000000; stroke-width: 0.5; stroke-dasharray: 7.0,7.0;"/><polygon fill="#000000" points="763.497,812.667,754.5456,808.5593,758.4974,812.607,754.4497,816.5587,763.497,812.667" style="stroke: #000000; stroke-width: 0.5;"/><!--MD5=[f9d07b912afd61cfb43e6511e1d68859]
link _user_controller to auth.jwt--><path d="M292.883,684.038 C307.935,687.516 323.036,694.042 333,705.999 C346.137,721.765 325.874,784.131 341,797.999 C399.64,851.762 449.858,835.538 520,797.999 C525.651,794.975 522.708,789.616 528,785.999 C544.525,774.703 566.088,769.358 584.542,766.878 " fill="none" id="_user_controller-&gt;auth.jwt" style="stroke: #000000; stroke-width: 0.5;"/><polygon fill="#000000" points="589.658,766.252,580.2389,763.3745,584.695,766.8592,581.2103,771.3153,589.658,766.252" style="stroke: #000000; stroke-width: 0.5;"/><!--MD5=[0fb2ab3080e68b16e7150866435982e3]
link _user_controller to _models_User--><path d="M292.692,677.799 C307.733,674.311 322.875,667.821 333,655.999 C353.369,632.216 319.323,608.596 341,585.999 C454.359,467.831 541.744,541.704 705,528.999 C777.005,523.396 795.893,519.591 867.5,528.999 C881.447,530.832 896.272,534.139 909.908,537.761 " fill="none" id="_user_controller-&gt;_models_User" style="stroke: #000000; stroke-width: 0.5;"/><polygon fill="#000000" points="914.874,539.108,907.2346,532.892,910.0483,537.7994,905.1408,540.6131,914.874,539.108" style="stroke: #000000; stroke-width: 0.5;"/><!--MD5=[097b81be3c6bf7c7e3a5dba365f1a503]
link _user_controller to user.service--><path d="M292.74,683.164 C317.854,684.236 348.226,685.531 373.962,686.63 " fill="none" id="_user_controller-&gt;user.service" style="stroke: #000000; stroke-width: 0.5;"/><polygon fill="#000000" points="379.044,686.846,370.2237,682.464,374.0486,686.6317,369.8809,690.4566,379.044,686.846" style="stroke: #000000; stroke-width: 0.5;"/><!--MD5=[91323e5e891003a8aa47e6c2bae4dadc]
link user.repository to _entities_User--><path d="M669.472,388.151 C680.981,390.159 693.412,391.987 705,392.999 C829.125,403.845 975.48,386.986 1051.08,376.086 " fill="none" id="user.repository-&gt;_entities_User" style="stroke: #000000; stroke-width: 0.5;"/><polygon fill="#000000" points="1056.4,375.312,1046.9209,372.6388,1051.4513,376.0263,1048.0638,380.5567,1056.4,375.312" style="stroke: #000000; stroke-width: 0.5;"/><!--MD5=[8b3a2cc741c76eb341206bb75debbab7]
link user.repository to _EventLog--><path d="M666.539,369.022 C676.763,365.826 687.51,361.832 697,356.999 C700.961,354.982 700.942,352.812 705,350.999 C826.13,296.882 987.391,295.118 1061.56,297.719 " fill="none" id="user.repository-&gt;_EventLog" style="stroke: #000000; stroke-width: 0.5;"/><polygon fill="#000000" points="1066.74,297.913,1057.8948,293.5815,1061.7434,297.7273,1057.5977,301.576,1066.74,297.913" style="stroke: #000000; stroke-width: 0.5;"/><!--MD5=[268a1c9652f8bd851d1a6e5346c68370]
link user.repository to _models_User--><path d="M645.718,392.067 C661.381,401.719 683.898,414.59 705,422.999 C774.296,450.613 802.282,428.789 867.5,464.999 C898.727,482.337 927.311,512.582 944.441,532.943 " fill="none" id="user.repository-&gt;_models_User" style="stroke: #000000; stroke-width: 0.5;"/><polygon fill="#000000" points="947.711,536.877,945.0316,527.3996,944.5139,533.0327,938.8808,532.515,947.711,536.877" style="stroke: #000000; stroke-width: 0.5;"/><!--MD5=[95856996a77ffb7d8a219ce1a998e169]
link user.repository to morphism--><path d="M682.919,376.571 C702.547,375.74 724.279,374.821 743.077,374.026 " fill="none" id="user.repository-&gt;morphism" style="stroke: #000000; stroke-width: 0.5; stroke-dasharray: 7.0,7.0;"/><polygon fill="#000000" points="748.297,373.805,739.1359,370.1891,743.3015,374.0164,739.4742,378.182,748.297,373.805" style="stroke: #000000; stroke-width: 0.5;"/><!--MD5=[377b8237ad725c1771be360cf8bd3c66]
link user.repository to _NotFoundError--><path d="M675.417,371.824 C683.668,368.53 691.358,363.793 697,356.999 C707.003,344.954 699.161,301.526 705,286.999 C719.541,250.821 748.939,216.215 769.287,195.047 " fill="none" id="user.repository-&gt;_NotFoundError" style="stroke: #000000; stroke-width: 0.5;"/><polygon fill="#000000" points="772.976,191.254,763.8345,194.9192,769.4908,194.8392,769.5708,200.4955,772.976,191.254" style="stroke: #000000; stroke-width: 0.5;"/><!--MD5=[b64e42995474d859eb56ab10f112be97]
link user.service to _models_User--><path d="M482.188,690.596 C565.948,691.396 736.957,685.179 867.5,628.999 C896.466,616.533 923.902,592.545 941.47,575.045 " fill="none" id="user.service-&gt;_models_User" style="stroke: #000000; stroke-width: 0.5;"/><polygon fill="#000000" points="945.283,571.193,936.1093,574.7768,941.7661,574.7471,941.7958,580.4038,945.283,571.193" style="stroke: #000000; stroke-width: 0.5;"/><!--MD5=[063e2d6f822dd6550b1063ec9215e714]
link user.service to user.repository--><path d="M481.663,686.66 C495.641,683.672 509.778,678.099 520,667.999 C530.428,657.695 523.662,650.003 528,635.999 C556.082,545.339 598.355,439.994 615.676,397.84 " fill="none" id="user.service-&gt;user.repository" style="stroke: #000000; stroke-width: 0.5;"/><polygon fill="#000000" points="617.662,393.018,610.5356,399.8161,615.7576,397.6411,617.9326,402.8631,617.662,393.018" style="stroke: #000000; stroke-width: 0.5;"/><script type="text/plantuml"><![CDATA[MD5=[eb28567f92fc93af8b70367fd30e7e6a]
@startuml

scale max 1920 width
left to right direction

skinparam nodesep 16
skinparam ranksep 32
skinparam monochrome true
skinparam shadowing false
skinparam defaultFontName Tahoma
skinparam defaultFontSize 12
skinparam roundCorner 6
skinparam dpi 150
skinparam arrowColor black
skinparam arrowThickness 0.5
skinparam packageTitleAlignment left

skinparam usecase {
  borderThickness 0.5
}

skinparam rectangle {
  borderThickness 0.5
}

skinparam component {
  borderThickness 1
}


package "Server & Router" {
  (routes)
  (<b>server</b>)
}

package "Controllers" {
  rectangle "apartment.controller" as _apartment_controller
  rectangle "auth.controller" as _auth_controller
  rectangle "user.controller" as _user_controller
}

package "Middlewares" {
  (auth.jwt)
  (logger)
  rectangle "TypeORMLogger" as _TypeORMLogger
}

package "Models" {
  rectangle "Auth" as _Auth
  rectangle "models/Apartment" as _models_Apartment
  rectangle "models/User" as _models_User
}

package "Services" {
  (apartment.service)
  (auth.service)
  (user.service)
}

package "Repositories" {
  (apartment.repository)
  (morphism)
  (user.repository)
}

package "Entities" {
  rectangle "entities/Apartment" as _entities_Apartment
  rectangle "entities/User" as _entities_User
  rectangle "EntityWithIdAndTimestamps" as _EntityWithIdAndTimestamps
  rectangle "EventLog" as _EventLog
}

package "Errors" {
  rectangle "ConflictError" as _ConflictError
  rectangle "ForbiddenError" as _ForbiddenError
  rectangle "NotFoundError" as _NotFoundError
}

_apartment_controller --> (apartment.service)
_apartment_controller --> (auth.jwt)
_apartment_controller --> _models_Apartment
(apartment.repository) --> _ConflictError
(apartment.repository) --> _entities_Apartment
(apartment.repository) --> _entities_User
(apartment.repository) --> _EventLog
(apartment.repository) --> _ForbiddenError
(apartment.repository) --> _models_Apartment
(apartment.repository) ..> (morphism)
(apartment.service) --> (apartment.repository)
(apartment.service) --> _models_Apartment
_auth_controller --> _Auth
_auth_controller --> (auth.service)
_auth_controller --> (logger)
_auth_controller --> (user.service)
(auth.jwt) --> _Auth
(auth.jwt) ..> (logger)
(auth.jwt) --> _models_User
(auth.service) --> _Auth
(auth.service) --> (auth.jwt)
(auth.service) --> (user.repository)
_entities_Apartment ..> _entities_User
_entities_Apartment ..> _EntityWithIdAndTimestamps
_entities_User ..> _EntityWithIdAndTimestamps
_EventLog ..> _EntityWithIdAndTimestamps
_models_Apartment ..> _models_User
(morphism) --> _entities_Apartment
(morphism) --> _entities_User
(morphism) --> _models_Apartment
(morphism) --> _models_User
(routes) --> _apartment_controller
(routes) --> _auth_controller
(routes) --> (auth.jwt)
(routes) --> _user_controller
(<b>server</b>) -[thickness=1]> _Auth
(<b>server</b>) -[thickness=1]> (auth.jwt)
(<b>server</b>) -[thickness=1]> _ConflictError
(<b>server</b>) -[thickness=1]> _ForbiddenError
(<b>server</b>) -[thickness=1]> (logger)
(<b>server</b>) -[thickness=1]> _models_User
(<b>server</b>) -[thickness=1]> _NotFoundError
(<b>server</b>) .[thickness=1]> (routes)
(<b>server</b>) -[thickness=1]> _TypeORMLogger
_TypeORMLogger ..> (logger)
_user_controller --> (auth.jwt)
_user_controller --> _models_User
_user_controller --> (user.service)
(user.repository) --> _entities_User
(user.repository) --> _EventLog
(user.repository) --> _models_User
(user.repository) ..> (morphism)
(user.repository) --> _NotFoundError
(user.service) --> _models_User
(user.service) --> (user.repository)

@enduml


' View and edit on https://arkit.pro
]]></script></g></svg>