<?xml version="1.0" encoding="UTF-8" standalone="no"?><svg xmlns="http://www.w3.org/2000/svg" xmlns:xlink="http://www.w3.org/1999/xlink" contentScriptType="application/ecmascript" contentStyleType="text/css" height="598px" preserveAspectRatio="none" style="width:731px;height:598px;" version="1.1" viewBox="0 0 731 598" width="731px" zoomAndPan="magnify"><defs/><g><!--MD5=[81da1a12a6ffceb0b7ff692a5ac8efc2]
cluster Server & Router--><path d="M409.051,24 L512.051,24 A4.5,4.5 0 0 1 515.051,27 L522.051,44.4844 L571.051,44.4844 A3,3 0 0 1 574.051,47.4844 L574.051,96 A3,3 0 0 1 571.051,99 L409.051,99 A3,3 0 0 1 406.051,96 L406.051,27 A3,3 0 0 1 409.051,24 " fill="#FFFFFF" style="stroke: #000000; stroke-width: 1.5;"/><line style="stroke: #000000; stroke-width: 1.5;" x1="406.051" x2="522.051" y1="44.4844" y2="44.4844"/><text fill="#000000" font-family="Tahoma, sans-serif" font-size="12" font-weight="bold" lengthAdjust="spacingAndGlyphs" textLength="103" x="410.051" y="38.0059">Server &amp; Router</text><!--MD5=[ed1d20ea533a2a0e7df5ba3c35e56ced]
cluster Controllers--><path d="M119.051,123 L193.051,123 A4.5,4.5 0 0 1 196.051,126 L203.051,143.4844 L516.051,143.4844 A3,3 0 0 1 519.051,146.4844 L519.051,203 A3,3 0 0 1 516.051,206 L119.051,206 A3,3 0 0 1 116.051,203 L116.051,126 A3,3 0 0 1 119.051,123 " fill="#FFFFFF" style="stroke: #000000; stroke-width: 1.5;"/><line style="stroke: #000000; stroke-width: 1.5;" x1="116.051" x2="203.051" y1="143.4844" y2="143.4844"/><text fill="#000000" font-family="Tahoma, sans-serif" font-size="12" font-weight="bold" lengthAdjust="spacingAndGlyphs" textLength="74" x="120.051" y="137.0059">Controllers</text><!--MD5=[01444e0f60f2f1f3466acc3cffdc895e]
cluster Middlewares--><path d="M484.051,230 L565.051,230 A4.5,4.5 0 0 1 568.051,233 L575.051,250.4844 L706.051,250.4844 A3,3 0 0 1 709.051,253.4844 L709.051,409 A3,3 0 0 1 706.051,412 L484.051,412 A3,3 0 0 1 481.051,409 L481.051,233 A3,3 0 0 1 484.051,230 " fill="#FFFFFF" style="stroke: #000000; stroke-width: 1.5;"/><line style="stroke: #000000; stroke-width: 1.5;" x1="481.051" x2="575.051" y1="250.4844" y2="250.4844"/><text fill="#000000" font-family="Tahoma, sans-serif" font-size="12" font-weight="bold" lengthAdjust="spacingAndGlyphs" textLength="81" x="485.051" y="244.0059">Middlewares</text><!--MD5=[027ebfd53c01aea08f474edbf35d0797]
cluster Models--><path d="M62.0507,333 L109.0507,333 A4.5,4.5 0 0 1 112.0507,336 L119.0507,353.4844 L274.051,353.4844 A3,3 0 0 1 277.051,356.4844 L277.051,517 A3,3 0 0 1 274.051,520 L62.0507,520 A3,3 0 0 1 59.0507,517 L59.0507,336 A3,3 0 0 1 62.0507,333 " fill="#FFFFFF" style="stroke: #000000; stroke-width: 1.5;"/><line style="stroke: #000000; stroke-width: 1.5;" x1="59.0507" x2="119.0507" y1="353.4844" y2="353.4844"/><text fill="#000000" font-family="Tahoma, sans-serif" font-size="12" font-weight="bold" lengthAdjust="spacingAndGlyphs" textLength="47" x="63.0507" y="347.0059">Models</text><!--MD5=[cdfd548b3455e70392372b1f27091970]
cluster Services--><path d="M200.051,234 L257.051,234 A4.5,4.5 0 0 1 260.051,237 L267.051,254.4844 L448.051,254.4844 A3,3 0 0 1 451.051,257.4844 L451.051,306 A3,3 0 0 1 448.051,309 L200.051,309 A3,3 0 0 1 197.051,306 L197.051,237 A3,3 0 0 1 200.051,234 " fill="#FFFFFF" style="stroke: #000000; stroke-width: 1.5;"/><line style="stroke: #000000; stroke-width: 1.5;" x1="197.051" x2="267.051" y1="254.4844" y2="254.4844"/><text fill="#000000" font-family="Tahoma, sans-serif" font-size="12" font-weight="bold" lengthAdjust="spacingAndGlyphs" textLength="57" x="201.051" y="248.0059">Services</text><!--MD5=[600c2d25b6889bd4e9f6b335204b22ae]
cluster Repositories--><path d="M310.051,336 L394.051,336 A4.5,4.5 0 0 1 397.051,339 L404.051,356.4844 L454.051,356.4844 A3,3 0 0 1 457.051,359.4844 L457.051,410 A3,3 0 0 1 454.051,413 L310.051,413 A3,3 0 0 1 307.051,410 L307.051,339 A3,3 0 0 1 310.051,336 " fill="#FFFFFF" style="stroke: #000000; stroke-width: 1.5;"/><line style="stroke: #000000; stroke-width: 1.5;" x1="307.051" x2="404.051" y1="356.4844" y2="356.4844"/><text fill="#000000" font-family="Tahoma, sans-serif" font-size="12" font-weight="bold" lengthAdjust="spacingAndGlyphs" textLength="84" x="311.051" y="350.0059">Repositories</text><!--MD5=[114f4823940f317c08f5bedd633c9afd]
cluster Entities--><path d="M318.051,437 L368.051,437 A4.5,4.5 0 0 1 371.051,440 L378.051,457.4844 L524.051,457.4844 A3,3 0 0 1 527.051,460.4844 L527.051,583 A3,3 0 0 1 524.051,586 L318.051,586 A3,3 0 0 1 315.051,583 L315.051,440 A3,3 0 0 1 318.051,437 " fill="#FFFFFF" style="stroke: #000000; stroke-width: 1.5;"/><line style="stroke: #000000; stroke-width: 1.5;" x1="315.051" x2="378.051" y1="457.4844" y2="457.4844"/><text fill="#000000" font-family="Tahoma, sans-serif" font-size="12" font-weight="bold" lengthAdjust="spacingAndGlyphs" textLength="50" x="319.051" y="451.0059">Entities</text><ellipse cx="451.214" cy="70.242" fill="#F8F8F8" rx="29.163" ry="13.242" style="stroke: #383838; stroke-width: 0.5;"/><text fill="#000000" font-family="Tahoma, sans-serif" font-size="12" lengthAdjust="spacingAndGlyphs" textLength="37" x="432.714" y="73.9842">routes</text><ellipse cx="526.0424" cy="70.242" fill="#F8F8F8" rx="31.9914" ry="13.242" style="stroke: #383838; stroke-width: 0.5;"/><text fill="#000000" font-family="Tahoma, sans-serif" font-size="12" font-weight="bold" lengthAdjust="spacingAndGlyphs" textLength="41" x="505.5424" y="73.9842">server</text><!--MD5=[9e96457d60a40d7b446d98a35d5539e5]
entity _apartment_controller--><rect fill="#F8F8F8" height="34.4844" rx="3" ry="3" style="stroke: #000000; stroke-width: 0.5;" width="136" x="132.051" y="156"/><text fill="#000000" font-family="Tahoma, sans-serif" font-size="12" lengthAdjust="spacingAndGlyphs" textLength="116" x="142.051" y="178.0059">apartment.controller</text><!--MD5=[d06a8b9102defe736655824e5da7ce2d]
entity _auth_controller--><rect fill="#F8F8F8" height="34.4844" rx="3" ry="3" style="stroke: #000000; stroke-width: 0.5;" width="103" x="282.551" y="156"/><text fill="#000000" font-family="Tahoma, sans-serif" font-size="12" lengthAdjust="spacingAndGlyphs" textLength="83" x="292.551" y="178.0059">auth.controller</text><!--MD5=[d86e588f3408319142292d1b5d5a3230]
entity _user_controller--><rect fill="#F8F8F8" height="34.4844" rx="3" ry="3" style="stroke: #000000; stroke-width: 0.5;" width="103" x="399.551" y="156"/><text fill="#000000" font-family="Tahoma, sans-serif" font-size="12" lengthAdjust="spacingAndGlyphs" textLength="83" x="409.551" y="178.0059">user.controller</text><ellipse cx="531.8708" cy="280.242" fill="#F8F8F8" rx="34.8198" ry="13.242" style="stroke: #383838; stroke-width: 0.5;"/><text fill="#000000" font-family="Tahoma, sans-serif" font-size="12" lengthAdjust="spacingAndGlyphs" textLength="45" x="509.3708" y="283.9842">auth.jwt</text><ellipse cx="609.0068" cy="383.242" fill="#F8F8F8" rx="28.4558" ry="13.242" style="stroke: #383838; stroke-width: 0.5;"/><text fill="#000000" font-family="Tahoma, sans-serif" font-size="12" lengthAdjust="spacingAndGlyphs" textLength="36" x="591.0068" y="386.9842">logger</text><!--MD5=[f24447cfbda88c07e91dd3d7c0c3db79]
entity _TypeORMLogger--><rect fill="#F8F8F8" height="34.4844" rx="3" ry="3" style="stroke: #000000; stroke-width: 0.5;" width="112" x="581.051" y="263"/><text fill="#000000" font-family="Tahoma, sans-serif" font-size="12" lengthAdjust="spacingAndGlyphs" textLength="92" x="591.051" y="285.0059">TypeORMLogger</text><!--MD5=[090835527c10669de3872c7ae72a3e7a]
entity _Auth--><rect fill="#F8F8F8" height="34.4844" rx="3" ry="3" style="stroke: #000000; stroke-width: 0.5;" width="45" x="215.551" y="366"/><text fill="#000000" font-family="Tahoma, sans-serif" font-size="12" lengthAdjust="spacingAndGlyphs" textLength="25" x="225.551" y="388.0059">Auth</text><!--MD5=[a59e0cdbfcc9060e410ebd05378c71bb]
entity _models_Apartment--><rect fill="#F8F8F8" height="34.4844" rx="3" ry="3" style="stroke: #000000; stroke-width: 0.5;" width="126" x="75.0507" y="366"/><text fill="#000000" font-family="Tahoma, sans-serif" font-size="12" lengthAdjust="spacingAndGlyphs" textLength="106" x="85.0507" y="388.0059">models/Apartment</text><!--MD5=[4c029acf0569c1dbcb6e2b5523401c80]
entity _models_User--><rect fill="#F8F8F8" height="34.4844" rx="3" ry="3" style="stroke: #000000; stroke-width: 0.5;" width="94" x="129.051" y="470"/><text fill="#000000" font-family="Tahoma, sans-serif" font-size="12" lengthAdjust="spacingAndGlyphs" textLength="74" x="139.051" y="492.0059">models/User</text><ellipse cx="264.8414" cy="280.242" fill="#F8F8F8" rx="51.7904" ry="13.242" style="stroke: #383838; stroke-width: 0.5;"/><text fill="#000000" font-family="Tahoma, sans-serif" font-size="12" lengthAdjust="spacingAndGlyphs" textLength="69" x="230.3414" y="283.9842">auth.service</text><ellipse cx="382.8414" cy="280.242" fill="#F8F8F8" rx="51.7904" ry="13.242" style="stroke: #383838; stroke-width: 0.5;"/><text fill="#000000" font-family="Tahoma, sans-serif" font-size="12" lengthAdjust="spacingAndGlyphs" textLength="69" x="348.3414" y="283.9842">user.service</text><ellipse cx="382.2669" cy="383.2432" fill="#F8F8F8" rx="59.2159" ry="14.2432" style="stroke: #383838; stroke-width: 0.5;"/><text fill="#000000" font-family="Tahoma, sans-serif" font-size="12" lengthAdjust="spacingAndGlyphs" textLength="86" x="339.2669" y="386.9854">user.repository</text><!--MD5=[147a91f99759f6cb8c425b4553f458eb]
entity _entities_User--><rect fill="#F8F8F8" height="34.4844" rx="3" ry="3" style="stroke: #000000; stroke-width: 0.5;" width="93" x="417.551" y="470"/><text fill="#000000" font-family="Tahoma, sans-serif" font-size="12" lengthAdjust="spacingAndGlyphs" textLength="73" x="427.551" y="492.0059">entities/User</text><!--MD5=[6970322dd021e8bde36f20252f8dcdf3]
entity _EntityWithIdAndTimestamps--><rect fill="#F8F8F8" height="34.4844" rx="3" ry="3" style="stroke: #000000; stroke-width: 0.5;" width="180" x="331.051" y="536"/><text fill="#000000" font-family="Tahoma, sans-serif" font-size="12" lengthAdjust="spacingAndGlyphs" textLength="160" x="341.051" y="558.0059">EntityWithIdAndTimestamps</text><!--MD5=[df7b7da2504707e2c9c337bf9ecd3425]
entity _EventLog--><rect fill="#F8F8F8" height="34.4844" rx="3" ry="3" style="stroke: #000000; stroke-width: 0.5;" width="72" x="331.051" y="470"/><text fill="#000000" font-family="Tahoma, sans-serif" font-size="12" lengthAdjust="spacingAndGlyphs" textLength="52" x="341.051" y="492.0059">EventLog</text><!--MD5=[c20c81bcba0db35d3dd628bd55f33ab8]
link _apartment_controller to _models_Apartment--><path d="M183.569,190.34 C175.793,199.021 167.126,210.299 162.051,222 C141.869,268.527 138.217,329.013 137.817,360.624 " fill="none" id="_apartment_controller-&gt;_models_Apartment" style="stroke: #000000; stroke-width: 0.5;"/><polygon fill="#000000" points="137.778,365.812,141.8473,356.8431,137.8166,360.8121,133.8475,356.7814,137.778,365.812" style="stroke: #000000; stroke-width: 0.5;"/><!--MD5=[aaf6bb04ec7f0ad0e7dffbf36b8a8be6]
link _auth_controller to _Auth--><path d="M315.441,190.101 C304.437,198.688 289.801,208.574 275.051,214 C259.735,219.634 212.944,209.848 202.051,222 C173.868,253.44 188.699,276.944 202.051,317 C203.456,321.216 205.675,321.244 208.051,325 C215.374,336.577 222.558,350.126 228.059,361.109 " fill="none" id="_auth_controller-&gt;_Auth" style="stroke: #000000; stroke-width: 0.5;"/><polygon fill="#000000" points="230.309,365.646,229.8945,355.8059,228.0878,361.1665,222.7272,359.3598,230.309,365.646" style="stroke: #000000; stroke-width: 0.5;"/><!--MD5=[d54f8a898f2b2f93b3b33fade19514d3]
link _auth_controller to auth.service--><path d="M323.269,190.406 C310.302,210.139 288.669,243.059 275.742,262.731 " fill="none" id="_auth_controller-&gt;auth.service" style="stroke: #000000; stroke-width: 0.5;"/><polygon fill="#000000" points="272.966,266.955,281.2512,261.6301,275.7117,262.7764,274.5654,257.2369,272.966,266.955" style="stroke: #000000; stroke-width: 0.5;"/><!--MD5=[562c46d0512001f86390504dff043105]
link _auth_controller to logger--><path d="M352.637,190.097 C363.437,198.571 377.712,208.349 392.051,214 C414.623,222.896 426.62,207.471 446.051,222 C483.315,249.865 458.255,283.027 490.051,317 C515.643,344.345 555.387,362.807 581.808,372.865 " fill="none" id="_auth_controller-&gt;logger" style="stroke: #000000; stroke-width: 0.5;"/><polygon fill="#000000" points="586.58,374.645,579.5453,367.752,581.8952,372.8977,576.7496,375.2476,586.58,374.645" style="stroke: #000000; stroke-width: 0.5;"/><!--MD5=[572c719d8e046331fbd67b721e6b8c15]
link auth.jwt to _Auth--><path d="M513.203,291.075 C496.181,299.636 470.174,311.402 446.051,317 C416.992,323.744 339.99,314.548 312.051,325 C290.809,332.947 270.692,349.222 256.809,362.354 " fill="none" id="auth.jwt-&gt;_Auth" style="stroke: #000000; stroke-width: 0.5;"/><polygon fill="#000000" points="253.063,365.965,262.3188,362.5991,256.6629,362.4951,256.7669,356.8392,253.063,365.965" style="stroke: #000000; stroke-width: 0.5;"/><!--MD5=[d2d7d09a7514e225210c9e2c095de26d]
link auth.jwt to logger--><path d="M540.884,292.586 C554.75,310.775 581.645,346.053 597.186,366.437 " fill="none" id="auth.jwt-&gt;logger" style="stroke: #000000; stroke-width: 0.5; stroke-dasharray: 7.0,7.0;"/><polygon fill="#000000" points="600.321,370.549,598.0448,360.9668,597.2893,366.573,591.6831,365.8175,600.321,370.549" style="stroke: #000000; stroke-width: 0.5;"/><!--MD5=[224bc9a7bec10d656533ed895f4a5b22]
link auth.jwt to _models_User--><path d="M529.285,293.075 C522.122,321.24 500.078,391.15 452.051,421 C427.091,436.513 348.738,422.624 320.051,429 C282.213,437.41 241.326,454.424 212.823,467.684 " fill="none" id="auth.jwt-&gt;_models_User" style="stroke: #000000; stroke-width: 0.5;"/><polygon fill="#000000" points="208.004,469.945,217.8508,469.743,212.5305,467.821,214.4524,462.5007,208.004,469.945" style="stroke: #000000; stroke-width: 0.5;"/><!--MD5=[32ca86990d707716a406822f99e0a40d]
link auth.service to _Auth--><path d="M261.847,292.983 C257.392,309.65 249.252,340.099 243.748,360.689 " fill="none" id="auth.service-&gt;_Auth" style="stroke: #000000; stroke-width: 0.5;"/><polygon fill="#000000" points="242.409,365.697,248.598,358.0356,243.7005,360.8667,240.8695,355.9692,242.409,365.697" style="stroke: #000000; stroke-width: 0.5;"/><!--MD5=[9e9f16af2e1b4bb8d9144e8ef5210e61]
link auth.service to auth.jwt--><path d="M273.076,266.876 C283.865,250.841 304.764,224.981 331.051,218 C346.944,213.779 463.157,213.779 479.051,218 C500.632,223.731 515.736,245.926 524.153,262.127 " fill="none" id="auth.service-&gt;auth.jwt" style="stroke: #000000; stroke-width: 0.5;"/><polygon fill="#000000" points="526.551,266.938,526.1151,257.0988,524.3201,262.4633,518.9556,260.6683,526.551,266.938" style="stroke: #000000; stroke-width: 0.5;"/><!--MD5=[1383f3e222429f0733e643250a9c4b0e]
link auth.service to user.repository--><path d="M278.472,292.586 C299.353,310.611 339.675,345.42 363.381,365.883 " fill="none" id="auth.service-&gt;user.repository" style="stroke: #000000; stroke-width: 0.5;"/><polygon fill="#000000" points="367.321,369.285,363.1226,360.3758,363.5363,366.0175,357.8946,366.4313,367.321,369.285" style="stroke: #000000; stroke-width: 0.5;"/><!--MD5=[d80f597ef9c43ab3fc662f9b7fe01968]
link _entities_User to _EntityWithIdAndTimestamps--><path d="M453.2,504.1499 C447.641,512.4238 440.811,522.5891 434.878,531.4193 " fill="none" id="_entities_User-&gt;_EntityWithIdAndTimestamps" style="stroke: #000000; stroke-width: 0.5; stroke-dasharray: 7.0,7.0;"/><polygon fill="#000000" points="432.047,535.6327,440.3858,530.3921,434.835,531.4821,433.7449,525.9313,432.047,535.6327" style="stroke: #000000; stroke-width: 0.5;"/><!--MD5=[2d6b21759ce17737018b6286045c33fa]
link _EventLog to _EntityWithIdAndTimestamps--><path d="M380.677,504.1499 C387.658,512.4238 396.235,522.5891 403.686,531.4193 " fill="none" id="_EventLog-&gt;_EntityWithIdAndTimestamps" style="stroke: #000000; stroke-width: 0.5; stroke-dasharray: 7.0,7.0;"/><polygon fill="#000000" points="407.241,535.6327,404.4942,526.1746,404.0166,531.8113,398.3799,531.3337,407.241,535.6327" style="stroke: #000000; stroke-width: 0.5;"/><!--MD5=[6a9264a88048c69b2db5861303b4aafb]
link _models_Apartment to _models_User--><path d="M144.156,400.388 C150.676,417.89 161.032,445.688 168.165,464.834 " fill="none" id="_models_Apartment-&gt;_models_User" style="stroke: #000000; stroke-width: 0.5; stroke-dasharray: 7.0,7.0;"/><polygon fill="#000000" points="170.086,469.989,170.6949,460.159,168.3417,465.3031,163.1975,462.9499,170.086,469.989" style="stroke: #000000; stroke-width: 0.5;"/><!--MD5=[afa5ff013eb80bbadf484fee2552db1b]
link routes to _apartment_controller--><path d="M423.654,74.353 C388.011,79.484 324.459,91.29 275.051,115 C254.969,124.637 235.027,140.153 220.76,152.565 " fill="none" id="routes-&gt;_apartment_controller" style="stroke: #000000; stroke-width: 0.5;"/><polygon fill="#000000" points="216.891,155.976,226.2868,153.0231,220.641,152.6688,220.9953,147.0231,216.891,155.976" style="stroke: #000000; stroke-width: 0.5;"/><!--MD5=[a6574b0883c99c33d1c1e34f472f0782]
link routes to _auth_controller--><path d="M436.074,81.314 C423.884,89.908 406.408,102.691 392.051,115 C378.377,126.723 363.927,140.918 352.871,152.21 " fill="none" id="routes-&gt;_auth_controller" style="stroke: #000000; stroke-width: 0.5;"/><polygon fill="#000000" points="349.257,155.92,358.4014,152.2622,352.7451,152.3376,352.6697,146.6813,349.257,155.92" style="stroke: #000000; stroke-width: 0.5;"/><!--MD5=[562440ee5b2be334a30381992739c0d2]
link routes to auth.jwt--><path d="M459.976,82.579 C466.647,90.499 476.416,100.673 487.051,107 C497.806,113.4 506.026,105.396 514.051,115 C549.467,157.388 541.74,228.977 535.771,261.72 " fill="none" id="routes-&gt;auth.jwt" style="stroke: #000000; stroke-width: 0.5;"/><polygon fill="#000000" points="534.762,266.999,540.3802,258.9098,535.7005,262.0879,532.5224,257.4082,534.762,266.999" style="stroke: #000000; stroke-width: 0.5;"/><!--MD5=[c3d2556c4d629c2bc3d7bb124fdead71]
link routes to _user_controller--><path d="M451.051,83.385 C451.051,100.115 451.051,130.19 451.051,150.615 " fill="none" id="routes-&gt;_user_controller" style="stroke: #000000; stroke-width: 0.5;"/><polygon fill="#000000" points="451.051,155.843,455.051,146.843,451.051,150.843,447.051,146.843,451.051,155.843" style="stroke: #000000; stroke-width: 0.5;"/><!--MD5=[58b1ddf9e3fd87978458e42747798e8d]
link <b>server</b> to _Auth--><path d="M517.253,82.791 C510.157,91.264 499.355,102.034 487.051,107 C468.191,114.612 135.274,100.462 121.051,115 C90.2798,146.451 109.275,171.605 121.051,214 C135.35,265.482 141.148,283.848 183.051,317 C192.2,324.238 199.113,317.502 208.051,325 C219.145,334.307 226.692,348.784 231.441,360.819 " fill="none" id="&lt;b&gt;server&lt;/b&gt;-&gt;_Auth" style="stroke: #000000; stroke-width: 1.0;"/><polygon fill="#000000" points="233.308,365.805,233.8991,355.9739,231.5552,361.1223,226.4068,358.7784,233.308,365.805" style="stroke: #000000; stroke-width: 1.0;"/><!--MD5=[322b45c47471d12b6d49db8397c5ba50]
link <b>server</b> to auth.jwt--><path d="M535.905,82.419 C542.465,90.811 550.507,102.829 554.051,115 C566.353,157.245 561.199,170.585 554.051,214 C551.283,230.812 544.741,249.126 539.506,262.017 " fill="none" id="&lt;b&gt;server&lt;/b&gt;-&gt;auth.jwt" style="stroke: #000000; stroke-width: 1.0;"/><polygon fill="#000000" points="537.503,266.847,544.646,260.0663,539.4187,262.2285,537.2564,257.0012,537.503,266.847" style="stroke: #000000; stroke-width: 1.0;"/><!--MD5=[5dcf67e50701372d1e4b38ad174e1bd8]
link <b>server</b> to logger--><path d="M546.231,80.228 C585.804,99.675 672.164,149.161 700.051,222 C715.147,261.431 719.371,279.457 700.051,317 C686.423,343.481 656.453,361.565 634.619,371.807 " fill="none" id="&lt;b&gt;server&lt;/b&gt;-&gt;logger" style="stroke: #000000; stroke-width: 1.0;"/><polygon fill="#000000" points="629.815,373.997,639.6634,373.9059,634.3651,371.9241,636.3468,366.6257,629.815,373.997" style="stroke: #000000; stroke-width: 1.0;"/><!--MD5=[918f1540acef5cbfe8e12ed9833e65d6]
link <b>server</b> to _models_User--><path d="M517.255,82.795 C510.159,91.27 499.358,102.04 487.051,107 C467.208,114.997 119.075,102.045 102.0507,115 C-7.6695,198.494 -20.502,303.144 51.0507,421 C66.9443,447.179 97.1922,463.299 123.951,472.937 " fill="none" id="&lt;b&gt;server&lt;/b&gt;-&gt;_models_User" style="stroke: #000000; stroke-width: 1.0;"/><polygon fill="#000000" points="128.903,474.662,121.7192,467.9245,124.1812,473.0176,119.0881,475.4795,128.903,474.662" style="stroke: #000000; stroke-width: 1.0;"/><!--MD5=[b5550d8c7cbc955c7a41f0bf9d55f796]
link <b>server</b> to routes--><path d="M493.71,70 C490.865,70 488.02,70 485.175,70 " fill="none" id="&lt;b&gt;server&lt;/b&gt;-&gt;routes" style="stroke: #000000; stroke-width: 1.0; stroke-dasharray: 7.0,7.0;"/><polygon fill="#000000" points="480.055,70,489.055,74,485.055,70,489.055,66,480.055,70" style="stroke: #000000; stroke-width: 1.0;"/><!--MD5=[b7da318761176cd6308606b45640b193]
link <b>server</b> to _TypeORMLogger--><path d="M539.462,82.228 C548.725,90.531 560.812,102.521 569.051,115 C599.999,161.88 621.346,225.13 631.077,257.682 " fill="none" id="&lt;b&gt;server&lt;/b&gt;-&gt;_TypeORMLogger" style="stroke: #000000; stroke-width: 1.0;"/><polygon fill="#000000" points="632.539,262.635,633.8272,252.8708,631.1234,257.8396,626.1545,255.1358,632.539,262.635" style="stroke: #000000; stroke-width: 1.0;"/><!--MD5=[e740ba654b198251af9249c33f84db62]
link _TypeORMLogger to logger--><path d="M632.552,297.227 C627.409,315.781 619.025,346.019 613.785,364.921 " fill="none" id="_TypeORMLogger-&gt;logger" style="stroke: #000000; stroke-width: 0.5; stroke-dasharray: 7.0,7.0;"/><polygon fill="#000000" points="612.396,369.933,618.6548,362.3286,613.7316,365.1147,610.9455,360.1915,612.396,369.933" style="stroke: #000000; stroke-width: 0.5;"/><!--MD5=[f9d07b912afd61cfb43e6511e1d68859]
link _user_controller to auth.jwt--><path d="M463.707,190.406 C479.012,210.247 504.601,243.417 519.746,263.05 " fill="none" id="_user_controller-&gt;auth.jwt" style="stroke: #000000; stroke-width: 0.5;"/><polygon fill="#000000" points="522.995,267.261,520.6641,257.6919,519.9407,263.3023,514.3302,262.5789,522.995,267.261" style="stroke: #000000; stroke-width: 0.5;"/><!--MD5=[0fb2ab3080e68b16e7150866435982e3]
link _user_controller to _models_User--><path d="M433.089,190.07 C422.073,198.877 407.21,208.994 392.051,214 C351.922,227.251 241.767,207.561 202.051,222 C131.455,247.666 101.2456,257.616 68.0507,325 C49.1957,363.274 47.0541,383.857 68.0507,421 C80.2664,442.61 102.8604,457.831 124.237,468.082 " fill="none" id="_user_controller-&gt;_models_User" style="stroke: #000000; stroke-width: 0.5;"/><polygon fill="#000000" points="128.776,470.194,122.3047,462.7696,124.243,468.084,118.9286,470.0223,128.776,470.194" style="stroke: #000000; stroke-width: 0.5;"/><!--MD5=[097b81be3c6bf7c7e3a5dba365f1a503]
link _user_controller to user.service--><path d="M440.426,190.406 C427.646,210.139 406.327,243.059 393.587,262.731 " fill="none" id="_user_controller-&gt;user.service" style="stroke: #000000; stroke-width: 0.5;"/><polygon fill="#000000" points="390.851,266.955,399.101,261.5757,393.5692,262.7584,392.3865,257.2266,390.851,266.955" style="stroke: #000000; stroke-width: 0.5;"/><!--MD5=[91323e5e891003a8aa47e6c2bae4dadc]
link user.repository to _entities_User--><path d="M392.436,396.918 C406.415,414.307 431.426,445.418 447.88,465.885 " fill="none" id="user.repository-&gt;_entities_User" style="stroke: #000000; stroke-width: 0.5;"/><polygon fill="#000000" points="451.05,469.829,448.5287,460.3083,447.9173,465.9321,442.2936,465.3207,451.05,469.829" style="stroke: #000000; stroke-width: 0.5;"/><!--MD5=[8b3a2cc741c76eb341206bb75debbab7]
link user.repository to _EventLog--><path d="M380.09,397.335 C377.567,414.486 373.157,444.479 370.171,464.781 " fill="none" id="user.repository-&gt;_EventLog" style="stroke: #000000; stroke-width: 0.5;"/><polygon fill="#000000" points="369.407,469.975,374.6756,461.6538,370.1355,465.0284,366.761,460.4882,369.407,469.975" style="stroke: #000000; stroke-width: 0.5;"/><!--MD5=[268a1c9652f8bd851d1a6e5346c68370]
link user.repository to _models_User--><path d="M358.017,395.9 C322.278,413.596 254.841,446.987 212.859,467.775 " fill="none" id="user.repository-&gt;_models_User" style="stroke: #000000; stroke-width: 0.5;"/><polygon fill="#000000" points="208.374,469.995,218.2144,469.5868,212.855,467.7767,214.6651,462.4172,208.374,469.995" style="stroke: #000000; stroke-width: 0.5;"/><!--MD5=[b64e42995474d859eb56ab10f112be97]
link user.service to _models_User--><path d="M364.743,292.171 C344.048,304.824 313.075,323.849 312.051,325 C280.726,360.203 297.206,384.791 267.051,421 C251.473,439.704 229.327,455.678 210.783,467.11 " fill="none" id="user.service-&gt;_models_User" style="stroke: #000000; stroke-width: 0.5;"/><polygon fill="#000000" points="206.152,469.917,215.9217,468.6705,210.4273,467.3244,211.7735,461.83,206.152,469.917" style="stroke: #000000; stroke-width: 0.5;"/><!--MD5=[063e2d6f822dd6550b1063ec9215e714]
link user.service to user.repository--><path d="M382.928,293.385 C382.754,310.986 382.433,343.355 382.232,363.721 " fill="none" id="user.service-&gt;user.repository" style="stroke: #000000; stroke-width: 0.5;"/><polygon fill="#000000" points="382.181,368.874,386.2682,359.9133,382.2296,363.8742,378.2686,359.8356,382.181,368.874" style="stroke: #000000; stroke-width: 0.5;"/><script type="text/plantuml"><![CDATA[MD5=[1884c31ed98858673d86b7a604cfc4b7]
@startuml

scale max 1920 width
top to bottom direction

skinparam nodesep 14
skinparam ranksep 29
skinparam monochrome true
skinparam shadowing false
skinparam defaultFontName Tahoma
skinparam defaultFontSize 12
skinparam roundCorner 6
skinparam dpi 150
skinparam arrowColor black
skinparam arrowThickness 0.5
skinparam packageTitleAlignment left

skinparam usecase {
  borderThickness 0.5
}

skinparam rectangle {
  borderThickness 0.5
}

skinparam component {
  borderThickness 1
}


package "Server & Router" {
  (routes)
  (<b>server</b>)
}

package "Controllers" {
  rectangle "apartment.controller" as _apartment_controller
  rectangle "auth.controller" as _auth_controller
  rectangle "user.controller" as _user_controller
}

package "Middlewares" {
  (auth.jwt)
  (logger)
  rectangle "TypeORMLogger" as _TypeORMLogger
}

package "Models" {
  rectangle "Auth" as _Auth
  rectangle "models/Apartment" as _models_Apartment
  rectangle "models/User" as _models_User
}

package "Services" {
  (auth.service)
  (user.service)
}

package "Repositories" {
  (user.repository)
}

package "Entities" {
  rectangle "entities/User" as _entities_User
  rectangle "EntityWithIdAndTimestamps" as _EntityWithIdAndTimestamps
  rectangle "EventLog" as _EventLog
}

_apartment_controller --> _models_Apartment
_auth_controller --> _Auth
_auth_controller --> (auth.service)
_auth_controller --> (logger)
(auth.jwt) --> _Auth
(auth.jwt) ..> (logger)
(auth.jwt) --> _models_User
(auth.service) --> _Auth
(auth.service) --> (auth.jwt)
(auth.service) --> (user.repository)
_entities_User ..> _EntityWithIdAndTimestamps
_EventLog ..> _EntityWithIdAndTimestamps
_models_Apartment ..> _models_User
(routes) --> _apartment_controller
(routes) --> _auth_controller
(routes) --> (auth.jwt)
(routes) --> _user_controller
(<b>server</b>) -[thickness=1]> _Auth
(<b>server</b>) -[thickness=1]> (auth.jwt)
(<b>server</b>) -[thickness=1]> (logger)
(<b>server</b>) -[thickness=1]> _models_User
(<b>server</b>) .[thickness=1]> (routes)
(<b>server</b>) -[thickness=1]> _TypeORMLogger
_TypeORMLogger ..> (logger)
_user_controller --> (auth.jwt)
_user_controller --> _models_User
_user_controller --> (user.service)
(user.repository) --> _entities_User
(user.repository) --> _EventLog
(user.repository) --> _models_User
(user.service) --> _models_User
(user.service) --> (user.repository)

@enduml


' View and edit on https://arkit.pro
]]></script></g></svg>