<?xml version="1.0" encoding="UTF-8" standalone="no"?><svg xmlns="http://www.w3.org/2000/svg" xmlns:xlink="http://www.w3.org/1999/xlink" contentScriptType="application/ecmascript" contentStyleType="text/css" height="666px" preserveAspectRatio="none" style="width:975px;height:666px;" version="1.1" viewBox="0 0 975 666" width="975px" zoomAndPan="magnify"><defs/><g><!--MD5=[81da1a12a6ffceb0b7ff692a5ac8efc2]
cluster Server & Router--><path d="M544.749,24 L647.749,24 A4.5,4.5 0 0 1 650.749,27 L657.749,44.4844 L707.749,44.4844 A3,3 0 0 1 710.749,47.4844 L710.749,96 A3,3 0 0 1 707.749,99 L544.749,99 A3,3 0 0 1 541.749,96 L541.749,27 A3,3 0 0 1 544.749,24 " fill="#FFFFFF" style="stroke: #000000; stroke-width: 1.5;"/><line style="stroke: #000000; stroke-width: 1.5;" x1="541.749" x2="657.749" y1="44.4844" y2="44.4844"/><text fill="#000000" font-family="Tahoma, sans-serif" font-size="12" font-weight="bold" lengthAdjust="spacingAndGlyphs" textLength="103" x="545.749" y="38.0059">Server &amp; Router</text><!--MD5=[ed1d20ea533a2a0e7df5ba3c35e56ced]
cluster Controllers--><path d="M252.749,123 L326.749,123 A4.5,4.5 0 0 1 329.749,126 L336.749,143.4844 L651.749,143.4844 A3,3 0 0 1 654.749,146.4844 L654.749,203 A3,3 0 0 1 651.749,206 L252.749,206 A3,3 0 0 1 249.749,203 L249.749,126 A3,3 0 0 1 252.749,123 " fill="#FFFFFF" style="stroke: #000000; stroke-width: 1.5;"/><line style="stroke: #000000; stroke-width: 1.5;" x1="249.749" x2="336.749" y1="143.4844" y2="143.4844"/><text fill="#000000" font-family="Tahoma, sans-serif" font-size="12" font-weight="bold" lengthAdjust="spacingAndGlyphs" textLength="74" x="253.749" y="137.0059">Controllers</text><!--MD5=[01444e0f60f2f1f3466acc3cffdc895e]
cluster Middlewares--><path d="M709.749,334 L790.749,334 A4.5,4.5 0 0 1 793.749,337 L800.749,354.4844 L932.749,354.4844 A3,3 0 0 1 935.749,357.4844 L935.749,517 A3,3 0 0 1 932.749,520 L709.749,520 A3,3 0 0 1 706.749,517 L706.749,337 A3,3 0 0 1 709.749,334 " fill="#FFFFFF" style="stroke: #000000; stroke-width: 1.5;"/><line style="stroke: #000000; stroke-width: 1.5;" x1="706.749" x2="800.749" y1="354.4844" y2="354.4844"/><text fill="#000000" font-family="Tahoma, sans-serif" font-size="12" font-weight="bold" lengthAdjust="spacingAndGlyphs" textLength="81" x="710.749" y="348.0059">Middlewares</text><!--MD5=[027ebfd53c01aea08f474edbf35d0797]
cluster Models--><path d="M50.7491,441 L97.7491,441 A4.5,4.5 0 0 1 100.7491,444 L107.7491,461.4844 L263.749,461.4844 A3,3 0 0 1 266.749,464.4844 L266.749,585 A3,3 0 0 1 263.749,588 L50.7491,588 A3,3 0 0 1 47.7491,585 L47.7491,444 A3,3 0 0 1 50.7491,441 " fill="#FFFFFF" style="stroke: #000000; stroke-width: 1.5;"/><line style="stroke: #000000; stroke-width: 1.5;" x1="47.7491" x2="107.7491" y1="461.4844" y2="461.4844"/><text fill="#000000" font-family="Tahoma, sans-serif" font-size="12" font-weight="bold" lengthAdjust="spacingAndGlyphs" textLength="47" x="51.7491" y="455.0059">Models</text><!--MD5=[cdfd548b3455e70392372b1f27091970]
cluster Services--><path d="M255.749,230 L312.749,230 A4.5,4.5 0 0 1 315.749,233 L322.749,250.4844 L651.749,250.4844 A3,3 0 0 1 654.749,253.4844 L654.749,307 A3,3 0 0 1 651.749,310 L255.749,310 A3,3 0 0 1 252.749,307 L252.749,233 A3,3 0 0 1 255.749,230 " fill="#FFFFFF" style="stroke: #000000; stroke-width: 1.5;"/><line style="stroke: #000000; stroke-width: 1.5;" x1="252.749" x2="322.749" y1="250.4844" y2="250.4844"/><text fill="#000000" font-family="Tahoma, sans-serif" font-size="12" font-weight="bold" lengthAdjust="spacingAndGlyphs" textLength="57" x="256.749" y="244.0059">Services</text><!--MD5=[600c2d25b6889bd4e9f6b335204b22ae]
cluster Repositories--><path d="M300.749,334 L384.749,334 A4.5,4.5 0 0 1 387.749,337 L394.749,354.4844 L605.749,354.4844 A3,3 0 0 1 608.749,357.4844 L608.749,414 A3,3 0 0 1 605.749,417 L300.749,417 A3,3 0 0 1 297.749,414 L297.749,337 A3,3 0 0 1 300.749,334 " fill="#FFFFFF" style="stroke: #000000; stroke-width: 1.5;"/><line style="stroke: #000000; stroke-width: 1.5;" x1="297.749" x2="394.749" y1="354.4844" y2="354.4844"/><text fill="#000000" font-family="Tahoma, sans-serif" font-size="12" font-weight="bold" lengthAdjust="spacingAndGlyphs" textLength="84" x="301.749" y="348.0059">Repositories</text><!--MD5=[114f4823940f317c08f5bedd633c9afd]
cluster Entities--><path d="M455.749,441 L505.749,441 A4.5,4.5 0 0 1 508.749,444 L515.749,461.4844 L679.749,461.4844 A3,3 0 0 1 682.749,464.4844 L682.749,651 A3,3 0 0 1 679.749,654 L455.749,654 A3,3 0 0 1 452.749,651 L452.749,444 A3,3 0 0 1 455.749,441 " fill="#FFFFFF" style="stroke: #000000; stroke-width: 1.5;"/><line style="stroke: #000000; stroke-width: 1.5;" x1="452.749" x2="515.749" y1="461.4844" y2="461.4844"/><text fill="#000000" font-family="Tahoma, sans-serif" font-size="12" font-weight="bold" lengthAdjust="spacingAndGlyphs" textLength="50" x="456.749" y="455.0059">Entities</text><ellipse cx="586.912" cy="70.242" fill="#F8F8F8" rx="29.163" ry="13.242" style="stroke: #383838; stroke-width: 0.5;"/><text fill="#000000" font-family="Tahoma, sans-serif" font-size="12" lengthAdjust="spacingAndGlyphs" textLength="37" x="568.412" y="73.9842">routes</text><ellipse cx="662.7404" cy="70.242" fill="#F8F8F8" rx="31.9914" ry="13.242" style="stroke: #383838; stroke-width: 0.5;"/><text fill="#000000" font-family="Tahoma, sans-serif" font-size="12" font-weight="bold" lengthAdjust="spacingAndGlyphs" textLength="41" x="642.2404" y="73.9842">server</text><!--MD5=[9e96457d60a40d7b446d98a35d5539e5]
entity _apartment_controller--><rect fill="#F8F8F8" height="34.4844" rx="3" ry="3" style="stroke: #000000; stroke-width: 0.5;" width="136" x="265.749" y="156"/><text fill="#000000" font-family="Tahoma, sans-serif" font-size="12" lengthAdjust="spacingAndGlyphs" textLength="116" x="275.749" y="178.0059">apartment.controller</text><!--MD5=[d06a8b9102defe736655824e5da7ce2d]
entity _auth_controller--><rect fill="#F8F8F8" height="34.4844" rx="3" ry="3" style="stroke: #000000; stroke-width: 0.5;" width="103" x="535.249" y="156"/><text fill="#000000" font-family="Tahoma, sans-serif" font-size="12" lengthAdjust="spacingAndGlyphs" textLength="83" x="545.249" y="178.0059">auth.controller</text><!--MD5=[d86e588f3408319142292d1b5d5a3230]
entity _user_controller--><rect fill="#F8F8F8" height="34.4844" rx="3" ry="3" style="stroke: #000000; stroke-width: 0.5;" width="103" x="417.249" y="156"/><text fill="#000000" font-family="Tahoma, sans-serif" font-size="12" lengthAdjust="spacingAndGlyphs" textLength="83" x="427.249" y="178.0059">user.controller</text><ellipse cx="757.5688" cy="384.242" fill="#F8F8F8" rx="34.8198" ry="13.242" style="stroke: #383838; stroke-width: 0.5;"/><text fill="#000000" font-family="Tahoma, sans-serif" font-size="12" lengthAdjust="spacingAndGlyphs" textLength="45" x="735.0688" y="387.9842">auth.jwt</text><ellipse cx="876.7048" cy="491.242" fill="#F8F8F8" rx="28.4558" ry="13.242" style="stroke: #383838; stroke-width: 0.5;"/><text fill="#000000" font-family="Tahoma, sans-serif" font-size="12" lengthAdjust="spacingAndGlyphs" textLength="36" x="858.7048" y="494.9842">logger</text><!--MD5=[f24447cfbda88c07e91dd3d7c0c3db79]
entity _TypeORMLogger--><rect fill="#F8F8F8" height="34.4844" rx="3" ry="3" style="stroke: #000000; stroke-width: 0.5;" width="112" x="807.749" y="367"/><text fill="#000000" font-family="Tahoma, sans-serif" font-size="12" lengthAdjust="spacingAndGlyphs" textLength="92" x="817.749" y="389.0059">TypeORMLogger</text><!--MD5=[090835527c10669de3872c7ae72a3e7a]
entity _Auth--><rect fill="#F8F8F8" height="34.4844" rx="3" ry="3" style="stroke: #000000; stroke-width: 0.5;" width="45" x="205.249" y="474"/><text fill="#000000" font-family="Tahoma, sans-serif" font-size="12" lengthAdjust="spacingAndGlyphs" textLength="25" x="215.249" y="496.0059">Auth</text><!--MD5=[a59e0cdbfcc9060e410ebd05378c71bb]
entity _models_Apartment--><rect fill="#F8F8F8" height="34.4844" rx="3" ry="3" style="stroke: #000000; stroke-width: 0.5;" width="126" x="63.7491" y="474"/><text fill="#000000" font-family="Tahoma, sans-serif" font-size="12" lengthAdjust="spacingAndGlyphs" textLength="106" x="73.7491" y="496.0059">models/Apartment</text><!--MD5=[4c029acf0569c1dbcb6e2b5523401c80]
entity _models_User--><rect fill="#F8F8F8" height="34.4844" rx="3" ry="3" style="stroke: #000000; stroke-width: 0.5;" width="94" x="117.749" y="538"/><text fill="#000000" font-family="Tahoma, sans-serif" font-size="12" lengthAdjust="spacingAndGlyphs" textLength="74" x="127.749" y="560.0059">models/User</text><ellipse cx="334.7968" cy="278.5096" fill="#F8F8F8" rx="65.5478" ry="15.5096" style="stroke: #383838; stroke-width: 0.5;"/><text fill="#000000" font-family="Tahoma, sans-serif" font-size="12" lengthAdjust="spacingAndGlyphs" textLength="102" x="283.7968" y="282.2518">apartment.service</text><ellipse cx="586.5394" cy="278.742" fill="#F8F8F8" rx="51.7904" ry="13.242" style="stroke: #383838; stroke-width: 0.5;"/><text fill="#000000" font-family="Tahoma, sans-serif" font-size="12" lengthAdjust="spacingAndGlyphs" textLength="69" x="552.0394" y="282.4842">auth.service</text><ellipse cx="467.5394" cy="278.742" fill="#F8F8F8" rx="51.7904" ry="13.242" style="stroke: #383838; stroke-width: 0.5;"/><text fill="#000000" font-family="Tahoma, sans-serif" font-size="12" lengthAdjust="spacingAndGlyphs" textLength="69" x="433.0394" y="282.4842">user.service</text><ellipse cx="386.9016" cy="383.9305" fill="#F8F8F8" rx="72.6526" ry="16.9305" style="stroke: #383838; stroke-width: 0.5;"/><text fill="#000000" font-family="Tahoma, sans-serif" font-size="12" lengthAdjust="spacingAndGlyphs" textLength="119" x="327.4016" y="387.6727">apartment.repository</text><ellipse cx="533.9649" cy="384.2432" fill="#F8F8F8" rx="59.2159" ry="14.2432" style="stroke: #383838; stroke-width: 0.5;"/><text fill="#000000" font-family="Tahoma, sans-serif" font-size="12" lengthAdjust="spacingAndGlyphs" textLength="86" x="490.9649" y="387.9854">user.repository</text><!--MD5=[2026c0bd7f4956f7b059870106b72831]
entity _entities_Apartment--><rect fill="#F8F8F8" height="34.4844" rx="3" ry="3" style="stroke: #000000; stroke-width: 0.5;" width="125" x="469.249" y="474"/><text fill="#000000" font-family="Tahoma, sans-serif" font-size="12" lengthAdjust="spacingAndGlyphs" textLength="105" x="479.249" y="496.0059">entities/Apartment</text><!--MD5=[147a91f99759f6cb8c425b4553f458eb]
entity _entities_User--><rect fill="#F8F8F8" height="34.4844" rx="3" ry="3" style="stroke: #000000; stroke-width: 0.5;" width="93" x="469.249" y="538"/><text fill="#000000" font-family="Tahoma, sans-serif" font-size="12" lengthAdjust="spacingAndGlyphs" textLength="73" x="479.249" y="560.0059">entities/User</text><!--MD5=[6970322dd021e8bde36f20252f8dcdf3]
entity _EntityWithIdAndTimestamps--><rect fill="#F8F8F8" height="34.4844" rx="3" ry="3" style="stroke: #000000; stroke-width: 0.5;" width="180" x="486.749" y="604"/><text fill="#000000" font-family="Tahoma, sans-serif" font-size="12" lengthAdjust="spacingAndGlyphs" textLength="160" x="496.749" y="626.0059">EntityWithIdAndTimestamps</text><!--MD5=[df7b7da2504707e2c9c337bf9ecd3425]
entity _EventLog--><rect fill="#F8F8F8" height="34.4844" rx="3" ry="3" style="stroke: #000000; stroke-width: 0.5;" width="72" x="577.749" y="538"/><text fill="#000000" font-family="Tahoma, sans-serif" font-size="12" lengthAdjust="spacingAndGlyphs" textLength="52" x="587.749" y="560.0059">EventLog</text><!--MD5=[6cc8762ce868c43b85eddf0415429863]
link _apartment_controller to apartment.service--><path d="M333.905,190.172 C334.082,208.439 334.369,238.168 334.559,257.781 " fill="none" id="_apartment_controller-&gt;apartment.service" style="stroke: #000000; stroke-width: 0.5;"/><polygon fill="#000000" points="334.607,262.781,338.5194,253.7426,334.5584,257.7812,330.5197,253.8203,334.607,262.781" style="stroke: #000000; stroke-width: 0.5;"/><!--MD5=[c20c81bcba0db35d3dd628bd55f33ab8]
link _apartment_controller to _models_Apartment--><path d="M265.628,186.94 C242.761,194.098 218.569,205.116 200.749,222 C129.755,289.268 124.785,417.937 125.799,468.675 " fill="none" id="_apartment_controller-&gt;_models_Apartment" style="stroke: #000000; stroke-width: 0.5;"/><polygon fill="#000000" points="125.931,473.904,129.7034,464.8062,125.8053,468.9056,121.7059,465.0074,125.931,473.904" style="stroke: #000000; stroke-width: 0.5;"/><!--MD5=[9e470a0f4cc480046c2336c3151c48bb]
link apartment.repository to _entities_Apartment--><path d="M407.833,400.268 C433.481,418.84 476.815,450.22 504.845,470.518 " fill="none" id="apartment.repository-&gt;_entities_Apartment" style="stroke: #000000; stroke-width: 0.5;"/><polygon fill="#000000" points="509.207,473.677,504.2651,465.1577,505.1578,470.7437,499.5719,471.6364,509.207,473.677" style="stroke: #000000; stroke-width: 0.5;"/><!--MD5=[e8795b8090cf0242c71807e88ceeb1cb]
link apartment.repository to _entities_User--><path d="M377.065,400.875 C360.827,429.755 332.783,491.288 363.749,528 C376.469,543.081 424.923,549.415 463.75,552.075 " fill="none" id="apartment.repository-&gt;_entities_User" style="stroke: #000000; stroke-width: 0.5;"/><polygon fill="#000000" points="468.917,552.411,460.1954,547.8356,463.9275,552.0867,459.6765,555.8188,468.917,552.411" style="stroke: #000000; stroke-width: 0.5;"/><!--MD5=[8f91c3bb19418fbc6b7e609ed91061ae]
link apartment.repository to _models_Apartment--><path d="M326.549,393.52 C288.227,400.553 238.346,412.756 197.749,433 C178.648,442.525 159.943,457.861 146.532,470.227 " fill="none" id="apartment.repository-&gt;_models_Apartment" style="stroke: #000000; stroke-width: 0.5;"/><polygon fill="#000000" points="142.545,473.959,151.8488,470.7281,146.195,470.5418,146.3813,464.888,142.545,473.959" style="stroke: #000000; stroke-width: 0.5;"/><!--MD5=[2952776b15c6dbe5a1b163b1aff2571a]
link apartment.service to apartment.repository--><path d="M342.199,294.329 C351.143,312.13 366.197,342.093 376.299,362.201 " fill="none" id="apartment.service-&gt;apartment.repository" style="stroke: #000000; stroke-width: 0.5;"/><polygon fill="#000000" points="378.628,366.835,378.1632,356.9971,376.3839,362.3669,371.0142,360.5876,378.628,366.835" style="stroke: #000000; stroke-width: 0.5;"/><!--MD5=[cfc65d6c0cae18dcf3e5ca14ec95ff72]
link apartment.service to _models_Apartment--><path d="M295.518,291.151 C274.897,298.685 250.156,310.092 231.749,326 C184.208,367.086 150.353,434.958 135.37,469.065 " fill="none" id="apartment.service-&gt;_models_Apartment" style="stroke: #000000; stroke-width: 0.5;"/><polygon fill="#000000" points="133.297,473.845,140.5467,467.1785,135.2857,469.2575,133.2067,463.9966,133.297,473.845" style="stroke: #000000; stroke-width: 0.5;"/><!--MD5=[aaf6bb04ec7f0ad0e7dffbf36b8a8be6]
link _auth_controller to _Auth--><path d="M568.81,190.14 C557.802,198.97 542.939,209.089 527.749,214 C513.47,218.616 269.176,212.273 257.749,222 C185.196,283.761 209.038,416.694 221.865,468.609 " fill="none" id="_auth_controller-&gt;_Auth" style="stroke: #000000; stroke-width: 0.5;"/><polygon fill="#000000" points="223.143,473.665,224.8145,463.959,221.9172,468.8176,217.0587,465.9203,223.143,473.665" style="stroke: #000000; stroke-width: 0.5;"/><!--MD5=[d54f8a898f2b2f93b3b33fade19514d3]
link _auth_controller to auth.service--><path d="M586.749,190.172 C586.749,209.192 586.749,240.641 586.749,260.155 " fill="none" id="_auth_controller-&gt;auth.service" style="stroke: #000000; stroke-width: 0.5;"/><polygon fill="#000000" points="586.749,265.323,590.749,256.323,586.749,260.323,582.749,256.323,586.749,265.323" style="stroke: #000000; stroke-width: 0.5;"/><!--MD5=[562c46d0512001f86390504dff043105]
link _auth_controller to logger--><path d="M638.366,179.76 C716.667,191.586 863.169,226.508 927.749,326 C951.705,362.907 942.117,383.412 927.749,425 C920.873,444.904 905.11,463.356 892.915,475.476 " fill="none" id="_auth_controller-&gt;logger" style="stroke: #000000; stroke-width: 0.5;"/><polygon fill="#000000" points="889.259,479.028,898.5012,475.6247,892.8449,475.5435,892.926,469.8873,889.259,479.028" style="stroke: #000000; stroke-width: 0.5;"/><!--MD5=[572c719d8e046331fbd67b721e6b8c15]
link auth.jwt to _Auth--><path d="M732.744,393.241 C702.554,402.781 650.055,418.07 603.749,425 C521.917,437.247 499.338,419.228 417.749,433 C358.438,443.011 291.618,465.894 255.142,479.425 " fill="none" id="auth.jwt-&gt;_Auth" style="stroke: #000000; stroke-width: 0.5;"/><polygon fill="#000000" points="250.416,481.189,260.2466,481.789,255.1003,479.4404,257.4489,474.2941,250.416,481.189" style="stroke: #000000; stroke-width: 0.5;"/><!--MD5=[d2d7d09a7514e225210c9e2c095de26d]
link auth.jwt to logger--><path d="M769.673,396.343 C778.236,404.426 790.097,415.498 800.749,425 C820.763,442.854 844.297,462.829 859.814,475.864 " fill="none" id="auth.jwt-&gt;logger" style="stroke: #000000; stroke-width: 0.5; stroke-dasharray: 7.0,7.0;"/><polygon fill="#000000" points="863.969,479.349,859.6445,470.5003,860.1383,476.1356,854.5031,476.6294,863.969,479.349" style="stroke: #000000; stroke-width: 0.5;"/><!--MD5=[224bc9a7bec10d656533ed895f4a5b22]
link auth.jwt to _models_User--><path d="M732.73,393.147 C702.525,402.597 650.013,417.798 603.749,425 C571.643,429.998 488.18,421.609 457.749,433 C393.388,457.092 398.878,500.843 335.749,528 C298.021,544.23 251.795,550.539 216.922,552.896 " fill="none" id="auth.jwt-&gt;_models_User" style="stroke: #000000; stroke-width: 0.5;"/><polygon fill="#000000" points="211.862,553.215,221.0966,556.6387,216.852,552.8993,220.5915,548.6547,211.862,553.215" style="stroke: #000000; stroke-width: 0.5;"/><!--MD5=[32ca86990d707716a406822f99e0a40d]
link auth.service to _Auth--><path d="M573.058,291.356 C561.554,300.519 544.232,312.533 526.749,318 C502.98,325.434 323.46,312.169 302.749,326 C253.613,358.813 236.164,432.371 230.386,468.77 " fill="none" id="auth.service-&gt;_Auth" style="stroke: #000000; stroke-width: 0.5;"/><polygon fill="#000000" points="229.615,473.861,234.9148,465.5597,230.3621,468.9171,227.0046,464.3644,229.615,473.861" style="stroke: #000000; stroke-width: 0.5;"/><!--MD5=[9e9f16af2e1b4bb8d9144e8ef5210e61]
link auth.service to auth.jwt--><path d="M605.375,290.773 C637.186,310.028 701.834,349.157 735.791,369.709 " fill="none" id="auth.service-&gt;auth.jwt" style="stroke: #000000; stroke-width: 0.5;"/><polygon fill="#000000" points="740.173,372.362,734.5464,364.2786,735.896,369.7721,730.4025,371.1218,740.173,372.362" style="stroke: #000000; stroke-width: 0.5;"/><!--MD5=[1383f3e222429f0733e643250a9c4b0e]
link auth.service to user.repository--><path d="M580.461,291.779 C571.08,310.099 553.379,344.667 542.665,365.588 " fill="none" id="auth.service-&gt;user.repository" style="stroke: #000000; stroke-width: 0.5;"/><polygon fill="#000000" points="540.361,370.088,548.0225,363.8992,542.6392,365.6372,540.9012,360.254,540.361,370.088" style="stroke: #000000; stroke-width: 0.5;"/><!--MD5=[b5c23d07f236d1178bc1899d3effdd89]
link _entities_Apartment to _entities_User--><path d="M527.545,508.29 C525.65,515.636 523.384,524.416 521.347,532.31 " fill="none" id="_entities_Apartment-&gt;_entities_User" style="stroke: #000000; stroke-width: 0.5; stroke-dasharray: 7.0,7.0;"/><polygon fill="#000000" points="519.98,537.604,526.1029,529.8897,521.23,532.7628,518.3569,527.8898,519.98,537.604" style="stroke: #000000; stroke-width: 0.5;"/><!--MD5=[24755b029eafb07319e502a30c0f7013]
link _entities_Apartment to _EntityWithIdAndTimestamps--><path d="M594.452,499.809 C617.981,506.129 642.461,517.517 656.749,538 C671.497,559.142 672.137,575.3187 656.749,596 C655.667,597.4542 654.5,598.8236 653.259,600.113 " fill="none" id="_entities_Apartment-&gt;_EntityWithIdAndTimestamps" style="stroke: #000000; stroke-width: 0.5; stroke-dasharray: 7.0,7.0;"/><polygon fill="#000000" points="649.324,603.7462,658.6502,600.5805,652.9979,600.3546,653.2237,594.7023,649.324,603.7462" style="stroke: #000000; stroke-width: 0.5;"/><!--MD5=[d80f597ef9c43ab3fc662f9b7fe01968]
link _entities_User to _EntityWithIdAndTimestamps--><path d="M531.142,572.1499 C539.171,580.5743 549.07,590.9594 557.591,599.8996 " fill="none" id="_entities_User-&gt;_EntityWithIdAndTimestamps" style="stroke: #000000; stroke-width: 0.5; stroke-dasharray: 7.0,7.0;"/><polygon fill="#000000" points="561.149,603.6327,557.8358,594.3578,557.6996,600.0131,552.0444,599.8768,561.149,603.6327" style="stroke: #000000; stroke-width: 0.5;"/><!--MD5=[2d6b21759ce17737018b6286045c33fa]
link _EventLog to _EntityWithIdAndTimestamps--><path d="M604.412,572.1499 C599.716,580.2734 593.966,590.2201 588.927,598.9363 " fill="none" id="_EventLog-&gt;_EntityWithIdAndTimestamps" style="stroke: #000000; stroke-width: 0.5; stroke-dasharray: 7.0,7.0;"/><polygon fill="#000000" points="586.211,603.6327,594.1786,597.8433,588.7136,599.3041,587.2528,593.8391,586.211,603.6327" style="stroke: #000000; stroke-width: 0.5;"/><!--MD5=[6a9264a88048c69b2db5861303b4aafb]
link _models_Apartment to _models_User--><path d="M136.733,508.29 C141.409,515.918 147.033,525.094 152.011,533.216 " fill="none" id="_models_Apartment-&gt;_models_User" style="stroke: #000000; stroke-width: 0.5; stroke-dasharray: 7.0,7.0;"/><polygon fill="#000000" points="154.7,537.604,153.4071,527.8404,152.0871,533.3411,146.5864,532.021,154.7,537.604" style="stroke: #000000; stroke-width: 0.5;"/><!--MD5=[afa5ff013eb80bbadf484fee2552db1b]
link routes to _apartment_controller--><path d="M559.22,74.373 C523.399,79.525 459.513,91.354 409.749,115 C389.46,124.64 369.248,140.156 354.774,152.567 " fill="none" id="routes-&gt;_apartment_controller" style="stroke: #000000; stroke-width: 0.5;"/><polygon fill="#000000" points="350.848,155.978,360.265,153.0936,354.622,152.6982,355.0174,147.0552,350.848,155.978" style="stroke: #000000; stroke-width: 0.5;"/><!--MD5=[a6574b0883c99c33d1c1e34f472f0782]
link routes to _auth_controller--><path d="M586.749,83.385 C586.749,100.115 586.749,130.19 586.749,150.615 " fill="none" id="routes-&gt;_auth_controller" style="stroke: #000000; stroke-width: 0.5;"/><polygon fill="#000000" points="586.749,155.843,590.749,146.843,586.749,150.843,582.749,146.843,586.749,155.843" style="stroke: #000000; stroke-width: 0.5;"/><!--MD5=[562440ee5b2be334a30381992739c0d2]
link routes to auth.jwt--><path d="M595.675,82.579 C602.345,90.499 612.115,100.673 622.749,107 C633.505,113.4 640.489,106.58 649.749,115 C726.944,185.187 749.993,318.224 755.923,365.66 " fill="none" id="routes-&gt;auth.jwt" style="stroke: #000000; stroke-width: 0.5;"/><polygon fill="#000000" points="756.535,370.755,759.4342,361.3425,755.9393,365.7906,751.4912,362.2957,756.535,370.755" style="stroke: #000000; stroke-width: 0.5;"/><!--MD5=[c3d2556c4d629c2bc3d7bb124fdead71]
link routes to _user_controller--><path d="M571.801,81.346 C559.627,89.96 542.159,102.753 527.749,115 C513.904,126.768 499.206,140.963 487.943,152.243 " fill="none" id="routes-&gt;_user_controller" style="stroke: #000000; stroke-width: 0.5;"/><polygon fill="#000000" points="484.261,155.949,493.4412,152.3819,487.7844,152.4013,487.7649,146.7445,484.261,155.949" style="stroke: #000000; stroke-width: 0.5;"/><!--MD5=[58b1ddf9e3fd87978458e42747798e8d]
link <b>server</b> to _Auth--><path d="M653.662,82.797 C646.349,91.273 635.257,102.044 622.749,107 C603.738,114.533 271.704,103.568 254.749,115 C139.038,193.022 181.132,287.455 204.749,425 C207.36,440.206 213.172,456.577 218.3,469.086 " fill="none" id="&lt;b&gt;server&lt;/b&gt;-&gt;_Auth" style="stroke: #000000; stroke-width: 1.0;"/><polygon fill="#000000" points="220.297,473.851,220.507,464.0044,218.3642,469.2397,213.1289,467.0969,220.297,473.851" style="stroke: #000000; stroke-width: 1.0;"/><!--MD5=[322b45c47471d12b6d49db8397c5ba50]
link <b>server</b> to auth.jwt--><path d="M684.299,79.705 C699.102,86.878 717.811,98.556 727.749,115 C777.662,197.592 766.648,320.924 760.461,365.849 " fill="none" id="&lt;b&gt;server&lt;/b&gt;-&gt;auth.jwt" style="stroke: #000000; stroke-width: 1.0;"/><polygon fill="#000000" points="759.735,370.931,764.9679,362.5874,760.4423,365.9813,757.0484,361.4557,759.735,370.931" style="stroke: #000000; stroke-width: 1.0;"/><!--MD5=[5dcf67e50701372d1e4b38ad174e1bd8]
link <b>server</b> to logger--><path d="M692.165,75.269 C720.871,80.617 764.643,92.026 795.749,115 C888.302,183.357 910.759,216.39 945.749,326 C959.13,367.916 963.192,384.605 945.749,425 C936.029,447.511 914.251,465.836 897.743,477.223 " fill="none" id="&lt;b&gt;server&lt;/b&gt;-&gt;logger" style="stroke: #000000; stroke-width: 1.0;"/><polygon fill="#000000" points="893.241,480.248,902.9421,478.5485,897.3911,477.4594,898.4803,471.9083,893.241,480.248" style="stroke: #000000; stroke-width: 1.0;"/><!--MD5=[918f1540acef5cbfe8e12ed9833e65d6]
link <b>server</b> to _models_User--><path d="M653.667,82.81 C646.357,91.293 635.266,102.067 622.749,107 C576.844,125.091 224.35,96.154 178.749,115 C82.4488,154.799 9.7491,173.3 9.7491,277.5 C9.7491,277.5 9.7491,277.5 9.7491,385 C9.7491,449.762 -7.8481,482.01 37.7491,528 C48.3094,538.651 82.3011,545.259 112.462,549.147 " fill="none" id="&lt;b&gt;server&lt;/b&gt;-&gt;_models_User" style="stroke: #000000; stroke-width: 1.0;"/><polygon fill="#000000" points="117.653,549.795,109.2185,544.7099,112.6916,549.175,108.2265,552.6481,117.653,549.795" style="stroke: #000000; stroke-width: 1.0;"/><!--MD5=[b5550d8c7cbc955c7a41f0bf9d55f796]
link <b>server</b> to routes--><path d="M630.501,70 C627.295,70 624.088,70 620.882,70 " fill="none" id="&lt;b&gt;server&lt;/b&gt;-&gt;routes" style="stroke: #000000; stroke-width: 1.0; stroke-dasharray: 7.0,7.0;"/><polygon fill="#000000" points="615.843,70,624.843,74,620.843,70,624.843,66,615.843,70" style="stroke: #000000; stroke-width: 1.0;"/><!--MD5=[b7da318761176cd6308606b45640b193]
link <b>server</b> to _TypeORMLogger--><path d="M688.757,77.616 C709.365,84.065 737.614,95.766 755.749,115 C825.143,188.601 852.225,312.539 860.596,361.844 " fill="none" id="&lt;b&gt;server&lt;/b&gt;-&gt;_TypeORMLogger" style="stroke: #000000; stroke-width: 1.0;"/><polygon fill="#000000" points="861.438,366.931,863.9161,357.399,860.6223,361.998,856.0233,358.7042,861.438,366.931" style="stroke: #000000; stroke-width: 1.0;"/><!--MD5=[e740ba654b198251af9249c33f84db62]
link _TypeORMLogger to logger--><path d="M865.78,401.406 C868.193,420.891 872.197,453.231 874.642,472.98 " fill="none" id="_TypeORMLogger-&gt;logger" style="stroke: #000000; stroke-width: 0.5; stroke-dasharray: 7.0,7.0;"/><polygon fill="#000000" points="875.258,477.955,878.1218,468.5317,874.6436,472.9929,870.1824,469.5147,875.258,477.955" style="stroke: #000000; stroke-width: 0.5;"/><!--MD5=[f9d07b912afd61cfb43e6511e1d68859]
link _user_controller to auth.jwt--><path d="M487.012,190.143 C498.017,198.858 512.767,208.858 527.749,214 C553.447,222.82 626.645,207.704 649.749,222 C691.754,247.991 677.801,277.272 705.749,318 C717.797,335.557 733.202,354.437 744.109,367.3 " fill="none" id="_user_controller-&gt;auth.jwt" style="stroke: #000000; stroke-width: 0.5;"/><polygon fill="#000000" points="747.624,371.421,744.8276,361.9775,744.3796,367.6166,738.7405,367.1685,747.624,371.421" style="stroke: #000000; stroke-width: 0.5;"/><!--MD5=[0fb2ab3080e68b16e7150866435982e3]
link _user_controller to _models_User--><path d="M450.442,190.083 C439.225,198.894 424.109,209.012 408.749,214 C387.596,220.869 228.354,211.5 208.749,222 C106.635,276.689 91.4934,322.816 55.7491,433 C42.7205,473.162 29.5853,494.861 55.7491,528 C63.0929,537.302 88.1345,543.638 112.365,547.726 " fill="none" id="_user_controller-&gt;_models_User" style="stroke: #000000; stroke-width: 0.5;"/><polygon fill="#000000" points="117.517,548.564,109.2762,543.1705,112.5819,547.761,107.9914,551.0667,117.517,548.564" style="stroke: #000000; stroke-width: 0.5;"/><!--MD5=[097b81be3c6bf7c7e3a5dba365f1a503]
link _user_controller to user.service--><path d="M468.593,190.172 C468.409,209.192 468.105,240.641 467.917,260.155 " fill="none" id="_user_controller-&gt;user.service" style="stroke: #000000; stroke-width: 0.5;"/><polygon fill="#000000" points="467.867,265.323,471.9542,256.3623,467.9156,260.3232,463.9546,256.2846,467.867,265.323" style="stroke: #000000; stroke-width: 0.5;"/><!--MD5=[91323e5e891003a8aa47e6c2bae4dadc]
link user.repository to _entities_User--><path d="M517.404,397.565 C504.419,406.826 485.402,418.84 466.749,425 C449.784,430.602 398.738,419.753 386.749,433 C358.418,464.306 360.005,495.328 386.749,528 C396.605,540.04 432.494,546.629 463.922,550.158 " fill="none" id="user.repository-&gt;_entities_User" style="stroke: #000000; stroke-width: 0.5;"/><polygon fill="#000000" points="468.923,550.699,460.4048,545.7554,463.9519,550.1619,459.5454,553.7091,468.923,550.699" style="stroke: #000000; stroke-width: 0.5;"/><!--MD5=[8b3a2cc741c76eb341206bb75debbab7]
link user.repository to _EventLog--><path d="M504.554,396.284 C488.823,404.046 470.823,416.046 461.749,433 C441.826,470.226 433.303,496.798 461.749,528 C477.988,545.812 546.23,532.727 569.749,538 C570.701,538.213 571.66,538.442 572.624,538.684 " fill="none" id="user.repository-&gt;_EventLog" style="stroke: #000000; stroke-width: 0.5;"/><polygon fill="#000000" points="577.469,539.994,569.8257,533.7828,572.6425,538.6884,567.7368,541.5052,577.469,539.994" style="stroke: #000000; stroke-width: 0.5;"/><!--MD5=[268a1c9652f8bd851d1a6e5346c68370]
link user.repository to _models_User--><path d="M517.709,397.489 C504.74,406.839 485.598,419.006 466.749,425 C444.871,431.957 384.141,422.453 363.749,433 C314.973,458.227 331.701,499.521 284.749,528 C264.416,540.333 239.015,546.855 216.825,550.288 " fill="none" id="user.repository-&gt;_models_User" style="stroke: #000000; stroke-width: 0.5;"/><polygon fill="#000000" points="211.849,551.015,221.3327,553.6721,216.7965,550.2923,220.1763,545.7561,211.849,551.015" style="stroke: #000000; stroke-width: 0.5;"/><!--MD5=[b64e42995474d859eb56ab10f112be97]
link user.service to _models_User--><path d="M453.997,291.168 C442.458,300.223 425.118,312.181 407.749,318 C385.56,325.434 320.437,310.679 302.749,326 C233.226,386.221 321.028,461.248 257.749,528 C247.076,539.259 231.967,545.776 217.024,549.507 " fill="none" id="user.service-&gt;_models_User" style="stroke: #000000; stroke-width: 0.5;"/><polygon fill="#000000" points="211.969,550.669,221.6362,552.5519,216.842,549.5493,219.8447,544.7551,211.969,550.669" style="stroke: #000000; stroke-width: 0.5;"/><!--MD5=[063e2d6f822dd6550b1063ec9215e714]
link user.service to user.repository--><path d="M475.32,291.373 C486.953,309.615 509.283,344.632 522.716,365.698 " fill="none" id="user.service-&gt;user.repository" style="stroke: #000000; stroke-width: 0.5;"/><polygon fill="#000000" points="525.44,369.97,523.9755,360.2306,522.7525,365.7537,517.2294,364.5307,525.44,369.97" style="stroke: #000000; stroke-width: 0.5;"/><script type="text/plantuml"><![CDATA[MD5=[bbdbf23370b28dad5a466d5ad1998461]
@startuml

scale max 1920 width
top to bottom direction

skinparam nodesep 15
skinparam ranksep 30
skinparam monochrome true
skinparam shadowing false
skinparam defaultFontName Tahoma
skinparam defaultFontSize 12
skinparam roundCorner 6
skinparam dpi 150
skinparam arrowColor black
skinparam arrowThickness 0.5
skinparam packageTitleAlignment left

skinparam usecase {
  borderThickness 0.5
}

skinparam rectangle {
  borderThickness 0.5
}

skinparam component {
  borderThickness 1
}


package "Server & Router" {
  (routes)
  (<b>server</b>)
}

package "Controllers" {
  rectangle "apartment.controller" as _apartment_controller
  rectangle "auth.controller" as _auth_controller
  rectangle "user.controller" as _user_controller
}

package "Middlewares" {
  (auth.jwt)
  (logger)
  rectangle "TypeORMLogger" as _TypeORMLogger
}

package "Models" {
  rectangle "Auth" as _Auth
  rectangle "models/Apartment" as _models_Apartment
  rectangle "models/User" as _models_User
}

package "Services" {
  (apartment.service)
  (auth.service)
  (user.service)
}

package "Repositories" {
  (apartment.repository)
  (user.repository)
}

package "Entities" {
  rectangle "entities/Apartment" as _entities_Apartment
  rectangle "entities/User" as _entities_User
  rectangle "EntityWithIdAndTimestamps" as _EntityWithIdAndTimestamps
  rectangle "EventLog" as _EventLog
}

_apartment_controller --> (apartment.service)
_apartment_controller --> _models_Apartment
(apartment.repository) --> _entities_Apartment
(apartment.repository) --> _entities_User
(apartment.repository) --> _models_Apartment
(apartment.service) --> (apartment.repository)
(apartment.service) --> _models_Apartment
_auth_controller --> _Auth
_auth_controller --> (auth.service)
_auth_controller --> (logger)
(auth.jwt) --> _Auth
(auth.jwt) ..> (logger)
(auth.jwt) --> _models_User
(auth.service) --> _Auth
(auth.service) --> (auth.jwt)
(auth.service) --> (user.repository)
_entities_Apartment ..> _entities_User
_entities_Apartment ..> _EntityWithIdAndTimestamps
_entities_User ..> _EntityWithIdAndTimestamps
_EventLog ..> _EntityWithIdAndTimestamps
_models_Apartment ..> _models_User
(routes) --> _apartment_controller
(routes) --> _auth_controller
(routes) --> (auth.jwt)
(routes) --> _user_controller
(<b>server</b>) -[thickness=1]> _Auth
(<b>server</b>) -[thickness=1]> (auth.jwt)
(<b>server</b>) -[thickness=1]> (logger)
(<b>server</b>) -[thickness=1]> _models_User
(<b>server</b>) .[thickness=1]> (routes)
(<b>server</b>) -[thickness=1]> _TypeORMLogger
_TypeORMLogger ..> (logger)
_user_controller --> (auth.jwt)
_user_controller --> _models_User
_user_controller --> (user.service)
(user.repository) --> _entities_User
(user.repository) --> _EventLog
(user.repository) --> _models_User
(user.service) --> _models_User
(user.service) --> (user.repository)

@enduml


' View and edit on https://arkit.pro
]]></script></g></svg>