<?xml version="1.0" encoding="UTF-8" standalone="no"?><svg xmlns="http://www.w3.org/2000/svg" xmlns:xlink="http://www.w3.org/1999/xlink" contentScriptType="application/ecmascript" contentStyleType="text/css" height="666px" preserveAspectRatio="none" style="width:951px;height:666px;" version="1.1" viewBox="0 0 951 666" width="951px" zoomAndPan="magnify"><defs/><g><!--MD5=[81da1a12a6ffceb0b7ff692a5ac8efc2]
cluster Server & Router--><path d="M194.199,24 L297.199,24 A4.5,4.5 0 0 1 300.199,27 L307.199,44.4844 L357.199,44.4844 A3,3 0 0 1 360.199,47.4844 L360.199,96 A3,3 0 0 1 357.199,99 L194.199,99 A3,3 0 0 1 191.199,96 L191.199,27 A3,3 0 0 1 194.199,24 " fill="#FFFFFF" style="stroke: #000000; stroke-width: 1.5;"/><line style="stroke: #000000; stroke-width: 1.5;" x1="191.199" x2="307.199" y1="44.4844" y2="44.4844"/><text fill="#000000" font-family="Tahoma, sans-serif" font-size="12" font-weight="bold" lengthAdjust="spacingAndGlyphs" textLength="103" x="195.199" y="38.0059">Server &amp; Router</text><!--MD5=[ed1d20ea533a2a0e7df5ba3c35e56ced]
cluster Controllers--><path d="M250.199,123 L324.199,123 A4.5,4.5 0 0 1 327.199,126 L334.199,143.4844 L649.199,143.4844 A3,3 0 0 1 652.199,146.4844 L652.199,203 A3,3 0 0 1 649.199,206 L250.199,206 A3,3 0 0 1 247.199,203 L247.199,126 A3,3 0 0 1 250.199,123 " fill="#FFFFFF" style="stroke: #000000; stroke-width: 1.5;"/><line style="stroke: #000000; stroke-width: 1.5;" x1="247.199" x2="334.199" y1="143.4844" y2="143.4844"/><text fill="#000000" font-family="Tahoma, sans-serif" font-size="12" font-weight="bold" lengthAdjust="spacingAndGlyphs" textLength="74" x="251.199" y="137.0059">Controllers</text><!--MD5=[01444e0f60f2f1f3466acc3cffdc895e]
cluster Middlewares--><path d="M53.1991,334 L134.1991,334 A4.5,4.5 0 0 1 137.1991,337 L144.1991,354.4844 L276.199,354.4844 A3,3 0 0 1 279.199,357.4844 L279.199,517 A3,3 0 0 1 276.199,520 L53.1991,520 A3,3 0 0 1 50.1991,517 L50.1991,337 A3,3 0 0 1 53.1991,334 " fill="#FFFFFF" style="stroke: #000000; stroke-width: 1.5;"/><line style="stroke: #000000; stroke-width: 1.5;" x1="50.1991" x2="144.1991" y1="354.4844" y2="354.4844"/><text fill="#000000" font-family="Tahoma, sans-serif" font-size="12" font-weight="bold" lengthAdjust="spacingAndGlyphs" textLength="81" x="54.1991" y="348.0059">Middlewares</text><!--MD5=[027ebfd53c01aea08f474edbf35d0797]
cluster Models--><path d="M614.199,441 L661.199,441 A4.5,4.5 0 0 1 664.199,444 L671.199,461.4844 L936.199,461.4844 A3,3 0 0 1 939.199,464.4844 L939.199,521 A3,3 0 0 1 936.199,524 L614.199,524 A3,3 0 0 1 611.199,521 L611.199,444 A3,3 0 0 1 614.199,441 " fill="#FFFFFF" style="stroke: #000000; stroke-width: 1.5;"/><line style="stroke: #000000; stroke-width: 1.5;" x1="611.199" x2="671.199" y1="461.4844" y2="461.4844"/><text fill="#000000" font-family="Tahoma, sans-serif" font-size="12" font-weight="bold" lengthAdjust="spacingAndGlyphs" textLength="47" x="615.199" y="455.0059">Models</text><!--MD5=[cdfd548b3455e70392372b1f27091970]
cluster Services--><path d="M251.199,230 L308.199,230 A4.5,4.5 0 0 1 311.199,233 L318.199,250.4844 L647.199,250.4844 A3,3 0 0 1 650.199,253.4844 L650.199,307 A3,3 0 0 1 647.199,310 L251.199,310 A3,3 0 0 1 248.199,307 L248.199,233 A3,3 0 0 1 251.199,230 " fill="#FFFFFF" style="stroke: #000000; stroke-width: 1.5;"/><line style="stroke: #000000; stroke-width: 1.5;" x1="248.199" x2="318.199" y1="250.4844" y2="250.4844"/><text fill="#000000" font-family="Tahoma, sans-serif" font-size="12" font-weight="bold" lengthAdjust="spacingAndGlyphs" textLength="57" x="252.199" y="244.0059">Services</text><!--MD5=[600c2d25b6889bd4e9f6b335204b22ae]
cluster Repositories--><path d="M311.199,334 L395.199,334 A4.5,4.5 0 0 1 398.199,337 L405.199,354.4844 L616.199,354.4844 A3,3 0 0 1 619.199,357.4844 L619.199,414 A3,3 0 0 1 616.199,417 L311.199,417 A3,3 0 0 1 308.199,414 L308.199,337 A3,3 0 0 1 311.199,334 " fill="#FFFFFF" style="stroke: #000000; stroke-width: 1.5;"/><line style="stroke: #000000; stroke-width: 1.5;" x1="308.199" x2="405.199" y1="354.4844" y2="354.4844"/><text fill="#000000" font-family="Tahoma, sans-serif" font-size="12" font-weight="bold" lengthAdjust="spacingAndGlyphs" textLength="84" x="312.199" y="348.0059">Repositories</text><!--MD5=[114f4823940f317c08f5bedd633c9afd]
cluster Entities--><path d="M353.199,441 L403.199,441 A4.5,4.5 0 0 1 406.199,444 L413.199,461.4844 L577.199,461.4844 A3,3 0 0 1 580.199,464.4844 L580.199,651 A3,3 0 0 1 577.199,654 L353.199,654 A3,3 0 0 1 350.199,651 L350.199,444 A3,3 0 0 1 353.199,441 " fill="#FFFFFF" style="stroke: #000000; stroke-width: 1.5;"/><line style="stroke: #000000; stroke-width: 1.5;" x1="350.199" x2="413.199" y1="461.4844" y2="461.4844"/><text fill="#000000" font-family="Tahoma, sans-serif" font-size="12" font-weight="bold" lengthAdjust="spacingAndGlyphs" textLength="50" x="354.199" y="455.0059">Entities</text><ellipse cx="315.362" cy="70.242" fill="#F8F8F8" rx="29.163" ry="13.242" style="stroke: #383838; stroke-width: 0.5;"/><text fill="#000000" font-family="Tahoma, sans-serif" font-size="12" lengthAdjust="spacingAndGlyphs" textLength="37" x="296.862" y="73.9842">routes</text><ellipse cx="239.1904" cy="70.242" fill="#F8F8F8" rx="31.9914" ry="13.242" style="stroke: #383838; stroke-width: 0.5;"/><text fill="#000000" font-family="Tahoma, sans-serif" font-size="12" font-weight="bold" lengthAdjust="spacingAndGlyphs" textLength="41" x="218.6904" y="73.9842">server</text><!--MD5=[9e96457d60a40d7b446d98a35d5539e5]
entity _apartment_controller--><rect fill="#F8F8F8" height="34.4844" rx="3" ry="3" style="stroke: #000000; stroke-width: 0.5;" width="136" x="500.199" y="156"/><text fill="#000000" font-family="Tahoma, sans-serif" font-size="12" lengthAdjust="spacingAndGlyphs" textLength="116" x="510.199" y="178.0059">apartment.controller</text><!--MD5=[d06a8b9102defe736655824e5da7ce2d]
entity _auth_controller--><rect fill="#F8F8F8" height="34.4844" rx="3" ry="3" style="stroke: #000000; stroke-width: 0.5;" width="103" x="263.699" y="156"/><text fill="#000000" font-family="Tahoma, sans-serif" font-size="12" lengthAdjust="spacingAndGlyphs" textLength="83" x="273.699" y="178.0059">auth.controller</text><!--MD5=[d86e588f3408319142292d1b5d5a3230]
entity _user_controller--><rect fill="#F8F8F8" height="34.4844" rx="3" ry="3" style="stroke: #000000; stroke-width: 0.5;" width="103" x="381.699" y="156"/><text fill="#000000" font-family="Tahoma, sans-serif" font-size="12" lengthAdjust="spacingAndGlyphs" textLength="83" x="391.699" y="178.0059">user.controller</text><ellipse cx="228.0188" cy="384.242" fill="#F8F8F8" rx="34.8198" ry="13.242" style="stroke: #383838; stroke-width: 0.5;"/><text fill="#000000" font-family="Tahoma, sans-serif" font-size="12" lengthAdjust="spacingAndGlyphs" textLength="45" x="205.5188" y="387.9842">auth.jwt</text><ellipse cx="108.1548" cy="491.242" fill="#F8F8F8" rx="28.4558" ry="13.242" style="stroke: #383838; stroke-width: 0.5;"/><text fill="#000000" font-family="Tahoma, sans-serif" font-size="12" lengthAdjust="spacingAndGlyphs" textLength="36" x="90.1548" y="494.9842">logger</text><!--MD5=[f24447cfbda88c07e91dd3d7c0c3db79]
entity _TypeORMLogger--><rect fill="#F8F8F8" height="34.4844" rx="3" ry="3" style="stroke: #000000; stroke-width: 0.5;" width="112" x="66.1991" y="367"/><text fill="#000000" font-family="Tahoma, sans-serif" font-size="12" lengthAdjust="spacingAndGlyphs" textLength="92" x="76.1991" y="389.0059">TypeORMLogger</text><!--MD5=[090835527c10669de3872c7ae72a3e7a]
entity _Auth--><rect fill="#F8F8F8" height="34.4844" rx="3" ry="3" style="stroke: #000000; stroke-width: 0.5;" width="45" x="627.699" y="474"/><text fill="#000000" font-family="Tahoma, sans-serif" font-size="12" lengthAdjust="spacingAndGlyphs" textLength="25" x="637.699" y="496.0059">Auth</text><!--MD5=[a59e0cdbfcc9060e410ebd05378c71bb]
entity _models_Apartment--><rect fill="#F8F8F8" height="34.4844" rx="3" ry="3" style="stroke: #000000; stroke-width: 0.5;" width="126" x="797.199" y="474"/><text fill="#000000" font-family="Tahoma, sans-serif" font-size="12" lengthAdjust="spacingAndGlyphs" textLength="106" x="807.199" y="496.0059">models/Apartment</text><!--MD5=[4c029acf0569c1dbcb6e2b5523401c80]
entity _models_User--><rect fill="#F8F8F8" height="34.4844" rx="3" ry="3" style="stroke: #000000; stroke-width: 0.5;" width="94" x="688.199" y="474"/><text fill="#000000" font-family="Tahoma, sans-serif" font-size="12" lengthAdjust="spacingAndGlyphs" textLength="74" x="698.199" y="496.0059">models/User</text><ellipse cx="568.2468" cy="278.5096" fill="#F8F8F8" rx="65.5478" ry="15.5096" style="stroke: #383838; stroke-width: 0.5;"/><text fill="#000000" font-family="Tahoma, sans-serif" font-size="12" lengthAdjust="spacingAndGlyphs" textLength="102" x="517.2468" y="282.2518">apartment.service</text><ellipse cx="315.9894" cy="278.742" fill="#F8F8F8" rx="51.7904" ry="13.242" style="stroke: #383838; stroke-width: 0.5;"/><text fill="#000000" font-family="Tahoma, sans-serif" font-size="12" lengthAdjust="spacingAndGlyphs" textLength="69" x="281.4894" y="282.4842">auth.service</text><ellipse cx="434.9894" cy="278.742" fill="#F8F8F8" rx="51.7904" ry="13.242" style="stroke: #383838; stroke-width: 0.5;"/><text fill="#000000" font-family="Tahoma, sans-serif" font-size="12" lengthAdjust="spacingAndGlyphs" textLength="69" x="400.4894" y="282.4842">user.service</text><ellipse cx="530.3516" cy="383.9305" fill="#F8F8F8" rx="72.6526" ry="16.9305" style="stroke: #383838; stroke-width: 0.5;"/><text fill="#000000" font-family="Tahoma, sans-serif" font-size="12" lengthAdjust="spacingAndGlyphs" textLength="119" x="470.8516" y="387.6727">apartment.repository</text><ellipse cx="383.4149" cy="384.2432" fill="#F8F8F8" rx="59.2159" ry="14.2432" style="stroke: #383838; stroke-width: 0.5;"/><text fill="#000000" font-family="Tahoma, sans-serif" font-size="12" lengthAdjust="spacingAndGlyphs" textLength="86" x="340.4149" y="387.9854">user.repository</text><!--MD5=[2026c0bd7f4956f7b059870106b72831]
entity _entities_Apartment--><rect fill="#F8F8F8" height="34.4844" rx="3" ry="3" style="stroke: #000000; stroke-width: 0.5;" width="125" x="438.699" y="474"/><text fill="#000000" font-family="Tahoma, sans-serif" font-size="12" lengthAdjust="spacingAndGlyphs" textLength="105" x="448.699" y="496.0059">entities/Apartment</text><!--MD5=[147a91f99759f6cb8c425b4553f458eb]
entity _entities_User--><rect fill="#F8F8F8" height="34.4844" rx="3" ry="3" style="stroke: #000000; stroke-width: 0.5;" width="93" x="470.699" y="540"/><text fill="#000000" font-family="Tahoma, sans-serif" font-size="12" lengthAdjust="spacingAndGlyphs" textLength="73" x="480.699" y="562.0059">entities/User</text><!--MD5=[6970322dd021e8bde36f20252f8dcdf3]
entity _EntityWithIdAndTimestamps--><rect fill="#F8F8F8" height="34.4844" rx="3" ry="3" style="stroke: #000000; stroke-width: 0.5;" width="180" x="366.199" y="604"/><text fill="#000000" font-family="Tahoma, sans-serif" font-size="12" lengthAdjust="spacingAndGlyphs" textLength="160" x="376.199" y="626.0059">EntityWithIdAndTimestamps</text><!--MD5=[df7b7da2504707e2c9c337bf9ecd3425]
entity _EventLog--><rect fill="#F8F8F8" height="34.4844" rx="3" ry="3" style="stroke: #000000; stroke-width: 0.5;" width="72" x="366.199" y="540"/><text fill="#000000" font-family="Tahoma, sans-serif" font-size="12" lengthAdjust="spacingAndGlyphs" textLength="52" x="376.199" y="562.0059">EventLog</text><!--MD5=[6cc8762ce868c43b85eddf0415429863]
link _apartment_controller to apartment.service--><path d="M568.199,190.172 C568.199,208.439 568.199,238.168 568.199,257.781 " fill="none" id="_apartment_controller-&gt;apartment.service" style="stroke: #000000; stroke-width: 0.5;"/><polygon fill="#000000" points="568.199,262.781,572.199,253.781,568.199,257.781,564.199,253.781,568.199,262.781" style="stroke: #000000; stroke-width: 0.5;"/><!--MD5=[0858b8ca08335c7aefde438a5d5b3e8c]
link _apartment_controller to auth.jwt--><path d="M544.372,190.129 C529.945,198.956 510.792,209.074 492.199,214 C479.357,217.402 263.142,213.189 253.199,222 C212.004,258.505 218.99,332.536 224.713,365.953 " fill="none" id="_apartment_controller-&gt;auth.jwt" style="stroke: #000000; stroke-width: 0.5;"/><polygon fill="#000000" points="225.613,370.956,227.9583,361.3905,224.7288,366.0348,220.0844,362.8053,225.613,370.956" style="stroke: #000000; stroke-width: 0.5;"/><!--MD5=[c20c81bcba0db35d3dd628bd55f33ab8]
link _apartment_controller to _models_Apartment--><path d="M636.366,182.124 C689.551,189.787 757.731,202.959 778.199,222 C850.382,289.15 859.67,417.888 860.406,468.659 " fill="none" id="_apartment_controller-&gt;_models_Apartment" style="stroke: #000000; stroke-width: 0.5;"/><polygon fill="#000000" points="860.454,473.892,864.3716,464.8558,860.4083,468.8922,856.3719,464.9289,860.454,473.892" style="stroke: #000000; stroke-width: 0.5;"/><!--MD5=[9e470a0f4cc480046c2336c3151c48bb]
link apartment.repository to _entities_Apartment--><path d="M525.668,401.406 C520.645,419.591 512.53,448.974 507.036,468.868 " fill="none" id="apartment.repository-&gt;_entities_Apartment" style="stroke: #000000; stroke-width: 0.5;"/><polygon fill="#000000" points="505.699,473.709,511.9509,466.0989,507.0303,468.8895,504.2397,463.9689,505.699,473.709" style="stroke: #000000; stroke-width: 0.5;"/><!--MD5=[e8795b8090cf0242c71807e88ceeb1cb]
link apartment.repository to _entities_User--><path d="M548.764,400.8 C557.354,409.344 566.647,420.662 571.199,433 C586.429,474.28 595.175,495.106 571.199,532 C570.193,533.548 569.061,534.998 567.827,536.354 " fill="none" id="apartment.repository-&gt;_entities_User" style="stroke: #000000; stroke-width: 0.5;"/><polygon fill="#000000" points="563.837,540.152,573.1137,536.8441,567.4586,536.7047,567.598,531.0496,563.837,540.152" style="stroke: #000000; stroke-width: 0.5;"/><!--MD5=[86a44cc1d310c16ba3be45a680fb52f3]
link apartment.repository to _EventLog--><path d="M501.093,399.728 C485.731,407.411 466.523,416.877 449.199,425 C441.273,428.717 436.786,426.26 431.199,433 C407.049,462.139 402.277,507.856 401.734,534.579 " fill="none" id="apartment.repository-&gt;_EventLog" style="stroke: #000000; stroke-width: 0.5;"/><polygon fill="#000000" points="401.678,539.66,405.7781,530.7051,401.7337,534.6603,397.7786,530.616,401.678,539.66" style="stroke: #000000; stroke-width: 0.5;"/><!--MD5=[8f91c3bb19418fbc6b7e609ed91061ae]
link apartment.repository to _models_Apartment--><path d="M600.055,388.661 C653.836,393.637 728.922,405.366 789.199,433 C808.901,442.032 827.865,457.74 841.23,470.381 " fill="none" id="apartment.repository-&gt;_models_Apartment" style="stroke: #000000; stroke-width: 0.5;"/><polygon fill="#000000" points="844.847,473.858,841.1283,464.7382,841.2415,470.3939,835.5857,470.507,844.847,473.858" style="stroke: #000000; stroke-width: 0.5;"/><!--MD5=[2952776b15c6dbe5a1b163b1aff2571a]
link apartment.service to apartment.repository--><path d="M562.755,294.329 C556.247,312.055 545.311,341.84 537.929,361.945 " fill="none" id="apartment.service-&gt;apartment.repository" style="stroke: #000000; stroke-width: 0.5;"/><polygon fill="#000000" points="536.134,366.835,542.9925,359.7667,537.8584,362.1418,535.4834,357.0077,536.134,366.835" style="stroke: #000000; stroke-width: 0.5;"/><!--MD5=[cfc65d6c0cae18dcf3e5ca14ec95ff72]
link apartment.service to _models_Apartment--><path d="M628.649,284.489 C665.622,290.001 712.349,301.6 747.199,326 C800.113,363.047 835.974,433.357 851.494,468.656 " fill="none" id="apartment.service-&gt;_models_Apartment" style="stroke: #000000; stroke-width: 0.5;"/><polygon fill="#000000" points="853.636,473.602,853.73,463.7536,851.649,469.0138,846.3888,466.9328,853.636,473.602" style="stroke: #000000; stroke-width: 0.5;"/><!--MD5=[aaf6bb04ec7f0ad0e7dffbf36b8a8be6]
link _auth_controller to _Auth--><path d="M333.138,190.14 C344.146,198.971 359.009,209.09 374.199,214 C388.531,218.633 634.607,211.292 645.199,222 C711.643,289.17 675.842,418.362 658.18,468.952 " fill="none" id="_auth_controller-&gt;_Auth" style="stroke: #000000; stroke-width: 0.5;"/><polygon fill="#000000" points="656.43,473.88,663.2108,466.7371,658.103,469.1682,655.6719,464.0604,656.43,473.88" style="stroke: #000000; stroke-width: 0.5;"/><!--MD5=[d54f8a898f2b2f93b3b33fade19514d3]
link _auth_controller to auth.service--><path d="M315.355,190.172 C315.539,209.192 315.843,240.641 316.032,260.155 " fill="none" id="_auth_controller-&gt;auth.service" style="stroke: #000000; stroke-width: 0.5;"/><polygon fill="#000000" points="316.081,265.323,319.9934,256.2846,316.0324,260.3232,311.9938,256.3623,316.081,265.323" style="stroke: #000000; stroke-width: 0.5;"/><!--MD5=[562c46d0512001f86390504dff043105]
link _auth_controller to logger--><path d="M263.562,186.333 C200.544,204.597 97.5274,245.693 58.1991,326 C38.8472,365.516 44.0308,383.344 58.1991,425 C64.9296,444.789 80.3848,463.258 92.344,475.413 " fill="none" id="_auth_controller-&gt;logger" style="stroke: #000000; stroke-width: 0.5;"/><polygon fill="#000000" points="95.9298,478.977,92.367,469.7952,92.3838,475.452,86.727,475.4688,95.9298,478.977" style="stroke: #000000; stroke-width: 0.5;"/><!--MD5=[572c719d8e046331fbd67b721e6b8c15]
link auth.jwt to _Auth--><path d="M245.014,395.458 C261.635,405.166 288.14,418.995 313.199,425 C369.845,438.573 520.288,413.564 575.199,433 C596.76,440.632 617.147,456.936 631.207,470.16 " fill="none" id="auth.jwt-&gt;_Auth" style="stroke: #000000; stroke-width: 0.5;"/><polygon fill="#000000" points="635.001,473.798,631.275,464.6812,631.3927,470.3368,625.737,470.4545,635.001,473.798" style="stroke: #000000; stroke-width: 0.5;"/><!--MD5=[d2d7d09a7514e225210c9e2c095de26d]
link auth.jwt to logger--><path d="M216.294,396.364 C207.74,404.457 195.882,415.532 185.199,425 C164.974,442.925 141.121,462.885 125.382,475.897 " fill="none" id="auth.jwt-&gt;logger" style="stroke: #000000; stroke-width: 0.5; stroke-dasharray: 7.0,7.0;"/><polygon fill="#000000" points="121.167,479.376,130.6541,476.7313,125.0229,476.193,125.5613,470.5618,121.167,479.376" style="stroke: #000000; stroke-width: 0.5;"/><!--MD5=[224bc9a7bec10d656533ed895f4a5b22]
link auth.jwt to _models_User--><path d="M245.003,395.506 C261.615,405.25 288.114,419.105 313.199,425 C352.905,434.331 642.833,416.647 680.199,433 C697.516,440.579 712.094,456.453 721.881,469.529 " fill="none" id="auth.jwt-&gt;_models_User" style="stroke: #000000; stroke-width: 0.5;"/><polygon fill="#000000" points="725.014,473.84,722.9574,464.2083,722.074,469.7957,716.4865,468.9123,725.014,473.84" style="stroke: #000000; stroke-width: 0.5;"/><!--MD5=[32ca86990d707716a406822f99e0a40d]
link auth.service to _Auth--><path d="M329.625,291.365 C340.915,300.534 357.937,312.55 375.199,318 C400.537,325.999 593.776,309.003 614.199,326 C656.376,361.101 655.991,433.255 652.832,468.992 " fill="none" id="auth.service-&gt;_Auth" style="stroke: #000000; stroke-width: 0.5;"/><polygon fill="#000000" points="652.351,473.991,657.194,465.4152,652.8296,469.014,649.2308,464.6495,652.351,473.991" style="stroke: #000000; stroke-width: 0.5;"/><!--MD5=[9e9f16af2e1b4bb8d9144e8ef5210e61]
link auth.service to auth.jwt--><path d="M306.104,291.373 C290.19,310.09 259.262,346.466 241.537,367.313 " fill="none" id="auth.service-&gt;auth.jwt" style="stroke: #000000; stroke-width: 0.5;"/><polygon fill="#000000" points="238.176,371.266,247.0534,367.0009,241.415,367.4569,240.9589,361.8185,238.176,371.266" style="stroke: #000000; stroke-width: 0.5;"/><!--MD5=[1383f3e222429f0733e643250a9c4b0e]
link auth.service to user.repository--><path d="M323.885,291.373 C335.694,309.615 358.362,344.632 371.999,365.698 " fill="none" id="auth.service-&gt;user.repository" style="stroke: #000000; stroke-width: 0.5;"/><polygon fill="#000000" points="374.764,369.97,373.2308,360.2412,372.0468,365.7728,366.5152,364.5887,374.764,369.97" style="stroke: #000000; stroke-width: 0.5;"/><!--MD5=[b5c23d07f236d1178bc1899d3effdd89]
link _entities_Apartment to _entities_User--><path d="M505.237,508.15 C507.23,516.123 509.662,525.852 511.812,534.451 " fill="none" id="_entities_Apartment-&gt;_entities_User" style="stroke: #000000; stroke-width: 0.5; stroke-dasharray: 7.0,7.0;"/><polygon fill="#000000" points="513.107,539.633,514.8041,529.9315,511.894,534.7824,507.0431,531.8723,513.107,539.633" style="stroke: #000000; stroke-width: 0.5;"/><!--MD5=[24755b029eafb07319e502a30c0f7013]
link _entities_Apartment to _EntityWithIdAndTimestamps--><path d="M484.41,508.212 C476.556,516.861 467.912,528.148 463.199,540 C455.748,558.74 454.482,581.8433 454.791,598.3964 " fill="none" id="_entities_Apartment-&gt;_EntityWithIdAndTimestamps" style="stroke: #000000; stroke-width: 0.5; stroke-dasharray: 7.0,7.0;"/><polygon fill="#000000" points="454.949,603.7432,458.6806,594.6286,454.8008,598.7454,450.6841,594.8657,454.949,603.7432" style="stroke: #000000; stroke-width: 0.5;"/><!--MD5=[d80f597ef9c43ab3fc662f9b7fe01968]
link _entities_User to _EntityWithIdAndTimestamps--><path d="M501.172,574.2898 C493.528,582.0596 484.304,591.4344 476.205,599.6664 " fill="none" id="_entities_User-&gt;_EntityWithIdAndTimestamps" style="stroke: #000000; stroke-width: 0.5; stroke-dasharray: 7.0,7.0;"/><polygon fill="#000000" points="472.331,603.6038,481.4943,599.9935,475.8376,600.0396,475.7916,594.3829,472.331,603.6038" style="stroke: #000000; stroke-width: 0.5;"/><!--MD5=[2d6b21759ce17737018b6286045c33fa]
link _EventLog to _EntityWithIdAndTimestamps--><path d="M416.387,574.2898 C423.154,582.0596 431.319,591.4344 438.489,599.6664 " fill="none" id="_EventLog-&gt;_EntityWithIdAndTimestamps" style="stroke: #000000; stroke-width: 0.5; stroke-dasharray: 7.0,7.0;"/><polygon fill="#000000" points="441.918,603.6038,439.0229,594.1901,438.6339,599.8335,432.9905,599.4446,441.918,603.6038" style="stroke: #000000; stroke-width: 0.5;"/><!--MD5=[afa5ff013eb80bbadf484fee2552db1b]
link routes to _apartment_controller--><path d="M342.728,74.373 C378.549,79.525 442.435,91.354 492.199,115 C512.488,124.64 532.7,140.156 547.174,152.567 " fill="none" id="routes-&gt;_apartment_controller" style="stroke: #000000; stroke-width: 0.5;"/><polygon fill="#000000" points="551.1,155.978,546.9287,147.0561,547.3253,152.6991,541.6823,153.0957,551.1,155.978" style="stroke: #000000; stroke-width: 0.5;"/><!--MD5=[a6574b0883c99c33d1c1e34f472f0782]
link routes to _auth_controller--><path d="M315.199,83.385 C315.199,100.115 315.199,130.19 315.199,150.615 " fill="none" id="routes-&gt;_auth_controller" style="stroke: #000000; stroke-width: 0.5;"/><polygon fill="#000000" points="315.199,155.843,319.199,146.843,315.199,150.843,311.199,146.843,315.199,155.843" style="stroke: #000000; stroke-width: 0.5;"/><!--MD5=[562440ee5b2be334a30381992739c0d2]
link routes to auth.jwt--><path d="M305.941,82.535 C299.046,90.435 288.993,100.602 278.199,107 C267.799,113.165 261.607,107.406 252.199,115 C209.774,149.246 205.98,169.248 192.199,222 C181.415,263.281 181.524,276.69 192.199,318 C196.856,336.02 207.699,354.375 216.276,366.963 " fill="none" id="routes-&gt;auth.jwt" style="stroke: #000000; stroke-width: 0.5;"/><polygon fill="#000000" points="219.317,371.329,217.454,361.6579,216.4587,367.2265,210.8901,366.2312,219.317,371.329" style="stroke: #000000; stroke-width: 0.5;"/><!--MD5=[c3d2556c4d629c2bc3d7bb124fdead71]
link routes to _user_controller--><path d="M330.148,81.346 C342.322,89.96 359.79,102.753 374.199,115 C388.044,126.768 402.743,140.963 414.005,152.243 " fill="none" id="routes-&gt;_user_controller" style="stroke: #000000; stroke-width: 0.5;"/><polygon fill="#000000" points="417.687,155.949,414.1831,146.7445,414.1636,152.4013,408.5068,152.3819,417.687,155.949" style="stroke: #000000; stroke-width: 0.5;"/><!--MD5=[58b1ddf9e3fd87978458e42747798e8d]
link <b>server</b> to _Auth--><path d="M247.996,82.791 C255.093,91.265 265.894,102.035 278.199,107 C297.214,114.673 631.05,102.365 647.199,115 C756.703,200.674 746.156,298.165 689.199,425 C687.007,429.882 683.499,428.786 680.199,433 C671.572,444.017 664.212,457.881 658.94,469.178 " fill="none" id="&lt;b&gt;server&lt;/b&gt;-&gt;_Auth" style="stroke: #000000; stroke-width: 1.0;"/><polygon fill="#000000" points="656.812,473.846,664.185,467.3161,658.8861,469.2965,656.9057,463.9976,656.812,473.846" style="stroke: #000000; stroke-width: 1.0;"/><!--MD5=[322b45c47471d12b6d49db8397c5ba50]
link <b>server</b> to auth.jwt--><path d="M211.681,76.64 C191.089,82.458 164.31,93.786 151.199,115 C103.7665,191.748 95.1828,247.274 151.199,318 C160.837,330.169 172.195,317.521 185.199,326 C200.551,336.01 212.512,353.469 219.879,366.434 " fill="none" id="&lt;b&gt;server&lt;/b&gt;-&gt;auth.jwt" style="stroke: #000000; stroke-width: 1.0;"/><polygon fill="#000000" points="222.383,370.986,221.5464,361.1727,219.9715,366.6059,214.5383,365.0311,222.383,370.986" style="stroke: #000000; stroke-width: 1.0;"/><!--MD5=[5dcf67e50701372d1e4b38ad174e1bd8]
link <b>server</b> to logger--><path d="M207.162,70.535 C171.124,71.856 113.429,79.843 81.1991,115 C-12.602,217.32 -9.9208,296.757 43.1991,425 C52.2984,446.968 72.8232,465.382 88.3921,476.938 " fill="none" id="&lt;b&gt;server&lt;/b&gt;-&gt;logger" style="stroke: #000000; stroke-width: 1.0;"/><polygon fill="#000000" points="92.6383,480.013,87.6946,471.4948,88.5885,477.0806,83.0027,477.9745,92.6383,480.013" style="stroke: #000000; stroke-width: 1.0;"/><!--MD5=[918f1540acef5cbfe8e12ed9833e65d6]
link <b>server</b> to _models_User--><path d="M247.993,82.8 C255.087,91.278 265.888,102.05 278.199,107 C299.749,115.664 677.894,100.704 696.199,115 C806.605,201.226 772.064,286.189 753.199,425 C751.153,440.057 746.556,456.552 742.52,469.158 " fill="none" id="&lt;b&gt;server&lt;/b&gt;-&gt;_models_User" style="stroke: #000000; stroke-width: 1.0;"/><polygon fill="#000000" points="740.949,473.959,747.5483,466.6481,742.5031,469.2067,739.9445,464.1615,740.949,473.959" style="stroke: #000000; stroke-width: 1.0;"/><!--MD5=[b5550d8c7cbc955c7a41f0bf9d55f796]
link <b>server</b> to routes--><path d="M271.262,70 C274.49,70 277.719,70 280.948,70 " fill="none" id="&lt;b&gt;server&lt;/b&gt;-&gt;routes" style="stroke: #000000; stroke-width: 1.0; stroke-dasharray: 7.0,7.0;"/><polygon fill="#000000" points="286.022,70,277.022,66,281.022,70,277.022,74,286.022,70" style="stroke: #000000; stroke-width: 1.0;"/><!--MD5=[b7da318761176cd6308606b45640b193]
link <b>server</b> to _TypeORMLogger--><path d="M207.584,72.146 C177.496,75.121 133.715,84.774 112.199,115 C57.7701,191.46 95.2572,313.673 113.656,362.18 " fill="none" id="&lt;b&gt;server&lt;/b&gt;-&gt;_TypeORMLogger" style="stroke: #000000; stroke-width: 1.0;"/><polygon fill="#000000" points="115.479,366.912,115.9767,357.0757,113.6818,362.2462,108.5114,359.9512,115.479,366.912" style="stroke: #000000; stroke-width: 1.0;"/><!--MD5=[e740ba654b198251af9249c33f84db62]
link _TypeORMLogger to logger--><path d="M120.012,401.406 C117.414,420.891 113.102,453.231 110.468,472.98 " fill="none" id="_TypeORMLogger-&gt;logger" style="stroke: #000000; stroke-width: 0.5; stroke-dasharray: 7.0,7.0;"/><polygon fill="#000000" points="109.805,477.955,114.9578,469.5616,110.4649,472.9987,107.0278,468.5058,109.805,477.955" style="stroke: #000000; stroke-width: 0.5;"/><!--MD5=[f9d07b912afd61cfb43e6511e1d68859]
link _user_controller to auth.jwt--><path d="M415.223,190.028 C404.202,198.82 389.339,208.937 374.199,214 C357.213,219.68 225.546,209.025 213.199,222 C175.573,261.542 203.756,333.895 219.486,366.406 " fill="none" id="_user_controller-&gt;auth.jwt" style="stroke: #000000; stroke-width: 0.5;"/><polygon fill="#000000" points="221.707,370.905,221.3076,361.0642,219.4927,366.4221,214.1349,364.6072,221.707,370.905" style="stroke: #000000; stroke-width: 0.5;"/><!--MD5=[0fb2ab3080e68b16e7150866435982e3]
link _user_controller to _models_User--><path d="M451.16,190.074 C462.176,198.882 477.039,208.999 492.199,214 C512.582,220.723 668.977,207.947 685.199,222 C758.002,285.07 746.652,417.231 738.937,468.774 " fill="none" id="_user_controller-&gt;_models_User" style="stroke: #000000; stroke-width: 0.5;"/><polygon fill="#000000" points="738.158,473.794,743.4894,465.5129,738.9239,468.853,735.5838,464.2875,738.158,473.794" style="stroke: #000000; stroke-width: 0.5;"/><!--MD5=[097b81be3c6bf7c7e3a5dba365f1a503]
link _user_controller to user.service--><path d="M433.512,190.172 C433.879,209.192 434.487,240.641 434.864,260.155 " fill="none" id="_user_controller-&gt;user.service" style="stroke: #000000; stroke-width: 0.5;"/><polygon fill="#000000" points="434.964,265.323,438.7884,256.247,434.8669,260.3239,430.7899,256.4024,434.964,265.323" style="stroke: #000000; stroke-width: 0.5;"/><!--MD5=[91323e5e891003a8aa47e6c2bae4dadc]
link user.repository to _entities_User--><path d="M383.539,398.123 C385.01,426.72 392.61,495.052 431.199,532 C436.631,537.201 450.3,541.907 465.182,545.747 " fill="none" id="user.repository-&gt;_entities_User" style="stroke: #000000; stroke-width: 0.5;"/><polygon fill="#000000" points="470.265,547.015,462.5022,540.9538,465.414,545.8037,460.564,548.7154,470.265,547.015" style="stroke: #000000; stroke-width: 0.5;"/><!--MD5=[8b3a2cc741c76eb341206bb75debbab7]
link user.repository to _EventLog--><path d="M378.291,397.964 C369.056,424.566 351.856,486.633 373.199,532 C373.783,533.242 374.467,534.441 375.229,535.597 " fill="none" id="user.repository-&gt;_EventLog" style="stroke: #000000; stroke-width: 0.5;"/><polygon fill="#000000" points="378.52,539.836,376.1601,530.2741,375.4537,535.8866,369.8411,535.1802,378.52,539.836" style="stroke: #000000; stroke-width: 0.5;"/><!--MD5=[268a1c9652f8bd851d1a6e5346c68370]
link user.repository to _models_User--><path d="M398.906,397.519 C411.84,407.019 431.096,419.372 450.199,425 C474.728,432.226 656.84,422.596 680.199,433 C697.467,440.691 712.048,456.557 721.85,469.601 " fill="none" id="user.repository-&gt;_models_User" style="stroke: #000000; stroke-width: 0.5;"/><polygon fill="#000000" points="724.987,473.901,722.9128,464.273,722.0396,469.8621,716.4506,468.9889,724.987,473.901" style="stroke: #000000; stroke-width: 0.5;"/><!--MD5=[b64e42995474d859eb56ab10f112be97]
link user.service to _models_User--><path d="M448.912,291.288 C460.428,300.412 477.757,312.405 495.199,318 C512.043,323.403 639.414,316.289 654.199,326 C704.289,358.9 724.547,432.417 731.735,468.788 " fill="none" id="user.service-&gt;_models_User" style="stroke: #000000; stroke-width: 0.5;"/><polygon fill="#000000" points="732.703,473.875,734.948,464.2854,731.7672,468.9633,727.0893,465.7826,732.703,473.875" style="stroke: #000000; stroke-width: 0.5;"/><!--MD5=[063e2d6f822dd6550b1063ec9215e714]
link user.service to user.repository--><path d="M429.03,291.779 C419.876,309.999 402.647,344.291 392.119,365.246 " fill="none" id="user.service-&gt;user.repository" style="stroke: #000000; stroke-width: 0.5;"/><polygon fill="#000000" points="389.852,369.759,397.4666,363.5126,392.0966,365.2912,390.3181,359.9212,389.852,369.759" style="stroke: #000000; stroke-width: 0.5;"/><script type="text/plantuml"><![CDATA[MD5=[a5b4e544825bf974cc594eed9371b900]
@startuml

scale max 1920 width
top to bottom direction

skinparam nodesep 15
skinparam ranksep 30
skinparam monochrome true
skinparam shadowing false
skinparam defaultFontName Tahoma
skinparam defaultFontSize 12
skinparam roundCorner 6
skinparam dpi 150
skinparam arrowColor black
skinparam arrowThickness 0.5
skinparam packageTitleAlignment left

skinparam usecase {
  borderThickness 0.5
}

skinparam rectangle {
  borderThickness 0.5
}

skinparam component {
  borderThickness 1
}


package "Server & Router" {
  (routes)
  (<b>server</b>)
}

package "Controllers" {
  rectangle "apartment.controller" as _apartment_controller
  rectangle "auth.controller" as _auth_controller
  rectangle "user.controller" as _user_controller
}

package "Middlewares" {
  (auth.jwt)
  (logger)
  rectangle "TypeORMLogger" as _TypeORMLogger
}

package "Models" {
  rectangle "Auth" as _Auth
  rectangle "models/Apartment" as _models_Apartment
  rectangle "models/User" as _models_User
}

package "Services" {
  (apartment.service)
  (auth.service)
  (user.service)
}

package "Repositories" {
  (apartment.repository)
  (user.repository)
}

package "Entities" {
  rectangle "entities/Apartment" as _entities_Apartment
  rectangle "entities/User" as _entities_User
  rectangle "EntityWithIdAndTimestamps" as _EntityWithIdAndTimestamps
  rectangle "EventLog" as _EventLog
}

_apartment_controller --> (apartment.service)
_apartment_controller --> (auth.jwt)
_apartment_controller --> _models_Apartment
(apartment.repository) --> _entities_Apartment
(apartment.repository) --> _entities_User
(apartment.repository) --> _EventLog
(apartment.repository) --> _models_Apartment
(apartment.service) --> (apartment.repository)
(apartment.service) --> _models_Apartment
_auth_controller --> _Auth
_auth_controller --> (auth.service)
_auth_controller --> (logger)
(auth.jwt) --> _Auth
(auth.jwt) ..> (logger)
(auth.jwt) --> _models_User
(auth.service) --> _Auth
(auth.service) --> (auth.jwt)
(auth.service) --> (user.repository)
_entities_Apartment ..> _entities_User
_entities_Apartment ..> _EntityWithIdAndTimestamps
_entities_User ..> _EntityWithIdAndTimestamps
_EventLog ..> _EntityWithIdAndTimestamps
(routes) --> _apartment_controller
(routes) --> _auth_controller
(routes) --> (auth.jwt)
(routes) --> _user_controller
(<b>server</b>) -[thickness=1]> _Auth
(<b>server</b>) -[thickness=1]> (auth.jwt)
(<b>server</b>) -[thickness=1]> (logger)
(<b>server</b>) -[thickness=1]> _models_User
(<b>server</b>) .[thickness=1]> (routes)
(<b>server</b>) -[thickness=1]> _TypeORMLogger
_TypeORMLogger ..> (logger)
_user_controller --> (auth.jwt)
_user_controller --> _models_User
_user_controller --> (user.service)
(user.repository) --> _entities_User
(user.repository) --> _EventLog
(user.repository) --> _models_User
(user.service) --> _models_User
(user.service) --> (user.repository)

@enduml


' View and edit on https://arkit.pro
]]></script></g></svg>