<?xml version="1.0" encoding="UTF-8" standalone="no"?><svg xmlns="http://www.w3.org/2000/svg" xmlns:xlink="http://www.w3.org/1999/xlink" contentScriptType="application/ecmascript" contentStyleType="text/css" height="713px" preserveAspectRatio="none" style="width:1243px;height:713px;" version="1.1" viewBox="0 0 1243 713" width="1243px" zoomAndPan="magnify"><defs/><g><!--MD5=[81da1a12a6ffceb0b7ff692a5ac8efc2]
cluster Server & Router--><path d="M17,137 L120,137 A4.5,4.5 0 0 1 123,140 L130,157.4844 L130,157.4844 A3,3 0 0 1 133,160.4844 L133,250 A3,3 0 0 1 130,253 L17,253 A3,3 0 0 1 14,250 L14,140 A3,3 0 0 1 17,137 " fill="#FFFFFF" style="stroke: #000000; stroke-width: 1.5;"/><line style="stroke: #000000; stroke-width: 1.5;" x1="14" x2="130" y1="157.4844" y2="157.4844"/><text fill="#000000" font-family="Tahoma, sans-serif" font-size="12" font-weight="bold" lengthAdjust="spacingAndGlyphs" textLength="103" x="18" y="151.0059">Server &amp; Router</text><!--MD5=[ed1d20ea533a2a0e7df5ba3c35e56ced]
cluster Controllers--><path d="M160,206 L234,206 A4.5,4.5 0 0 1 237,209 L244,226.4844 L322,226.4844 A3,3 0 0 1 325,229.4844 L325,384 A3,3 0 0 1 322,387 L160,387 A3,3 0 0 1 157,384 L157,209 A3,3 0 0 1 160,206 " fill="#FFFFFF" style="stroke: #000000; stroke-width: 1.5;"/><line style="stroke: #000000; stroke-width: 1.5;" x1="157" x2="244" y1="226.4844" y2="226.4844"/><text fill="#000000" font-family="Tahoma, sans-serif" font-size="12" font-weight="bold" lengthAdjust="spacingAndGlyphs" textLength="74" x="161" y="220.0059">Controllers</text><!--MD5=[01444e0f60f2f1f3466acc3cffdc895e]
cluster Middlewares--><path d="M555.5,48 L636.5,48 A4.5,4.5 0 0 1 639.5,51 L646.5,68.4844 L857.5,68.4844 A3,3 0 0 1 860.5,71.4844 L860.5,169 A3,3 0 0 1 857.5,172 L555.5,172 A3,3 0 0 1 552.5,169 L552.5,51 A3,3 0 0 1 555.5,48 " fill="#FFFFFF" style="stroke: #000000; stroke-width: 1.5;"/><line style="stroke: #000000; stroke-width: 1.5;" x1="552.5" x2="646.5" y1="68.4844" y2="68.4844"/><text fill="#000000" font-family="Tahoma, sans-serif" font-size="12" font-weight="bold" lengthAdjust="spacingAndGlyphs" textLength="81" x="556.5" y="62.0059">Middlewares</text><!--MD5=[027ebfd53c01aea08f474edbf35d0797]
cluster Models--><path d="M740,213 L787,213 A4.5,4.5 0 0 1 790,216 L797,233.4844 L892,233.4844 A3,3 0 0 1 895,236.4844 L895,391 A3,3 0 0 1 892,394 L740,394 A3,3 0 0 1 737,391 L737,216 A3,3 0 0 1 740,213 " fill="#FFFFFF" style="stroke: #000000; stroke-width: 1.5;"/><line style="stroke: #000000; stroke-width: 1.5;" x1="737" x2="797" y1="233.4844" y2="233.4844"/><text fill="#000000" font-family="Tahoma, sans-serif" font-size="12" font-weight="bold" lengthAdjust="spacingAndGlyphs" textLength="47" x="741" y="227.0059">Models</text><!--MD5=[cdfd548b3455e70392372b1f27091970]
cluster Services--><path d="M352,361 L409,361 A4.5,4.5 0 0 1 412,364 L419,381.4844 L509,381.4844 A3,3 0 0 1 512,384.4844 L512,521 A3,3 0 0 1 509,524 L352,524 A3,3 0 0 1 349,521 L349,364 A3,3 0 0 1 352,361 " fill="#FFFFFF" style="stroke: #000000; stroke-width: 1.5;"/><line style="stroke: #000000; stroke-width: 1.5;" x1="349" x2="419" y1="381.4844" y2="381.4844"/><text fill="#000000" font-family="Tahoma, sans-serif" font-size="12" font-weight="bold" lengthAdjust="spacingAndGlyphs" textLength="57" x="353" y="375.0059">Services</text><!--MD5=[600c2d25b6889bd4e9f6b335204b22ae]
cluster Repositories--><path d="M539,454 L623,454 A4.5,4.5 0 0 1 626,457 L633,474.4844 L710,474.4844 A3,3 0 0 1 713,477.4844 L713,577 A3,3 0 0 1 710,580 L539,580 A3,3 0 0 1 536,577 L536,457 A3,3 0 0 1 539,454 " fill="#FFFFFF" style="stroke: #000000; stroke-width: 1.5;"/><line style="stroke: #000000; stroke-width: 1.5;" x1="536" x2="633" y1="474.4844" y2="474.4844"/><text fill="#000000" font-family="Tahoma, sans-serif" font-size="12" font-weight="bold" lengthAdjust="spacingAndGlyphs" textLength="84" x="540" y="468.0059">Repositories</text><!--MD5=[114f4823940f317c08f5bedd633c9afd]
cluster Entities--><path d="M740.5,425 L790.5,425 A4.5,4.5 0 0 1 793.5,428 L800.5,445.4844 L1228,445.4844 A3,3 0 0 1 1231,448.4844 L1231,571 A3,3 0 0 1 1228,574 L740.5,574 A3,3 0 0 1 737.5,571 L737.5,428 A3,3 0 0 1 740.5,425 " fill="#FFFFFF" style="stroke: #000000; stroke-width: 1.5;"/><line style="stroke: #000000; stroke-width: 1.5;" x1="737.5" x2="800.5" y1="445.4844" y2="445.4844"/><text fill="#000000" font-family="Tahoma, sans-serif" font-size="12" font-weight="bold" lengthAdjust="spacingAndGlyphs" textLength="50" x="741.5" y="439.0059">Entities</text><!--MD5=[9149df60bdb753397a8aec95a07bd16a]
cluster Errors--><path d="M752,605 L792,605 A4.5,4.5 0 0 1 795,608 L802,625.4844 L880,625.4844 A3,3 0 0 1 883,628.4844 L883,685 A3,3 0 0 1 880,688 L752,688 A3,3 0 0 1 749,685 L749,608 A3,3 0 0 1 752,605 " fill="#FFFFFF" style="stroke: #000000; stroke-width: 1.5;"/><line style="stroke: #000000; stroke-width: 1.5;" x1="749" x2="802" y1="625.4844" y2="625.4844"/><text fill="#000000" font-family="Tahoma, sans-serif" font-size="12" font-weight="bold" lengthAdjust="spacingAndGlyphs" textLength="40" x="753" y="619.0059">Errors</text><ellipse cx="73.163" cy="224.242" fill="#F8F8F8" rx="29.163" ry="13.242" style="stroke: #383838; stroke-width: 0.5;"/><text fill="#000000" font-family="Tahoma, sans-serif" font-size="12" lengthAdjust="spacingAndGlyphs" textLength="37" x="54.663" y="227.9842">routes</text><ellipse cx="72.9914" cy="183.242" fill="#F8F8F8" rx="31.9914" ry="13.242" style="stroke: #383838; stroke-width: 0.5;"/><text fill="#000000" font-family="Tahoma, sans-serif" font-size="12" font-weight="bold" lengthAdjust="spacingAndGlyphs" textLength="41" x="52.4914" y="186.9842">server</text><!--MD5=[9e96457d60a40d7b446d98a35d5539e5]
entity _apartment_controller--><rect fill="#F8F8F8" height="34.4844" rx="3" ry="3" style="stroke: #000000; stroke-width: 0.5;" width="136" x="173" y="337"/><text fill="#000000" font-family="Tahoma, sans-serif" font-size="12" lengthAdjust="spacingAndGlyphs" textLength="116" x="183" y="359.0059">apartment.controller</text><!--MD5=[d06a8b9102defe736655824e5da7ce2d]
entity _auth_controller--><rect fill="#F8F8F8" height="34.4844" rx="3" ry="3" style="stroke: #000000; stroke-width: 0.5;" width="103" x="189.5" y="239"/><text fill="#000000" font-family="Tahoma, sans-serif" font-size="12" lengthAdjust="spacingAndGlyphs" textLength="83" x="199.5" y="261.0059">auth.controller</text><!--MD5=[d86e588f3408319142292d1b5d5a3230]
entity _user_controller--><rect fill="#F8F8F8" height="34.4844" rx="3" ry="3" style="stroke: #000000; stroke-width: 0.5;" width="103" x="189.5" y="288"/><text fill="#000000" font-family="Tahoma, sans-serif" font-size="12" lengthAdjust="spacingAndGlyphs" textLength="83" x="199.5" y="310.0059">user.controller</text><ellipse cx="624.3198" cy="143.242" fill="#F8F8F8" rx="34.8198" ry="13.242" style="stroke: #383838; stroke-width: 0.5;"/><text fill="#000000" font-family="Tahoma, sans-serif" font-size="12" lengthAdjust="spacingAndGlyphs" textLength="45" x="601.8198" y="146.9842">auth.jwt</text><ellipse cx="815.9558" cy="96.242" fill="#F8F8F8" rx="28.4558" ry="13.242" style="stroke: #383838; stroke-width: 0.5;"/><text fill="#000000" font-family="Tahoma, sans-serif" font-size="12" lengthAdjust="spacingAndGlyphs" textLength="36" x="797.9558" y="99.9842">logger</text><!--MD5=[f24447cfbda88c07e91dd3d7c0c3db79]
entity _TypeORMLogger--><rect fill="#F8F8F8" height="34.4844" rx="3" ry="3" style="stroke: #000000; stroke-width: 0.5;" width="112" x="568.5" y="81"/><text fill="#000000" font-family="Tahoma, sans-serif" font-size="12" lengthAdjust="spacingAndGlyphs" textLength="92" x="578.5" y="103.0059">TypeORMLogger</text><!--MD5=[090835527c10669de3872c7ae72a3e7a]
entity _Auth--><rect fill="#F8F8F8" height="34.4844" rx="3" ry="3" style="stroke: #000000; stroke-width: 0.5;" width="45" x="793.5" y="246"/><text fill="#000000" font-family="Tahoma, sans-serif" font-size="12" lengthAdjust="spacingAndGlyphs" textLength="25" x="803.5" y="268.0059">Auth</text><!--MD5=[a59e0cdbfcc9060e410ebd05378c71bb]
entity _models_Apartment--><rect fill="#F8F8F8" height="34.4844" rx="3" ry="3" style="stroke: #000000; stroke-width: 0.5;" width="126" x="753" y="344"/><text fill="#000000" font-family="Tahoma, sans-serif" font-size="12" lengthAdjust="spacingAndGlyphs" textLength="106" x="763" y="366.0059">models/Apartment</text><!--MD5=[4c029acf0569c1dbcb6e2b5523401c80]
entity _models_User--><rect fill="#F8F8F8" height="34.4844" rx="3" ry="3" style="stroke: #000000; stroke-width: 0.5;" width="94" x="769" y="295"/><text fill="#000000" font-family="Tahoma, sans-serif" font-size="12" lengthAdjust="spacingAndGlyphs" textLength="74" x="779" y="317.0059">models/User</text><ellipse cx="430.5478" cy="492.0096" fill="#F8F8F8" rx="65.5478" ry="15.5096" style="stroke: #383838; stroke-width: 0.5;"/><text fill="#000000" font-family="Tahoma, sans-serif" font-size="12" lengthAdjust="spacingAndGlyphs" textLength="102" x="379.5478" y="495.7518">apartment.service</text><ellipse cx="430.2904" cy="407.242" fill="#F8F8F8" rx="51.7904" ry="13.242" style="stroke: #383838; stroke-width: 0.5;"/><text fill="#000000" font-family="Tahoma, sans-serif" font-size="12" lengthAdjust="spacingAndGlyphs" textLength="69" x="395.7904" y="410.9842">auth.service</text><ellipse cx="430.2904" cy="448.242" fill="#F8F8F8" rx="51.7904" ry="13.242" style="stroke: #383838; stroke-width: 0.5;"/><text fill="#000000" font-family="Tahoma, sans-serif" font-size="12" lengthAdjust="spacingAndGlyphs" textLength="69" x="395.7904" y="451.9842">user.service</text><ellipse cx="624.6526" cy="546.9305" fill="#F8F8F8" rx="72.6526" ry="16.9305" style="stroke: #383838; stroke-width: 0.5;"/><text fill="#000000" font-family="Tahoma, sans-serif" font-size="12" lengthAdjust="spacingAndGlyphs" textLength="119" x="565.1526" y="550.6727">apartment.repository</text><ellipse cx="624.7159" cy="501.2432" fill="#F8F8F8" rx="59.2159" ry="14.2432" style="stroke: #383838; stroke-width: 0.5;"/><text fill="#000000" font-family="Tahoma, sans-serif" font-size="12" lengthAdjust="spacingAndGlyphs" textLength="86" x="581.7159" y="504.9854">user.repository</text><!--MD5=[2026c0bd7f4956f7b059870106b72831]
entity _entities_Apartment--><rect fill="#F8F8F8" height="34.4844" rx="3" ry="3" style="stroke: #000000; stroke-width: 0.5;" width="125" x="753.5" y="524"/><text fill="#000000" font-family="Tahoma, sans-serif" font-size="12" lengthAdjust="spacingAndGlyphs" textLength="105" x="763.5" y="546.0059">entities/Apartment</text><!--MD5=[147a91f99759f6cb8c425b4553f458eb]
entity _entities_User--><rect fill="#F8F8F8" height="34.4844" rx="3" ry="3" style="stroke: #000000; stroke-width: 0.5;" width="93" x="911" y="507"/><text fill="#000000" font-family="Tahoma, sans-serif" font-size="12" lengthAdjust="spacingAndGlyphs" textLength="73" x="921" y="529.0059">entities/User</text><!--MD5=[6970322dd021e8bde36f20252f8dcdf3]
entity _EntityWithIdAndTimestamps--><rect fill="#F8F8F8" height="34.4844" rx="3" ry="3" style="stroke: #000000; stroke-width: 0.5;" width="180" x="1035" y="507"/><text fill="#000000" font-family="Tahoma, sans-serif" font-size="12" lengthAdjust="spacingAndGlyphs" textLength="160" x="1045" y="529.0059">EntityWithIdAndTimestamps</text><!--MD5=[df7b7da2504707e2c9c337bf9ecd3425]
entity _EventLog--><rect fill="#F8F8F8" height="34.4844" rx="3" ry="3" style="stroke: #000000; stroke-width: 0.5;" width="72" x="921.5" y="458"/><text fill="#000000" font-family="Tahoma, sans-serif" font-size="12" lengthAdjust="spacingAndGlyphs" textLength="52" x="931.5" y="480.0059">EventLog</text><!--MD5=[92f79613f4aed56de1922575dc6caf90]
entity _NotFoundError--><rect fill="#F8F8F8" height="34.4844" rx="3" ry="3" style="stroke: #000000; stroke-width: 0.5;" width="102" x="765" y="638"/><text fill="#000000" font-family="Tahoma, sans-serif" font-size="12" lengthAdjust="spacingAndGlyphs" textLength="82" x="775" y="660.0059">NotFoundError</text><!--MD5=[6cc8762ce868c43b85eddf0415429863]
link _apartment_controller to apartment.service--><path d="M252.092,371.336 C267.797,396.739 300.528,443.787 341,469 C349.916,474.555 360.136,478.774 370.39,481.978 " fill="none" id="_apartment_controller-&gt;apartment.service" style="stroke: #000000; stroke-width: 0.5;"/><polygon fill="#000000" points="375.421,483.471,367.9315,477.0751,370.6278,482.048,365.6548,484.7442,375.421,483.471" style="stroke: #000000; stroke-width: 0.5;"/><!--MD5=[0858b8ca08335c7aefde438a5d5b3e8c]
link _apartment_controller to auth.jwt--><path d="M309.094,337.991 C317.227,335.556 325.356,332.884 333,330 C336.719,328.597 337.34,327.552 341,326 C418.648,293.077 450.333,310.535 520,263 C561.462,234.71 596.395,185.794 613.046,160.02 " fill="none" id="_apartment_controller-&gt;auth.jwt" style="stroke: #000000; stroke-width: 0.5;"/><polygon fill="#000000" points="615.75,155.788,607.5325,161.2169,613.0571,160.0009,614.2731,165.5255,615.75,155.788" style="stroke: #000000; stroke-width: 0.5;"/><!--MD5=[c20c81bcba0db35d3dd628bd55f33ab8]
link _apartment_controller to _models_Apartment--><path d="M309.133,354.82 C419.243,356.165 636.983,358.825 747.397,360.174 " fill="none" id="_apartment_controller-&gt;_models_Apartment" style="stroke: #000000; stroke-width: 0.5;"/><polygon fill="#000000" points="752.573,360.237,743.6228,356.1267,747.5734,360.1756,743.5245,364.1261,752.573,360.237" style="stroke: #000000; stroke-width: 0.5;"/><!--MD5=[9e470a0f4cc480046c2336c3151c48bb]
link apartment.repository to _entities_Apartment--><path d="M696.602,544.749 C713.543,544.212 731.562,543.642 748.298,543.112 " fill="none" id="apartment.repository-&gt;_entities_Apartment" style="stroke: #000000; stroke-width: 0.5;"/><polygon fill="#000000" points="753.448,542.949,744.3257,539.2365,748.4505,543.1076,744.5794,547.2324,753.448,542.949" style="stroke: #000000; stroke-width: 0.5;"/><!--MD5=[e8795b8090cf0242c71807e88ceeb1cb]
link apartment.repository to _entities_User--><path d="M669.681,560.43 C725.644,575.124 824.27,593.212 903,566 C915.5,561.68 927.303,553.101 936.626,544.816 " fill="none" id="apartment.repository-&gt;_entities_User" style="stroke: #000000; stroke-width: 0.5;"/><polygon fill="#000000" points="940.464,541.297,931.1267,544.4299,936.7782,544.6756,936.5325,550.3271,940.464,541.297" style="stroke: #000000; stroke-width: 0.5;"/><!--MD5=[86a44cc1d310c16ba3be45a680fb52f3]
link apartment.repository to _EventLog--><path d="M682.348,536.649 C695.396,533.208 708.963,528.738 721,523 C725.012,521.087 724.929,518.784 729,517 C790.633,489.99 869.037,480.345 915.86,476.904 " fill="none" id="apartment.repository-&gt;_EventLog" style="stroke: #000000; stroke-width: 0.5;"/><polygon fill="#000000" points="921.13,476.533,911.8712,473.1753,916.1424,476.8844,912.4333,481.1556,921.13,476.533" style="stroke: #000000; stroke-width: 0.5;"/><!--MD5=[8f91c3bb19418fbc6b7e609ed91061ae]
link apartment.repository to _models_Apartment--><path d="M693.01,541.045 C703.675,537.245 713.605,531.522 721,523 C732.13,510.174 721.688,462.327 729,447 C741.763,420.247 766.39,396.974 786.03,381.409 " fill="none" id="apartment.repository-&gt;_models_Apartment" style="stroke: #000000; stroke-width: 0.5;"/><polygon fill="#000000" points="790.394,378.012,780.836,380.3877,786.4497,381.0849,785.7526,386.6986,790.394,378.012" style="stroke: #000000; stroke-width: 0.5;"/><!--MD5=[2952776b15c6dbe5a1b163b1aff2571a]
link apartment.service to apartment.repository--><path d="M468.907,504.638 C486.721,510.497 508.374,517.388 528,523 C540.769,526.651 554.583,530.297 567.632,533.604 " fill="none" id="apartment.service-&gt;apartment.repository" style="stroke: #000000; stroke-width: 0.5;"/><polygon fill="#000000" points="572.783,534.902,565.0345,528.8225,567.9348,533.6792,563.0781,536.5796,572.783,534.902" style="stroke: #000000; stroke-width: 0.5;"/><!--MD5=[cfc65d6c0cae18dcf3e5ca14ec95ff72]
link apartment.service to _models_Apartment--><path d="M477.216,481.018 C491.041,477.456 506.21,473.305 520,469 C608.616,441.335 709.808,402.713 767.676,379.935 " fill="none" id="apartment.service-&gt;_models_Apartment" style="stroke: #000000; stroke-width: 0.5;"/><polygon fill="#000000" points="772.452,378.052,762.6122,377.63,767.8001,379.885,765.545,385.073,772.452,378.052" style="stroke: #000000; stroke-width: 0.5;"/><!--MD5=[aaf6bb04ec7f0ad0e7dffbf36b8a8be6]
link _auth_controller to _Auth--><path d="M292.599,256.618 C410.317,258.056 699.309,261.587 788.408,262.675 " fill="none" id="_auth_controller-&gt;_Auth" style="stroke: #000000; stroke-width: 0.5;"/><polygon fill="#000000" points="793.491,262.737,784.5408,258.6267,788.4914,262.6756,784.4425,266.6261,793.491,262.737" style="stroke: #000000; stroke-width: 0.5;"/><!--MD5=[d54f8a898f2b2f93b3b33fade19514d3]
link _auth_controller to auth.service--><path d="M292.683,263.764 C306.551,267.476 321.041,272.947 333,281 C375.129,309.37 406.621,362.214 420.952,389.576 " fill="none" id="_auth_controller-&gt;auth.service" style="stroke: #000000; stroke-width: 0.5;"/><polygon fill="#000000" points="423.265,394.059,422.6921,384.2268,420.972,389.6158,415.583,387.8957,423.265,394.059" style="stroke: #000000; stroke-width: 0.5;"/><!--MD5=[562c46d0512001f86390504dff043105]
link _auth_controller to logger--><path d="M260.184,238.896 C302.826,200.109 414.282,106.268 528,73 C620.023,46.079 735.268,72.412 787.275,87.31 " fill="none" id="_auth_controller-&gt;logger" style="stroke: #000000; stroke-width: 0.5;"/><polygon fill="#000000" points="792.108,88.714,784.5805,82.3629,787.3064,87.3197,782.3496,90.0455,792.108,88.714" style="stroke: #000000; stroke-width: 0.5;"/><!--MD5=[572c719d8e046331fbd67b721e6b8c15]
link auth.jwt to _Auth--><path d="M650.784,151.9 C670.606,159.393 698.504,171.099 721,185 C747.835,201.581 775.221,225.228 793.458,242.131 " fill="none" id="auth.jwt-&gt;_Auth" style="stroke: #000000; stroke-width: 0.5;"/><polygon fill="#000000" points="797.435,245.845,793.5877,236.7787,793.7808,242.4322,788.1273,242.6254,797.435,245.845" style="stroke: #000000; stroke-width: 0.5;"/><!--MD5=[d2d7d09a7514e225210c9e2c095de26d]
link auth.jwt to logger--><path d="M655.704,136.789 C674.54,132.81 699.251,127.395 721,122 C743.082,116.522 767.88,109.632 786.459,104.321 " fill="none" id="auth.jwt-&gt;logger" style="stroke: #000000; stroke-width: 0.5; stroke-dasharray: 7.0,7.0;"/><polygon fill="#000000" points="791.527,102.868,781.7729,101.5047,786.7208,104.2467,783.9789,109.1946,791.527,102.868" style="stroke: #000000; stroke-width: 0.5;"/><!--MD5=[224bc9a7bec10d656533ed895f4a5b22]
link auth.jwt to _models_User--><path d="M631.113,156.109 C644.017,184.647 678.605,252.665 729,288 C739.308,295.228 751.732,300.285 763.891,303.822 " fill="none" id="auth.jwt-&gt;_models_User" style="stroke: #000000; stroke-width: 0.5;"/><polygon fill="#000000" points="768.714,305.151,761.1005,298.9033,763.8938,303.8224,758.9747,306.6156,768.714,305.151" style="stroke: #000000; stroke-width: 0.5;"/><!--MD5=[32ca86990d707716a406822f99e0a40d]
link auth.service to _Auth--><path d="M447.769,394.687 C466.326,381.137 497.993,359.494 528,346 C619.468,304.866 736.494,278.519 788.288,268.088 " fill="none" id="auth.service-&gt;_Auth" style="stroke: #000000; stroke-width: 0.5;"/><polygon fill="#000000" points="793.39,267.07,783.7813,264.9084,788.4867,268.0484,785.3467,272.7538,793.39,267.07" style="stroke: #000000; stroke-width: 0.5;"/><!--MD5=[9e9f16af2e1b4bb8d9144e8ef5210e61]
link auth.service to auth.jwt--><path d="M442.916,394.043 C461.21,372.753 497.334,328.48 520,286 C524.898,276.821 522.935,273.088 528,264 C550.936,222.848 587.488,181.074 608.083,158.994 " fill="none" id="auth.service-&gt;auth.jwt" style="stroke: #000000; stroke-width: 0.5;"/><polygon fill="#000000" points="611.736,155.105,602.6596,158.9285,608.3136,158.7502,608.4919,164.4042,611.736,155.105" style="stroke: #000000; stroke-width: 0.5;"/><!--MD5=[1383f3e222429f0733e643250a9c4b0e]
link auth.service to user.repository--><path d="M474.9,413.854 C489.617,417.07 505.893,421.638 520,428 C552,442.43 584.339,467.252 604.15,483.893 " fill="none" id="auth.service-&gt;user.repository" style="stroke: #000000; stroke-width: 0.5;"/><polygon fill="#000000" points="608.183,487.313,603.9072,478.4407,604.37,484.0786,598.7321,484.5415,608.183,487.313" style="stroke: #000000; stroke-width: 0.5;"/><!--MD5=[b5c23d07f236d1178bc1899d3effdd89]
link _entities_Apartment to _entities_User--><path d="M878.593,533.494 C887.538,532.404 896.666,531.292 905.375,530.23 " fill="none" id="_entities_Apartment-&gt;_entities_User" style="stroke: #000000; stroke-width: 0.5; stroke-dasharray: 7.0,7.0;"/><polygon fill="#000000" points="910.738,529.577,901.3205,526.6941,905.7747,530.1813,902.2875,534.6355,910.738,529.577" style="stroke: #000000; stroke-width: 0.5;"/><!--MD5=[24755b029eafb07319e502a30c0f7013]
link _entities_Apartment to _EntityWithIdAndTimestamps--><path d="M878.64,546.999 C889.416,547.833 900.527,548.555 911,549 C952.296,550.754 962.884,553.237 1004,549 C1018.74,547.481 1034.34,544.939 1049.24,542.042 " fill="none" id="_entities_Apartment-&gt;_EntityWithIdAndTimestamps" style="stroke: #000000; stroke-width: 0.5; stroke-dasharray: 7.0,7.0;"/><polygon fill="#000000" points="1054.26,541.048,1044.6544,538.8724,1049.3552,542.0192,1046.2084,546.72,1054.26,541.048" style="stroke: #000000; stroke-width: 0.5;"/><!--MD5=[d80f597ef9c43ab3fc662f9b7fe01968]
link _entities_User to _EntityWithIdAndTimestamps--><path d="M1004.162,524 C1012.16,524 1020.75,524 1029.52,524 " fill="none" id="_entities_User-&gt;_EntityWithIdAndTimestamps" style="stroke: #000000; stroke-width: 0.5; stroke-dasharray: 7.0,7.0;"/><polygon fill="#000000" points="1034.99,524,1025.99,520,1029.99,524,1025.99,528,1034.99,524" style="stroke: #000000; stroke-width: 0.5;"/><!--MD5=[2d6b21759ce17737018b6286045c33fa]
link _EventLog to _EntityWithIdAndTimestamps--><path d="M993.598,485.392 C1013.35,491.24 1038.6,498.716 1061.61,505.529 " fill="none" id="_EventLog-&gt;_EntityWithIdAndTimestamps" style="stroke: #000000; stroke-width: 0.5; stroke-dasharray: 7.0,7.0;"/><polygon fill="#000000" points="1066.49,506.972,1058.9895,500.589,1061.6943,505.5573,1056.726,508.2621,1066.49,506.972" style="stroke: #000000; stroke-width: 0.5;"/><!--MD5=[afa5ff013eb80bbadf484fee2552db1b]
link routes to _apartment_controller--><path d="M79.5287,236.991 C89.7954,259.513 113.991,305.716 149,330 C154.89,334.086 161.435,337.476 168.236,340.289 " fill="none" id="routes-&gt;_apartment_controller" style="stroke: #000000; stroke-width: 0.5;"/><polygon fill="#000000" points="172.98,342.146,166.0578,335.1401,168.3241,340.3231,163.1411,342.5894,172.98,342.146" style="stroke: #000000; stroke-width: 0.5;"/><!--MD5=[a6574b0883c99c33d1c1e34f472f0782]
link routes to _auth_controller--><path d="M99.9375,229 C122.343,233.319 155.5,239.711 183.93,245.191 " fill="none" id="routes-&gt;_auth_controller" style="stroke: #000000; stroke-width: 0.5;"/><polygon fill="#000000" points="189.18,246.203,181.099,240.573,184.2702,245.2573,179.5859,248.4286,189.18,246.203" style="stroke: #000000; stroke-width: 0.5;"/><!--MD5=[562440ee5b2be334a30381992739c0d2]
link routes to auth.jwt--><path d="M100.8755,220.038 C191.038,206.748 482.895,163.726 586.553,148.446 " fill="none" id="routes-&gt;auth.jwt" style="stroke: #000000; stroke-width: 0.5;"/><polygon fill="#000000" points="591.64,147.696,582.1525,145.0527,586.6936,148.4259,583.3203,152.967,591.64,147.696" style="stroke: #000000; stroke-width: 0.5;"/><!--MD5=[c3d2556c4d629c2bc3d7bb124fdead71]
link routes to _user_controller--><path d="M86.2442,235.768 C100.3085,248.664 124.6,269.097 149,281 C159.922,286.328 172.178,290.586 184.072,293.946 " fill="none" id="routes-&gt;_user_controller" style="stroke: #000000; stroke-width: 0.5;"/><polygon fill="#000000" points="189.142,295.331,181.5155,289.0991,184.319,294.0124,179.4057,296.8159,189.142,295.331" style="stroke: #000000; stroke-width: 0.5;"/><!--MD5=[58b1ddf9e3fd87978458e42747798e8d]
link <b>server</b> to _Auth--><path d="M104.3741,185.596 C197.007,193.621 484.053,219.286 721,249 C743.746,251.852 769.49,255.732 788.278,258.684 " fill="none" id="&lt;b&gt;server&lt;/b&gt;-&gt;_Auth" style="stroke: #000000; stroke-width: 1.0;"/><polygon fill="#000000" points="793.384,259.491,785.1182,254.1359,788.4452,258.711,783.8702,262.038,793.384,259.491" style="stroke: #000000; stroke-width: 1.0;"/><!--MD5=[322b45c47471d12b6d49db8397c5ba50]
link <b>server</b> to auth.jwt--><path d="M88.4833,171.603 C102.8863,161.052 126.084,146.103 149,140 C307.906,97.678 507.501,123.182 587.712,136.469 " fill="none" id="&lt;b&gt;server&lt;/b&gt;-&gt;auth.jwt" style="stroke: #000000; stroke-width: 1.0;"/><polygon fill="#000000" points="592.821,137.325,584.6069,131.891,587.8899,136.4977,583.2832,139.7807,592.821,137.325" style="stroke: #000000; stroke-width: 1.0;"/><!--MD5=[5dcf67e50701372d1e4b38ad174e1bd8]
link <b>server</b> to logger--><path d="M79.8605,170.062 C90.3117,148.698 114.367,106.565 149,88 C373.391,-32.282 471.311,7.258 721,57 C746.718,62.123 774.212,74.415 792.777,83.841 " fill="none" id="&lt;b&gt;server&lt;/b&gt;-&gt;logger" style="stroke: #000000; stroke-width: 1.0;"/><polygon fill="#000000" points="797.299,86.17,791.1308,78.4919,792.8543,83.8798,787.4665,85.6034,797.299,86.17" style="stroke: #000000; stroke-width: 1.0;"/><!--MD5=[918f1540acef5cbfe8e12ed9833e65d6]
link <b>server</b> to _models_User--><path d="M104.8044,184.984 C118.061,187.525 132.45,192.891 141,204 C153.075,219.689 139.544,364.607 149,382 C199.072,474.098 241.163,487.033 341,519 C416.766,543.26 458.817,569.85 520,519 C534.95,506.575 516.061,491.341 528,476 C586.014,401.455 663.934,462.272 721,387 C734.596,369.066 714.105,353.871 729,337 C737.903,326.916 750.611,320.792 763.535,317.104 " fill="none" id="&lt;b&gt;server&lt;/b&gt;-&gt;_models_User" style="stroke: #000000; stroke-width: 1.0;"/><polygon fill="#000000" points="768.684,315.761,758.9654,314.1642,763.8462,317.024,760.9863,321.9047,768.684,315.761" style="stroke: #000000; stroke-width: 1.0;"/><!--MD5=[1094dcf80147bc5f4a5a62d27035b42e]
link <b>server</b> to _NotFoundError--><path d="M104.903,184.909 C118.18,187.434 132.558,192.809 141,204 C162.017,231.862 126.605,491.233 149,518 C302.162,701.0639 628.854,680.4135 759.409,663.6475 " fill="none" id="&lt;b&gt;server&lt;/b&gt;-&gt;_NotFoundError" style="stroke: #000000; stroke-width: 1.0;"/><polygon fill="#000000" points="764.724,662.9531,755.2812,660.1543,759.7662,663.6017,756.3189,668.0867,764.724,662.9531" style="stroke: #000000; stroke-width: 1.0;"/><!--MD5=[b5550d8c7cbc955c7a41f0bf9d55f796]
link <b>server</b> to routes--><path d="M73,196.063 C73,199.301 73,202.54 73,205.778 " fill="none" id="&lt;b&gt;server&lt;/b&gt;-&gt;routes" style="stroke: #000000; stroke-width: 1.0; stroke-dasharray: 7.0,7.0;"/><polygon fill="#000000" points="73,210.867,77,201.867,73,205.867,69,201.867,73,210.867" style="stroke: #000000; stroke-width: 1.0;"/><!--MD5=[b7da318761176cd6308606b45640b193]
link <b>server</b> to _TypeORMLogger--><path d="M83.5791,170.672 C96.502,155.119 121.137,129.068 149,118 C288.883,62.436 470.546,75.945 563.276,88.272 " fill="none" id="&lt;b&gt;server&lt;/b&gt;-&gt;_TypeORMLogger" style="stroke: #000000; stroke-width: 1.0;"/><polygon fill="#000000" points="568.439,88.969,560.0548,83.8013,563.4839,88.3003,558.9849,91.7294,568.439,88.969" style="stroke: #000000; stroke-width: 1.0;"/><!--MD5=[e740ba654b198251af9249c33f84db62]
link _TypeORMLogger to logger--><path d="M680.566,97.419 C713.589,97.07 754.461,96.639 782.414,96.344 " fill="none" id="_TypeORMLogger-&gt;logger" style="stroke: #000000; stroke-width: 0.5; stroke-dasharray: 7.0,7.0;"/><polygon fill="#000000" points="787.478,96.29,778.4362,92.3854,782.4783,96.3429,778.5208,100.3849,787.478,96.29" style="stroke: #000000; stroke-width: 0.5;"/><!--MD5=[f9d07b912afd61cfb43e6511e1d68859]
link _user_controller to auth.jwt--><path d="M292.913,299.683 C307.098,296.17 321.7,290.41 333,281 C339.417,275.656 334.915,269.718 341,264 C403.371,205.394 441.639,227.415 520,193 C547.178,181.064 577.717,166.117 598.534,155.689 " fill="none" id="_user_controller-&gt;auth.jwt" style="stroke: #000000; stroke-width: 0.5;"/><polygon fill="#000000" points="603.085,153.404,593.2471,153.8688,598.6169,155.6481,596.8376,161.0178,603.085,153.404" style="stroke: #000000; stroke-width: 0.5;"/><!--MD5=[0fb2ab3080e68b16e7150866435982e3]
link _user_controller to _models_User--><path d="M292.599,305.618 C400.96,306.942 654.447,310.039 763.557,311.372 " fill="none" id="_user_controller-&gt;_models_User" style="stroke: #000000; stroke-width: 0.5;"/><polygon fill="#000000" points="768.643,311.434,759.6928,307.3237,763.6434,311.3726,759.5945,315.3231,768.643,311.434" style="stroke: #000000; stroke-width: 0.5;"/><!--MD5=[097b81be3c6bf7c7e3a5dba365f1a503]
link _user_controller to user.service--><path d="M292.92,308.007 C307.975,311.484 323.068,318.016 333,330 C346.943,346.823 326.675,411.501 341,428 C349.297,437.555 361.101,443.083 373.395,446.17 " fill="none" id="_user_controller-&gt;user.service" style="stroke: #000000; stroke-width: 0.5;"/><polygon fill="#000000" points="378.31,447.274,370.4053,441.399,373.4315,446.1783,368.6522,449.2045,378.31,447.274" style="stroke: #000000; stroke-width: 0.5;"/><!--MD5=[91323e5e891003a8aa47e6c2bae4dadc]
link user.repository to _entities_User--><path d="M682.991,503.098 C739.175,505.435 827.089,509.855 903,517 C903.979,517.092 904.968,517.189 905.964,517.289 " fill="none" id="user.repository-&gt;_entities_User" style="stroke: #000000; stroke-width: 0.5;"/><polygon fill="#000000" points="910.994,517.818,902.463,512.8964,906.0216,517.2938,901.6242,520.8523,910.994,517.818" style="stroke: #000000; stroke-width: 0.5;"/><!--MD5=[8b3a2cc741c76eb341206bb75debbab7]
link user.repository to _EventLog--><path d="M649.356,488.227 C669.824,478.034 700.451,464.572 729,459 C804.901,444.186 826.482,447.803 903,459 C907.438,459.649 912.019,460.587 916.547,461.687 " fill="none" id="user.repository-&gt;_EventLog" style="stroke: #000000; stroke-width: 0.5;"/><polygon fill="#000000" points="921.43,462.938,913.7047,456.829,916.5865,461.6968,911.7187,464.5786,921.43,462.938" style="stroke: #000000; stroke-width: 0.5;"/><!--MD5=[268a1c9652f8bd851d1a6e5346c68370]
link user.repository to _models_User--><path d="M646.361,487.802 C668.994,472.223 704.145,444.076 721,410 C728.235,395.372 718.505,349.497 729,337 C737.816,326.501 750.762,320.269 763.946,316.61 " fill="none" id="user.repository-&gt;_models_User" style="stroke: #000000; stroke-width: 0.5;"/><polygon fill="#000000" points="768.806,315.375,759.0981,313.7149,763.96,316.6065,761.0684,321.4685,768.806,315.375" style="stroke: #000000; stroke-width: 0.5;"/><!--MD5=[377b8237ad725c1771be360cf8bd3c66]
link user.repository to _NotFoundError--><path d="M683.094,503.28 C697.185,506.548 711.055,512.5 721,523 C735.27,538.066 719.44,550.582 729,569 C742.656,595.309 767.196,618.6246 786.577,634.3188 " fill="none" id="user.repository-&gt;_NotFoundError" style="stroke: #000000; stroke-width: 0.5;"/><polygon fill="#000000" points="790.878,637.7468,786.3319,629.0099,786.9676,634.631,781.3465,635.2666,790.878,637.7468" style="stroke: #000000; stroke-width: 0.5;"/><!--MD5=[b64e42995474d859eb56ab10f112be97]
link user.service to _models_User--><path d="M482.389,446.479 C496.224,443.633 510.101,438.148 520,428 C532.659,415.022 515.58,401.208 528,388 C559.939,354.035 690.061,330.121 763.65,319.014 " fill="none" id="user.service-&gt;_models_User" style="stroke: #000000; stroke-width: 0.5;"/><polygon fill="#000000" points="768.848,318.236,759.3552,315.6118,763.903,318.9759,760.539,323.5238,768.848,318.236" style="stroke: #000000; stroke-width: 0.5;"/><!--MD5=[063e2d6f822dd6550b1063ec9215e714]
link user.service to user.repository--><path d="M469.976,456.54 C485.564,460.153 503.7,464.552 520,469 C541.41,474.843 565.073,482.098 584.363,488.223 " fill="none" id="user.service-&gt;user.repository" style="stroke: #000000; stroke-width: 0.5;"/><polygon fill="#000000" points="589.169,489.754,581.8088,483.2097,584.4051,488.2356,579.3793,490.8319,589.169,489.754" style="stroke: #000000; stroke-width: 0.5;"/><script type="text/plantuml"><![CDATA[MD5=[e1b0b7d8af72f8633f735c02d9b28d1c]
@startuml

scale max 1920 width
left to right direction

skinparam nodesep 15
skinparam ranksep 31
skinparam monochrome true
skinparam shadowing false
skinparam defaultFontName Tahoma
skinparam defaultFontSize 12
skinparam roundCorner 6
skinparam dpi 150
skinparam arrowColor black
skinparam arrowThickness 0.5
skinparam packageTitleAlignment left

skinparam usecase {
  borderThickness 0.5
}

skinparam rectangle {
  borderThickness 0.5
}

skinparam component {
  borderThickness 1
}


package "Server & Router" {
  (routes)
  (<b>server</b>)
}

package "Controllers" {
  rectangle "apartment.controller" as _apartment_controller
  rectangle "auth.controller" as _auth_controller
  rectangle "user.controller" as _user_controller
}

package "Middlewares" {
  (auth.jwt)
  (logger)
  rectangle "TypeORMLogger" as _TypeORMLogger
}

package "Models" {
  rectangle "Auth" as _Auth
  rectangle "models/Apartment" as _models_Apartment
  rectangle "models/User" as _models_User
}

package "Services" {
  (apartment.service)
  (auth.service)
  (user.service)
}

package "Repositories" {
  (apartment.repository)
  (user.repository)
}

package "Entities" {
  rectangle "entities/Apartment" as _entities_Apartment
  rectangle "entities/User" as _entities_User
  rectangle "EntityWithIdAndTimestamps" as _EntityWithIdAndTimestamps
  rectangle "EventLog" as _EventLog
}

package "Errors" {
  rectangle "NotFoundError" as _NotFoundError
}

_apartment_controller --> (apartment.service)
_apartment_controller --> (auth.jwt)
_apartment_controller --> _models_Apartment
(apartment.repository) --> _entities_Apartment
(apartment.repository) --> _entities_User
(apartment.repository) --> _EventLog
(apartment.repository) --> _models_Apartment
(apartment.service) --> (apartment.repository)
(apartment.service) --> _models_Apartment
_auth_controller --> _Auth
_auth_controller --> (auth.service)
_auth_controller --> (logger)
(auth.jwt) --> _Auth
(auth.jwt) ..> (logger)
(auth.jwt) --> _models_User
(auth.service) --> _Auth
(auth.service) --> (auth.jwt)
(auth.service) --> (user.repository)
_entities_Apartment ..> _entities_User
_entities_Apartment ..> _EntityWithIdAndTimestamps
_entities_User ..> _EntityWithIdAndTimestamps
_EventLog ..> _EntityWithIdAndTimestamps
(routes) --> _apartment_controller
(routes) --> _auth_controller
(routes) --> (auth.jwt)
(routes) --> _user_controller
(<b>server</b>) -[thickness=1]> _Auth
(<b>server</b>) -[thickness=1]> (auth.jwt)
(<b>server</b>) -[thickness=1]> (logger)
(<b>server</b>) -[thickness=1]> _models_User
(<b>server</b>) -[thickness=1]> _NotFoundError
(<b>server</b>) .[thickness=1]> (routes)
(<b>server</b>) -[thickness=1]> _TypeORMLogger
_TypeORMLogger ..> (logger)
_user_controller --> (auth.jwt)
_user_controller --> _models_User
_user_controller --> (user.service)
(user.repository) --> _entities_User
(user.repository) --> _EventLog
(user.repository) --> _models_User
(user.repository) --> _NotFoundError
(user.service) --> _models_User
(user.service) --> (user.repository)

@enduml


' View and edit on https://arkit.pro
]]></script></g></svg>