<?xml version="1.0" encoding="UTF-8" standalone="no"?><svg xmlns="http://www.w3.org/2000/svg" xmlns:xlink="http://www.w3.org/1999/xlink" contentScriptType="application/ecmascript" contentStyleType="text/css" height="771px" preserveAspectRatio="none" style="width:1243px;height:771px;" version="1.1" viewBox="0 0 1243 771" width="1243px" zoomAndPan="magnify"><defs/><g><!--MD5=[81da1a12a6ffceb0b7ff692a5ac8efc2]
cluster Server & Router--><path d="M17,85.523 L120,85.523 A4.5,4.5 0 0 1 123,88.523 L130,106.0074 L130,106.0074 A3,3 0 0 1 133,109.0074 L133,198.523 A3,3 0 0 1 130,201.523 L17,201.523 A3,3 0 0 1 14,198.523 L14,88.523 A3,3 0 0 1 17,85.523 " fill="#FFFFFF" style="stroke: #000000; stroke-width: 1.5;"/><line style="stroke: #000000; stroke-width: 1.5;" x1="14" x2="130" y1="106.0074" y2="106.0074"/><text fill="#000000" font-family="Tahoma, sans-serif" font-size="12" font-weight="bold" lengthAdjust="spacingAndGlyphs" textLength="103" x="18" y="99.5289">Server &amp; Router</text><!--MD5=[ed1d20ea533a2a0e7df5ba3c35e56ced]
cluster Controllers--><path d="M160,186.523 L234,186.523 A4.5,4.5 0 0 1 237,189.523 L244,207.0074 L322,207.0074 A3,3 0 0 1 325,210.0074 L325,364.523 A3,3 0 0 1 322,367.523 L160,367.523 A3,3 0 0 1 157,364.523 L157,189.523 A3,3 0 0 1 160,186.523 " fill="#FFFFFF" style="stroke: #000000; stroke-width: 1.5;"/><line style="stroke: #000000; stroke-width: 1.5;" x1="157" x2="244" y1="207.0074" y2="207.0074"/><text fill="#000000" font-family="Tahoma, sans-serif" font-size="12" font-weight="bold" lengthAdjust="spacingAndGlyphs" textLength="74" x="161" y="200.5289">Controllers</text><!--MD5=[01444e0f60f2f1f3466acc3cffdc895e]
cluster Middlewares--><path d="M555.5,28.523 L636.5,28.523 A4.5,4.5 0 0 1 639.5,31.523 L646.5,49.0074 L857.5,49.0074 A3,3 0 0 1 860.5,52.0074 L860.5,149.523 A3,3 0 0 1 857.5,152.523 L555.5,152.523 A3,3 0 0 1 552.5,149.523 L552.5,31.523 A3,3 0 0 1 555.5,28.523 " fill="#FFFFFF" style="stroke: #000000; stroke-width: 1.5;"/><line style="stroke: #000000; stroke-width: 1.5;" x1="552.5" x2="646.5" y1="49.0074" y2="49.0074"/><text fill="#000000" font-family="Tahoma, sans-serif" font-size="12" font-weight="bold" lengthAdjust="spacingAndGlyphs" textLength="81" x="556.5" y="42.5289">Middlewares</text><!--MD5=[027ebfd53c01aea08f474edbf35d0797]
cluster Models--><path d="M740,176.523 L787,176.523 A4.5,4.5 0 0 1 790,179.523 L797,197.0074 L892,197.0074 A3,3 0 0 1 895,200.0074 L895,354.523 A3,3 0 0 1 892,357.523 L740,357.523 A3,3 0 0 1 737,354.523 L737,179.523 A3,3 0 0 1 740,176.523 " fill="#FFFFFF" style="stroke: #000000; stroke-width: 1.5;"/><line style="stroke: #000000; stroke-width: 1.5;" x1="737" x2="797" y1="197.0074" y2="197.0074"/><text fill="#000000" font-family="Tahoma, sans-serif" font-size="12" font-weight="bold" lengthAdjust="spacingAndGlyphs" textLength="47" x="741" y="190.5289">Models</text><!--MD5=[cdfd548b3455e70392372b1f27091970]
cluster Services--><path d="M352,341.523 L409,341.523 A4.5,4.5 0 0 1 412,344.523 L419,362.0074 L509,362.0074 A3,3 0 0 1 512,365.0074 L512,501.523 A3,3 0 0 1 509,504.523 L352,504.523 A3,3 0 0 1 349,501.523 L349,344.523 A3,3 0 0 1 352,341.523 " fill="#FFFFFF" style="stroke: #000000; stroke-width: 1.5;"/><line style="stroke: #000000; stroke-width: 1.5;" x1="349" x2="419" y1="362.0074" y2="362.0074"/><text fill="#000000" font-family="Tahoma, sans-serif" font-size="12" font-weight="bold" lengthAdjust="spacingAndGlyphs" textLength="57" x="353" y="355.5289">Services</text><!--MD5=[600c2d25b6889bd4e9f6b335204b22ae]
cluster Repositories--><path d="M539,515.523 L623,515.523 A4.5,4.5 0 0 1 626,518.523 L633,536.0074 L710,536.0074 A3,3 0 0 1 713,539.0074 L713,638.5225 A3,3 0 0 1 710,641.5225 L539,641.5225 A3,3 0 0 1 536,638.5225 L536,518.523 A3,3 0 0 1 539,515.523 " fill="#FFFFFF" style="stroke: #000000; stroke-width: 1.5;"/><line style="stroke: #000000; stroke-width: 1.5;" x1="536" x2="633" y1="536.0074" y2="536.0074"/><text fill="#000000" font-family="Tahoma, sans-serif" font-size="12" font-weight="bold" lengthAdjust="spacingAndGlyphs" textLength="84" x="540" y="529.5289">Repositories</text><!--MD5=[114f4823940f317c08f5bedd633c9afd]
cluster Entities--><path d="M740.5,381.523 L790.5,381.523 A4.5,4.5 0 0 1 793.5,384.523 L800.5,402.0074 L1228,402.0074 A3,3 0 0 1 1231,405.0074 L1231,527.523 A3,3 0 0 1 1228,530.523 L740.5,530.523 A3,3 0 0 1 737.5,527.523 L737.5,384.523 A3,3 0 0 1 740.5,381.523 " fill="#FFFFFF" style="stroke: #000000; stroke-width: 1.5;"/><line style="stroke: #000000; stroke-width: 1.5;" x1="737.5" x2="800.5" y1="402.0074" y2="402.0074"/><text fill="#000000" font-family="Tahoma, sans-serif" font-size="12" font-weight="bold" lengthAdjust="spacingAndGlyphs" textLength="50" x="741.5" y="395.5289">Entities</text><!--MD5=[9149df60bdb753397a8aec95a07bd16a]
cluster Errors--><path d="M752,554.523 L792,554.523 A4.5,4.5 0 0 1 795,557.523 L802,575.0074 L880,575.0074 A3,3 0 0 1 883,578.0074 L883,634.523 A3,3 0 0 1 880,637.523 L752,637.523 A3,3 0 0 1 749,634.523 L749,557.523 A3,3 0 0 1 752,554.523 " fill="#FFFFFF" style="stroke: #000000; stroke-width: 1.5;"/><line style="stroke: #000000; stroke-width: 1.5;" x1="749" x2="802" y1="575.0074" y2="575.0074"/><text fill="#000000" font-family="Tahoma, sans-serif" font-size="12" font-weight="bold" lengthAdjust="spacingAndGlyphs" textLength="40" x="753" y="568.5289">Errors</text><ellipse cx="73.163" cy="172.765" fill="#F8F8F8" rx="29.163" ry="13.242" style="stroke: #383838; stroke-width: 0.5;"/><text fill="#000000" font-family="Tahoma, sans-serif" font-size="12" lengthAdjust="spacingAndGlyphs" textLength="37" x="54.663" y="176.5072">routes</text><ellipse cx="72.9914" cy="131.765" fill="#F8F8F8" rx="31.9914" ry="13.242" style="stroke: #383838; stroke-width: 0.5;"/><text fill="#000000" font-family="Tahoma, sans-serif" font-size="12" font-weight="bold" lengthAdjust="spacingAndGlyphs" textLength="41" x="52.4914" y="135.5072">server</text><!--MD5=[9e96457d60a40d7b446d98a35d5539e5]
entity _apartment_controller--><rect fill="#F8F8F8" height="34.4844" rx="3" ry="3" style="stroke: #000000; stroke-width: 0.5;" width="136" x="173" y="317.523"/><text fill="#000000" font-family="Tahoma, sans-serif" font-size="12" lengthAdjust="spacingAndGlyphs" textLength="116" x="183" y="339.5289">apartment.controller</text><!--MD5=[d06a8b9102defe736655824e5da7ce2d]
entity _auth_controller--><rect fill="#F8F8F8" height="34.4844" rx="3" ry="3" style="stroke: #000000; stroke-width: 0.5;" width="103" x="189.5" y="219.523"/><text fill="#000000" font-family="Tahoma, sans-serif" font-size="12" lengthAdjust="spacingAndGlyphs" textLength="83" x="199.5" y="241.5289">auth.controller</text><!--MD5=[d86e588f3408319142292d1b5d5a3230]
entity _user_controller--><rect fill="#F8F8F8" height="34.4844" rx="3" ry="3" style="stroke: #000000; stroke-width: 0.5;" width="103" x="189.5" y="268.523"/><text fill="#000000" font-family="Tahoma, sans-serif" font-size="12" lengthAdjust="spacingAndGlyphs" textLength="83" x="199.5" y="290.5289">user.controller</text><ellipse cx="624.3198" cy="123.765" fill="#F8F8F8" rx="34.8198" ry="13.242" style="stroke: #383838; stroke-width: 0.5;"/><text fill="#000000" font-family="Tahoma, sans-serif" font-size="12" lengthAdjust="spacingAndGlyphs" textLength="45" x="601.8198" y="127.5072">auth.jwt</text><ellipse cx="815.9558" cy="76.765" fill="#F8F8F8" rx="28.4558" ry="13.242" style="stroke: #383838; stroke-width: 0.5;"/><text fill="#000000" font-family="Tahoma, sans-serif" font-size="12" lengthAdjust="spacingAndGlyphs" textLength="36" x="797.9558" y="80.5072">logger</text><!--MD5=[f24447cfbda88c07e91dd3d7c0c3db79]
entity _TypeORMLogger--><rect fill="#F8F8F8" height="34.4844" rx="3" ry="3" style="stroke: #000000; stroke-width: 0.5;" width="112" x="568.5" y="61.523"/><text fill="#000000" font-family="Tahoma, sans-serif" font-size="12" lengthAdjust="spacingAndGlyphs" textLength="92" x="578.5" y="83.5289">TypeORMLogger</text><!--MD5=[090835527c10669de3872c7ae72a3e7a]
entity _Auth--><rect fill="#F8F8F8" height="34.4844" rx="3" ry="3" style="stroke: #000000; stroke-width: 0.5;" width="45" x="793.5" y="209.523"/><text fill="#000000" font-family="Tahoma, sans-serif" font-size="12" lengthAdjust="spacingAndGlyphs" textLength="25" x="803.5" y="231.5289">Auth</text><!--MD5=[a59e0cdbfcc9060e410ebd05378c71bb]
entity _models_Apartment--><rect fill="#F8F8F8" height="34.4844" rx="3" ry="3" style="stroke: #000000; stroke-width: 0.5;" width="126" x="753" y="307.523"/><text fill="#000000" font-family="Tahoma, sans-serif" font-size="12" lengthAdjust="spacingAndGlyphs" textLength="106" x="763" y="329.5289">models/Apartment</text><!--MD5=[4c029acf0569c1dbcb6e2b5523401c80]
entity _models_User--><rect fill="#F8F8F8" height="34.4844" rx="3" ry="3" style="stroke: #000000; stroke-width: 0.5;" width="94" x="769" y="258.523"/><text fill="#000000" font-family="Tahoma, sans-serif" font-size="12" lengthAdjust="spacingAndGlyphs" textLength="74" x="779" y="280.5289">models/User</text><ellipse cx="430.5478" cy="472.5326" fill="#F8F8F8" rx="65.5478" ry="15.5096" style="stroke: #383838; stroke-width: 0.5;"/><text fill="#000000" font-family="Tahoma, sans-serif" font-size="12" lengthAdjust="spacingAndGlyphs" textLength="102" x="379.5478" y="476.2748">apartment.service</text><ellipse cx="430.2904" cy="387.765" fill="#F8F8F8" rx="51.7904" ry="13.242" style="stroke: #383838; stroke-width: 0.5;"/><text fill="#000000" font-family="Tahoma, sans-serif" font-size="12" lengthAdjust="spacingAndGlyphs" textLength="69" x="395.7904" y="391.5072">auth.service</text><ellipse cx="430.2904" cy="428.765" fill="#F8F8F8" rx="51.7904" ry="13.242" style="stroke: #383838; stroke-width: 0.5;"/><text fill="#000000" font-family="Tahoma, sans-serif" font-size="12" lengthAdjust="spacingAndGlyphs" textLength="69" x="395.7904" y="432.5072">user.service</text><ellipse cx="624.6526" cy="608.4535" fill="#F8F8F8" rx="72.6526" ry="16.9305" style="stroke: #383838; stroke-width: 0.5;"/><text fill="#000000" font-family="Tahoma, sans-serif" font-size="12" lengthAdjust="spacingAndGlyphs" textLength="119" x="565.1526" y="612.1957">apartment.repository</text><ellipse cx="624.7159" cy="562.7662" fill="#F8F8F8" rx="59.2159" ry="14.2432" style="stroke: #383838; stroke-width: 0.5;"/><text fill="#000000" font-family="Tahoma, sans-serif" font-size="12" lengthAdjust="spacingAndGlyphs" textLength="86" x="581.7159" y="566.5084">user.repository</text><!--MD5=[2026c0bd7f4956f7b059870106b72831]
entity _entities_Apartment--><rect fill="#F8F8F8" height="34.4844" rx="3" ry="3" style="stroke: #000000; stroke-width: 0.5;" width="125" x="753.5" y="431.523"/><text fill="#000000" font-family="Tahoma, sans-serif" font-size="12" lengthAdjust="spacingAndGlyphs" textLength="105" x="763.5" y="453.5289">entities/Apartment</text><!--MD5=[147a91f99759f6cb8c425b4553f458eb]
entity _entities_User--><rect fill="#F8F8F8" height="34.4844" rx="3" ry="3" style="stroke: #000000; stroke-width: 0.5;" width="93" x="911" y="431.523"/><text fill="#000000" font-family="Tahoma, sans-serif" font-size="12" lengthAdjust="spacingAndGlyphs" textLength="73" x="921" y="453.5289">entities/User</text><!--MD5=[6970322dd021e8bde36f20252f8dcdf3]
entity _EntityWithIdAndTimestamps--><rect fill="#F8F8F8" height="34.4844" rx="3" ry="3" style="stroke: #000000; stroke-width: 0.5;" width="180" x="1035" y="431.523"/><text fill="#000000" font-family="Tahoma, sans-serif" font-size="12" lengthAdjust="spacingAndGlyphs" textLength="160" x="1045" y="453.5289">EntityWithIdAndTimestamps</text><!--MD5=[df7b7da2504707e2c9c337bf9ecd3425]
entity _EventLog--><rect fill="#F8F8F8" height="34.4844" rx="3" ry="3" style="stroke: #000000; stroke-width: 0.5;" width="72" x="921.5" y="480.523"/><text fill="#000000" font-family="Tahoma, sans-serif" font-size="12" lengthAdjust="spacingAndGlyphs" textLength="52" x="931.5" y="502.5289">EventLog</text><!--MD5=[92f79613f4aed56de1922575dc6caf90]
entity _NotFoundError--><rect fill="#F8F8F8" height="34.4844" rx="3" ry="3" style="stroke: #000000; stroke-width: 0.5;" width="102" x="765" y="587.523"/><text fill="#000000" font-family="Tahoma, sans-serif" font-size="12" lengthAdjust="spacingAndGlyphs" textLength="82" x="775" y="609.5289">NotFoundError</text><!--MD5=[6cc8762ce868c43b85eddf0415429863]
link _apartment_controller to apartment.service--><path d="M252.092,351.858 C267.797,377.261 300.528,424.309 341,449.523 C349.916,455.077 360.136,459.297 370.39,462.501 " fill="none" id="_apartment_controller-&gt;apartment.service" style="stroke: #000000; stroke-width: 0.5;"/><polygon fill="#000000" points="375.421,463.993,367.931,457.5977,370.6276,462.5704,365.6549,465.267,375.421,463.993" style="stroke: #000000; stroke-width: 0.5;"/><!--MD5=[0858b8ca08335c7aefde438a5d5b3e8c]
link _apartment_controller to auth.jwt--><path d="M309.094,318.513 C317.227,316.079 325.356,313.406 333,310.523 C336.719,309.119 337.34,308.074 341,306.523 C418.648,273.599 450.333,291.057 520,243.523 C561.462,215.232 596.395,166.317 613.046,140.543 " fill="none" id="_apartment_controller-&gt;auth.jwt" style="stroke: #000000; stroke-width: 0.5;"/><polygon fill="#000000" points="615.75,136.311,607.5338,141.7419,613.0581,140.5245,614.2755,146.0489,615.75,136.311" style="stroke: #000000; stroke-width: 0.5;"/><!--MD5=[c20c81bcba0db35d3dd628bd55f33ab8]
link _apartment_controller to _models_Apartment--><path d="M309.133,333.351 C419.243,331.429 636.983,327.629 747.397,325.702 " fill="none" id="_apartment_controller-&gt;_models_Apartment" style="stroke: #000000; stroke-width: 0.5;"/><polygon fill="#000000" points="752.573,325.612,743.5046,321.7695,747.5738,325.6992,743.6441,329.7683,752.573,325.612" style="stroke: #000000; stroke-width: 0.5;"/><!--MD5=[9e470a0f4cc480046c2336c3151c48bb]
link apartment.repository to _entities_Apartment--><path d="M687.408,599.87 C699.236,596.362 711.024,591.437 721,584.523 C732.164,576.784 778.218,506.123 801.457,469.83 " fill="none" id="apartment.repository-&gt;_entities_Apartment" style="stroke: #000000; stroke-width: 0.5;"/><polygon fill="#000000" points="804.174,465.581,795.9565,471.0099,801.4811,469.7939,802.6971,475.3185,804.174,465.581" style="stroke: #000000; stroke-width: 0.5;"/><!--MD5=[e8795b8090cf0242c71807e88ceeb1cb]
link apartment.repository to _entities_User--><path d="M644.485,625.126 C664.103,641.0859 696.376,664.1279 729,673.5225 C803.313,694.9226 847.235,727.1015 903,673.5225 C919.037,658.114 899.296,492.434 911,473.523 C911.901,472.066 912.919,470.689 914.032,469.386 " fill="none" id="apartment.repository-&gt;_entities_User" style="stroke: #000000; stroke-width: 0.5;"/><polygon fill="#000000" points="917.631,465.698,908.4829,469.3466,914.1393,469.2768,914.209,474.9333,917.631,465.698" style="stroke: #000000; stroke-width: 0.5;"/><!--MD5=[86a44cc1d310c16ba3be45a680fb52f3]
link apartment.repository to _EventLog--><path d="M636.024,625.356 C652.41,649.7751 686.587,694.0148 729,711.5225 C800.482,741.0302 842.045,759.1144 903,711.5225 C933.289,687.8736 948.967,569.788 954.329,519.864 " fill="none" id="apartment.repository-&gt;_EventLog" style="stroke: #000000; stroke-width: 0.5;"/><polygon fill="#000000" points="954.874,514.686,949.9546,523.2183,954.351,519.6586,957.9107,524.055,954.874,514.686" style="stroke: #000000; stroke-width: 0.5;"/><!--MD5=[8f91c3bb19418fbc6b7e609ed91061ae]
link apartment.repository to _models_Apartment--><path d="M693.443,602.932 C704.064,599.094 713.867,593.265 721,584.523 C733.726,568.925 720.499,421.77 729,403.523 C740.382,379.091 763.136,358.729 782.381,344.799 " fill="none" id="apartment.repository-&gt;_models_Apartment" style="stroke: #000000; stroke-width: 0.5;"/><polygon fill="#000000" points="786.68,341.75,777.0249,343.6942,782.6017,344.6427,781.6532,350.2194,786.68,341.75" style="stroke: #000000; stroke-width: 0.5;"/><!--MD5=[2952776b15c6dbe5a1b163b1aff2571a]
link apartment.service to apartment.repository--><path d="M440.569,488.232 C455.541,512.712 487.81,559.721 528,584.523 C537.21,590.206 547.704,594.546 558.285,597.86 " fill="none" id="apartment.service-&gt;apartment.repository" style="stroke: #000000; stroke-width: 0.5;"/><polygon fill="#000000" points="563.149,599.311,555.6688,592.9042,558.3578,597.8811,553.381,600.5701,563.149,599.311" style="stroke: #000000; stroke-width: 0.5;"/><!--MD5=[cfc65d6c0cae18dcf3e5ca14ec95ff72]
link apartment.service to _models_Apartment--><path d="M488.945,465.393 C549.227,456.264 645.534,436.933 721,399.523 C748.998,385.643 776.39,362.355 794.314,345.404 " fill="none" id="apartment.service-&gt;_models_Apartment" style="stroke: #000000; stroke-width: 0.5;"/><polygon fill="#000000" points="798.215,341.674,788.9456,345.0025,794.6011,345.1294,794.4742,350.7848,798.215,341.674" style="stroke: #000000; stroke-width: 0.5;"/><!--MD5=[aaf6bb04ec7f0ad0e7dffbf36b8a8be6]
link _auth_controller to _Auth--><path d="M292.599,235.639 C410.317,233.585 699.309,228.542 788.408,226.987 " fill="none" id="_auth_controller-&gt;_Auth" style="stroke: #000000; stroke-width: 0.5;"/><polygon fill="#000000" points="793.491,226.898,784.4226,223.0555,788.4918,226.9852,784.5621,231.0543,793.491,226.898" style="stroke: #000000; stroke-width: 0.5;"/><!--MD5=[d54f8a898f2b2f93b3b33fade19514d3]
link _auth_controller to auth.service--><path d="M292.683,244.286 C306.551,247.998 321.041,253.469 333,261.523 C375.129,289.893 406.621,342.736 420.952,370.098 " fill="none" id="_auth_controller-&gt;auth.service" style="stroke: #000000; stroke-width: 0.5;"/><polygon fill="#000000" points="423.265,374.582,422.6921,364.7498,420.972,370.1388,415.583,368.4187,423.265,374.582" style="stroke: #000000; stroke-width: 0.5;"/><!--MD5=[562c46d0512001f86390504dff043105]
link _auth_controller to logger--><path d="M260.184,219.418 C302.826,180.631 414.282,86.791 528,53.523 C620.023,26.601 735.268,52.935 787.275,67.832 " fill="none" id="_auth_controller-&gt;logger" style="stroke: #000000; stroke-width: 0.5;"/><polygon fill="#000000" points="792.108,69.236,784.5805,62.8849,787.3064,67.8417,782.3496,70.5675,792.108,69.236" style="stroke: #000000; stroke-width: 0.5;"/><!--MD5=[572c719d8e046331fbd67b721e6b8c15]
link auth.jwt to _Auth--><path d="M649.555,132.842 C669.178,140.741 697.411,152.789 721,165.523 C744.673,178.301 770.198,195.073 788.668,207.796 " fill="none" id="auth.jwt-&gt;_Auth" style="stroke: #000000; stroke-width: 0.5;"/><polygon fill="#000000" points="793.206,210.938,788.0836,202.5261,789.0952,208.0917,783.5295,209.1034,793.206,210.938" style="stroke: #000000; stroke-width: 0.5;"/><!--MD5=[d2d7d09a7514e225210c9e2c095de26d]
link auth.jwt to logger--><path d="M655.704,117.312 C674.54,113.332 699.251,107.918 721,102.523 C743.082,97.045 767.88,90.155 786.459,84.844 " fill="none" id="auth.jwt-&gt;logger" style="stroke: #000000; stroke-width: 0.5; stroke-dasharray: 7.0,7.0;"/><polygon fill="#000000" points="791.527,83.39,781.7731,82.026,786.7207,84.7683,783.9784,89.716,791.527,83.39" style="stroke: #000000; stroke-width: 0.5;"/><!--MD5=[224bc9a7bec10d656533ed895f4a5b22]
link auth.jwt to _models_User--><path d="M632.178,136.25 C646.389,162.07 682.193,220.756 729,251.523 C739.314,258.302 751.532,263.186 763.472,266.698 " fill="none" id="auth.jwt-&gt;_models_User" style="stroke: #000000; stroke-width: 0.5;"/><polygon fill="#000000" points="768.565,268.12,760.9719,261.8475,763.7491,266.7757,758.8209,269.5529,768.565,268.12" style="stroke: #000000; stroke-width: 0.5;"/><!--MD5=[32ca86990d707716a406822f99e0a40d]
link auth.service to _Auth--><path d="M454.162,375.775 C503.274,350.629 623.599,290.696 729,251.523 C748.416,244.306 770.913,237.831 788.027,233.279 " fill="none" id="auth.service-&gt;_Auth" style="stroke: #000000; stroke-width: 0.5;"/><polygon fill="#000000" points="793.156,231.929,783.4343,230.3517,788.3207,233.2017,785.4707,238.0882,793.156,231.929" style="stroke: #000000; stroke-width: 0.5;"/><!--MD5=[9e9f16af2e1b4bb8d9144e8ef5210e61]
link auth.service to auth.jwt--><path d="M442.916,374.566 C461.21,353.276 497.334,309.002 520,266.523 C524.898,257.343 522.935,253.611 528,244.523 C550.936,203.371 587.488,161.597 608.083,139.517 " fill="none" id="auth.service-&gt;auth.jwt" style="stroke: #000000; stroke-width: 0.5;"/><polygon fill="#000000" points="611.736,135.628,602.6588,139.4496,608.3129,139.2725,608.49,144.9266,611.736,135.628" style="stroke: #000000; stroke-width: 0.5;"/><!--MD5=[1383f3e222429f0733e643250a9c4b0e]
link auth.service to user.repository--><path d="M479.224,392.147 C493.271,395.208 508.059,400.247 520,408.523 C570.013,443.182 602.571,510.539 616.203,543.47 " fill="none" id="auth.service-&gt;user.repository" style="stroke: #000000; stroke-width: 0.5;"/><polygon fill="#000000" points="618.228,548.449,618.5414,538.6051,616.3437,543.8176,611.1312,541.6199,618.228,548.449" style="stroke: #000000; stroke-width: 0.5;"/><!--MD5=[b5c23d07f236d1178bc1899d3effdd89]
link _entities_Apartment to _entities_User--><path d="M878.593,448.523 C887.538,448.523 896.666,448.523 905.375,448.523 " fill="none" id="_entities_Apartment-&gt;_entities_User" style="stroke: #000000; stroke-width: 0.5; stroke-dasharray: 7.0,7.0;"/><polygon fill="#000000" points="910.738,448.523,901.738,444.523,905.738,448.523,901.738,452.523,910.738,448.523" style="stroke: #000000; stroke-width: 0.5;"/><!--MD5=[24755b029eafb07319e502a30c0f7013]
link _entities_Apartment to _EntityWithIdAndTimestamps--><path d="M874.228,431.493 C886.268,428.594 898.968,426.034 911,424.523 C952.011,419.37 962.868,420.45 1004,424.523 C1017.56,425.865 1031.85,428.041 1045.66,430.548 " fill="none" id="_entities_Apartment-&gt;_EntityWithIdAndTimestamps" style="stroke: #000000; stroke-width: 0.5; stroke-dasharray: 7.0,7.0;"/><polygon fill="#000000" points="1050.73,431.486,1042.6132,425.9077,1045.8143,430.5717,1041.1503,433.7728,1050.73,431.486" style="stroke: #000000; stroke-width: 0.5;"/><!--MD5=[d80f597ef9c43ab3fc662f9b7fe01968]
link _entities_User to _EntityWithIdAndTimestamps--><path d="M1004.162,448.523 C1012.16,448.523 1020.75,448.523 1029.52,448.523 " fill="none" id="_entities_User-&gt;_EntityWithIdAndTimestamps" style="stroke: #000000; stroke-width: 0.5; stroke-dasharray: 7.0,7.0;"/><polygon fill="#000000" points="1034.99,448.523,1025.99,444.523,1029.99,448.523,1025.99,452.523,1034.99,448.523" style="stroke: #000000; stroke-width: 0.5;"/><!--MD5=[2d6b21759ce17737018b6286045c33fa]
link _EventLog to _EntityWithIdAndTimestamps--><path d="M993.598,487.131 C1013.35,481.282 1038.6,473.806 1061.61,466.994 " fill="none" id="_EventLog-&gt;_EntityWithIdAndTimestamps" style="stroke: #000000; stroke-width: 0.5; stroke-dasharray: 7.0,7.0;"/><polygon fill="#000000" points="1066.49,465.551,1056.726,464.2609,1061.6943,466.9657,1058.9895,471.934,1066.49,465.551" style="stroke: #000000; stroke-width: 0.5;"/><!--MD5=[afa5ff013eb80bbadf484fee2552db1b]
link routes to _apartment_controller--><path d="M77.2646,185.431 C84.8894,212.866 106.528,277.189 149,310.523 C154.744,315.03 161.255,318.696 168.091,321.675 " fill="none" id="routes-&gt;_apartment_controller" style="stroke: #000000; stroke-width: 0.5;"/><polygon fill="#000000" points="172.87,323.631,166.0545,316.5212,168.2422,321.7379,163.0255,323.9256,172.87,323.631" style="stroke: #000000; stroke-width: 0.5;"/><!--MD5=[a6574b0883c99c33d1c1e34f472f0782]
link routes to _auth_controller--><path d="M95.7016,180.889 C119.727,190.152 159.234,205.384 190.841,217.57 " fill="none" id="routes-&gt;_auth_controller" style="stroke: #000000; stroke-width: 0.5;"/><polygon fill="#000000" points="195.842,219.498,188.8831,212.5285,191.1766,217.6996,186.0056,219.9931,195.842,219.498" style="stroke: #000000; stroke-width: 0.5;"/><!--MD5=[562440ee5b2be334a30381992739c0d2]
link routes to auth.jwt--><path d="M101.6264,170.059 C192.265,161.977 480.745,136.252 585.241,126.934 " fill="none" id="routes-&gt;auth.jwt" style="stroke: #000000; stroke-width: 0.5;"/><polygon fill="#000000" points="590.375,126.476,581.0552,123.2916,585.3948,126.9203,581.766,131.2599,590.375,126.476" style="stroke: #000000; stroke-width: 0.5;"/><!--MD5=[c3d2556c4d629c2bc3d7bb124fdead71]
link routes to _user_controller--><path d="M81.1953,185.282 C92.8548,204.766 117.754,241.749 149,261.523 C159.604,268.233 172.036,273.077 184.245,276.571 " fill="none" id="routes-&gt;_user_controller" style="stroke: #000000; stroke-width: 0.5;"/><polygon fill="#000000" points="189.091,277.892,181.4611,271.6643,184.2673,276.5761,179.3555,279.3823,189.091,277.892" style="stroke: #000000; stroke-width: 0.5;"/><!--MD5=[58b1ddf9e3fd87978458e42747798e8d]
link <b>server</b> to _Auth--><path d="M103.9658,135.364 C224.571,150.826 673.485,208.38 788.182,223.084 " fill="none" id="&lt;b&gt;server&lt;/b&gt;-&gt;_Auth" style="stroke: #000000; stroke-width: 1.0;"/><polygon fill="#000000" points="793.388,223.752,784.9695,218.6403,788.4286,223.1164,783.9525,226.5754,793.388,223.752" style="stroke: #000000; stroke-width: 1.0;"/><!--MD5=[322b45c47471d12b6d49db8397c5ba50]
link <b>server</b> to auth.jwt--><path d="M102.3839,126.364 C116.367,124.078 133.512,121.652 149,120.523 C313.452,108.527 355.128,118.134 520,120.523 C541.194,120.83 564.822,121.49 584.146,122.114 " fill="none" id="&lt;b&gt;server&lt;/b&gt;-&gt;auth.jwt" style="stroke: #000000; stroke-width: 1.0;"/><polygon fill="#000000" points="589.476,122.288,580.6123,117.9945,584.4787,122.1238,580.3495,125.9902,589.476,122.288" style="stroke: #000000; stroke-width: 1.0;"/><!--MD5=[5dcf67e50701372d1e4b38ad174e1bd8]
link <b>server</b> to logger--><path d="M88.5481,119.98 C102.9991,109.173 126.232,93.527 149,85.523 C389.675,0.909 470.801,-12.321 721,37.523 C746.718,42.646 774.212,54.938 792.777,64.364 " fill="none" id="&lt;b&gt;server&lt;/b&gt;-&gt;logger" style="stroke: #000000; stroke-width: 1.0;"/><polygon fill="#000000" points="797.299,66.693,791.1298,59.0157,792.854,64.4034,787.4664,66.1277,797.299,66.693" style="stroke: #000000; stroke-width: 1.0;"/><!--MD5=[918f1540acef5cbfe8e12ed9833e65d6]
link <b>server</b> to _models_User--><path d="M104.839,133.48 C118.103,136.016 132.488,141.385 141,152.523 C155.179,171.075 137.917,341.97 149,362.523 C198.757,454.791 241.163,467.556 341,499.523 C506.592,552.544 621.909,549.396 721,406.523 C734.463,387.112 714.117,318.867 729,300.523 C737.638,289.876 750.527,283.598 763.715,279.942 " fill="none" id="&lt;b&gt;server&lt;/b&gt;-&gt;_models_User" style="stroke: #000000; stroke-width: 1.0;"/><polygon fill="#000000" points="768.58,278.71,758.8736,277.0412,763.7329,279.9371,760.837,284.7965,768.58,278.71" style="stroke: #000000; stroke-width: 1.0;"/><!--MD5=[b5550d8c7cbc955c7a41f0bf9d55f796]
link <b>server</b> to routes--><path d="M73,144.585 C73,147.824 73,151.062 73,154.301 " fill="none" id="&lt;b&gt;server&lt;/b&gt;-&gt;routes" style="stroke: #000000; stroke-width: 1.0; stroke-dasharray: 7.0,7.0;"/><polygon fill="#000000" points="73,159.39,77,150.39,73,154.39,69,150.39,73,159.39" style="stroke: #000000; stroke-width: 1.0;"/><!--MD5=[b7da318761176cd6308606b45640b193]
link <b>server</b> to _TypeORMLogger--><path d="M96.5973,122.666 C111.289,117.316 130.994,110.899 149,107.523 C295.886,79.978 472.378,76.89 563.105,77.442 " fill="none" id="&lt;b&gt;server&lt;/b&gt;-&gt;_TypeORMLogger" style="stroke: #000000; stroke-width: 1.0;"/><polygon fill="#000000" points="568.157,77.478,559.1858,73.4138,563.1571,77.4423,559.1287,81.4136,568.157,77.478" style="stroke: #000000; stroke-width: 1.0;"/><!--MD5=[e740ba654b198251af9249c33f84db62]
link _TypeORMLogger to logger--><path d="M680.566,77.941 C713.589,77.593 754.461,77.161 782.414,76.866 " fill="none" id="_TypeORMLogger-&gt;logger" style="stroke: #000000; stroke-width: 0.5; stroke-dasharray: 7.0,7.0;"/><polygon fill="#000000" points="787.478,76.813,778.4362,72.9084,782.4783,76.8659,778.5208,80.9079,787.478,76.813" style="stroke: #000000; stroke-width: 0.5;"/><!--MD5=[f9d07b912afd61cfb43e6511e1d68859]
link _user_controller to auth.jwt--><path d="M292.913,280.206 C307.098,276.693 321.7,270.933 333,261.523 C339.417,256.179 334.915,250.241 341,244.523 C403.371,185.917 441.639,207.937 520,173.523 C547.178,161.586 577.717,146.64 598.534,136.212 " fill="none" id="_user_controller-&gt;auth.jwt" style="stroke: #000000; stroke-width: 0.5;"/><polygon fill="#000000" points="603.085,133.926,593.2471,134.3908,598.6169,136.1701,596.8376,141.5398,603.085,133.926" style="stroke: #000000; stroke-width: 0.5;"/><!--MD5=[0fb2ab3080e68b16e7150866435982e3]
link _user_controller to _models_User--><path d="M292.599,284.639 C400.96,282.748 654.447,278.325 763.557,276.42 " fill="none" id="_user_controller-&gt;_models_User" style="stroke: #000000; stroke-width: 0.5;"/><polygon fill="#000000" points="768.643,276.332,759.5747,272.4894,763.6438,276.4191,759.7141,280.4882,768.643,276.332" style="stroke: #000000; stroke-width: 0.5;"/><!--MD5=[097b81be3c6bf7c7e3a5dba365f1a503]
link _user_controller to user.service--><path d="M292.92,288.53 C307.975,292.006 323.068,298.539 333,310.523 C346.943,327.346 326.675,392.024 341,408.523 C349.297,418.078 361.101,423.606 373.395,426.693 " fill="none" id="_user_controller-&gt;user.service" style="stroke: #000000; stroke-width: 0.5;"/><polygon fill="#000000" points="378.31,427.797,370.4053,421.922,373.4315,426.7013,368.6522,429.7275,378.31,427.797" style="stroke: #000000; stroke-width: 0.5;"/><!--MD5=[91323e5e891003a8aa47e6c2bae4dadc]
link user.repository to _entities_User--><path d="M683.144,564.756 C697.235,568.024 711.092,573.988 721,584.523 C735.817,600.277 712.498,618.543 729,632.523 C788.007,682.5089 846.96,685.8138 903,632.523 C915.818,620.333 901.614,488.516 911,473.523 C911.909,472.071 912.933,470.697 914.051,469.398 " fill="none" id="user.repository-&gt;_entities_User" style="stroke: #000000; stroke-width: 0.5;"/><polygon fill="#000000" points="917.664,465.718,908.5049,469.3388,914.1615,469.2862,914.214,474.9428,917.664,465.718" style="stroke: #000000; stroke-width: 0.5;"/><!--MD5=[8b3a2cc741c76eb341206bb75debbab7]
link user.repository to _EventLog--><path d="M683.181,564.158 C697.445,567.398 711.379,573.498 721,584.523 C733.911,599.317 714.5,659.2811 729,672.5225 C786.105,724.6714 840.835,718.5226 903,672.5225 C951.196,636.859 957.407,558.675 957.343,520.042 " fill="none" id="user.repository-&gt;_EventLog" style="stroke: #000000; stroke-width: 0.5;"/><polygon fill="#000000" points="957.293,514.639,953.378,523.6763,957.3401,519.6388,961.3777,523.6009,957.293,514.639" style="stroke: #000000; stroke-width: 0.5;"/><!--MD5=[268a1c9652f8bd851d1a6e5346c68370]
link user.repository to _models_User--><path d="M646.759,549.513 C669.747,534.103 705.216,506.108 721,471.523 C728.897,454.219 717.228,315.463 729,300.523 C737.57,289.645 750.586,283.31 763.918,279.674 " fill="none" id="user.repository-&gt;_models_User" style="stroke: #000000; stroke-width: 0.5;"/><polygon fill="#000000" points="768.836,278.453,759.1371,276.7411,763.9835,279.6586,761.066,284.5051,768.836,278.453" style="stroke: #000000; stroke-width: 0.5;"/><!--MD5=[377b8237ad725c1771be360cf8bd3c66]
link user.repository to _NotFoundError--><path d="M668.5,572.053 C695.546,578.047 730.707,585.84 759.803,592.289 " fill="none" id="user.repository-&gt;_NotFoundError" style="stroke: #000000; stroke-width: 0.5;"/><polygon fill="#000000" points="764.789,593.394,756.8689,587.5398,759.9077,592.3112,755.1363,595.35,764.789,593.394" style="stroke: #000000; stroke-width: 0.5;"/><!--MD5=[b64e42995474d859eb56ab10f112be97]
link user.service to _models_User--><path d="M473.999,421.209 C488.794,418.065 505.349,413.864 520,408.523 C618.233,372.709 631.898,339.298 729,300.523 C740.119,296.083 752.329,292.052 763.969,288.586 " fill="none" id="user.service-&gt;_models_User" style="stroke: #000000; stroke-width: 0.5;"/><polygon fill="#000000" points="768.917,287.135,759.1555,285.8265,764.1187,288.5406,761.4045,293.5038,768.917,287.135" style="stroke: #000000; stroke-width: 0.5;"/><!--MD5=[063e2d6f822dd6550b1063ec9215e714]
link user.service to user.repository--><path d="M477.59,434.076 C491.869,437.176 507.201,442.004 520,449.523 C560.983,473.597 595.174,519.107 612.091,544.407 " fill="none" id="user.service-&gt;user.repository" style="stroke: #000000; stroke-width: 0.5;"/><polygon fill="#000000" points="614.851,548.587,613.2277,538.8728,612.095,544.4151,606.5527,543.2824,614.851,548.587" style="stroke: #000000; stroke-width: 0.5;"/><script type="text/plantuml"><![CDATA[MD5=[ea13c37151a0456852aa847d1035d73a]
@startuml

scale max 1920 width
left to right direction

skinparam nodesep 15
skinparam ranksep 31
skinparam monochrome true
skinparam shadowing false
skinparam defaultFontName Tahoma
skinparam defaultFontSize 12
skinparam roundCorner 6
skinparam dpi 150
skinparam arrowColor black
skinparam arrowThickness 0.5
skinparam packageTitleAlignment left

skinparam usecase {
  borderThickness 0.5
}

skinparam rectangle {
  borderThickness 0.5
}

skinparam component {
  borderThickness 1
}


package "Server & Router" {
  (routes)
  (<b>server</b>)
}

package "Controllers" {
  rectangle "apartment.controller" as _apartment_controller
  rectangle "auth.controller" as _auth_controller
  rectangle "user.controller" as _user_controller
}

package "Middlewares" {
  (auth.jwt)
  (logger)
  rectangle "TypeORMLogger" as _TypeORMLogger
}

package "Models" {
  rectangle "Auth" as _Auth
  rectangle "models/Apartment" as _models_Apartment
  rectangle "models/User" as _models_User
}

package "Services" {
  (apartment.service)
  (auth.service)
  (user.service)
}

package "Repositories" {
  (apartment.repository)
  (user.repository)
}

package "Entities" {
  rectangle "entities/Apartment" as _entities_Apartment
  rectangle "entities/User" as _entities_User
  rectangle "EntityWithIdAndTimestamps" as _EntityWithIdAndTimestamps
  rectangle "EventLog" as _EventLog
}

package "Errors" {
  rectangle "NotFoundError" as _NotFoundError
}

_apartment_controller --> (apartment.service)
_apartment_controller --> (auth.jwt)
_apartment_controller --> _models_Apartment
(apartment.repository) --> _entities_Apartment
(apartment.repository) --> _entities_User
(apartment.repository) --> _EventLog
(apartment.repository) --> _models_Apartment
(apartment.service) --> (apartment.repository)
(apartment.service) --> _models_Apartment
_auth_controller --> _Auth
_auth_controller --> (auth.service)
_auth_controller --> (logger)
(auth.jwt) --> _Auth
(auth.jwt) ..> (logger)
(auth.jwt) --> _models_User
(auth.service) --> _Auth
(auth.service) --> (auth.jwt)
(auth.service) --> (user.repository)
_entities_Apartment ..> _entities_User
_entities_Apartment ..> _EntityWithIdAndTimestamps
_entities_User ..> _EntityWithIdAndTimestamps
_EventLog ..> _EntityWithIdAndTimestamps
(routes) --> _apartment_controller
(routes) --> _auth_controller
(routes) --> (auth.jwt)
(routes) --> _user_controller
(<b>server</b>) -[thickness=1]> _Auth
(<b>server</b>) -[thickness=1]> (auth.jwt)
(<b>server</b>) -[thickness=1]> (logger)
(<b>server</b>) -[thickness=1]> _models_User
(<b>server</b>) .[thickness=1]> (routes)
(<b>server</b>) -[thickness=1]> _TypeORMLogger
_TypeORMLogger ..> (logger)
_user_controller --> (auth.jwt)
_user_controller --> _models_User
_user_controller --> (user.service)
(user.repository) --> _entities_User
(user.repository) --> _EventLog
(user.repository) --> _models_User
(user.repository) --> _NotFoundError
(user.service) --> _models_User
(user.service) --> (user.repository)

@enduml


' View and edit on https://arkit.pro
]]></script></g></svg>